<?xml version="1.0" encoding="utf-8"?>
<!-- Generator: Adobe Illustrator 25.3.1, SVG Export Plug-In . SVG Version: 6.00 Build 0)  -->
<svg version="1.1" id="Calque_1" xmlns="http://www.w3.org/2000/svg" xmlns:xlink="http://www.w3.org/1999/xlink" x="0px" y="0px"
	 viewBox="0 0 200 200" style="enable-background:new 0 0 200 200;" xml:space="preserve">
<style type="text/css">
	.st0{fill-rule:evenodd;clip-rule:evenodd;fill:#FFFFFF;}
	.st1{fill:#3A5896;}
</style>
<g>
	<g>
		<polygon class="st0" points="0,0 200,0 200,200 0,200 0,0 		"/>
	</g>
	<path class="st1" d="M21.61,102.28h-6.34l3.37-11.14L21.61,102.28z M11.99,114.76l2.16-7.4h8.54l2.02,7.4h7.91l-7.87-28.08
		c-0.45-1.65-1.44-2.43-3.15-2.43h-11.2v2.61h0.95c1.16,0,1.8,0.45,1.8,1.37c0,0.59-0.14,1.1-0.59,2.48L4.7,114.76H11.99z"/>
	<path class="st1" d="M42.35,114.76V86.59c0-1.47-0.84-2.33-2.22-2.33H33.3v2.61h0.45c1.17,0,1.66,0.51,1.66,1.7v26.2H42.35z"/>
	<path class="st1" d="M54.6,114.76V86.59c0-1.47-0.85-2.33-2.22-2.33h-6.83v2.61h0.46c1.17,0,1.66,0.51,1.66,1.7v26.2H54.6z"/>
	<path class="st1" d="M66.85,87.03c0-2.02-1.44-3.24-3.94-3.24c-2.46,0-3.94,1.21-3.94,3.24c0,2.02,1.49,3.24,3.94,3.24
		C65.41,90.26,66.85,89.05,66.85,87.03z M66.85,114.76V94.01c0-1.47-0.85-2.36-2.23-2.36h-6.77v2.77h0.4c1.17,0,1.66,0.55,1.66,1.75
		v18.59H66.85z"/>
	<path class="st1" d="M82.49,103.83v4.41c-1.18,1.23-2.64,1.96-3.87,1.96c-1.28,0-1.73-0.63-1.73-2.32c0-1.68,0.36-2.46,1.64-2.95
		C79.48,104.51,80.71,104.15,82.49,103.83z M73.06,98.51c2.33-1.14,4.87-1.78,6.87-1.78c1.88,0,2.55,0.69,2.55,2.69v0.5
		c-2.84,0.45-3.73,0.64-5.33,1c-0.93,0.22-1.78,0.5-2.61,0.87c-2.8,1.13-4.13,3.37-4.13,6.78c0,4.33,1.82,6.42,5.6,6.42
		c1.37,0,2.62-0.27,3.73-0.73c0.97-0.46,1.55-0.83,2.98-1.97v0.32c0,1.42,0.73,2.15,2.14,2.15h6.49v-2.61h-0.32
		c-1.21,0-1.66-0.5-1.66-1.86V99.46c0-5.81-1.98-7.81-7.68-7.81c-1.84,0-3.64,0.23-5.39,0.64c-1.75,0.41-2.65,0.77-4.76,1.83
		L73.06,98.51z"/>
	<path class="st1" d="M102.04,114.76V99.24c1.25-1.33,2.55-1.93,4.04-1.93c1.59,0,1.97,0.6,1.97,2.9v14.55h6.94V99.05
		c0-3.65-0.28-4.8-1.43-6.05c-0.96-1.06-2.43-1.62-4.33-1.62c-2.8,0-4.78,0.91-7.45,3.51v-0.95c0-1.51-0.71-2.29-2.14-2.29h-6.59
		v2.77h0.4c1.17,0,1.66,0.55,1.66,1.75v18.59H102.04z"/>
	<path class="st1" d="M136.35,110.09h-9.8l9.35-13.31v-4.67H121.1c-1.68,0-2.45,0.77-2.45,2.46v4.13h2.77v-0.41
		c0-1.05,0.54-1.55,1.66-1.55h5.04l-9.48,13.45v4.58h17.7V110.09z"/>
	<path class="st1" d="M173.9,113.33V87.89c0-2.03-0.66-2.71-2.62-2.71h-5.73v2.77h0.34h0.6c0.21,0,0.42,0.14,0.6,0.32
		c0.25,0.32,0.34,0.64,0.34,1.32v23.75H173.9z M177.14,113.33h6.47V94.07c0-1.94-0.71-2.71-2.66-2.71h-3.81V113.33z M164.66,113.33
		V91.35h-3.83c-1.89,0-2.64,0.77-2.64,2.71v19.26H164.66z M190.08,100.41c0,11.52-8.22,19.9-19.41,19.9
		c-11.25,0-19.41-8.38-19.41-19.9c0-11.48,8.17-19.85,19.41-19.85C181.86,80.56,190.08,88.93,190.08,100.41z M194.7,100.41
		c0-14.02-10.26-24.48-24.01-24.48c-13.75,0-24.06,10.46-24.06,24.48c0,14.06,10.31,24.52,24.06,24.52
		C184.44,124.93,194.7,114.47,194.7,100.41z"/>
</g>
</svg>
