<?xml version="1.0" encoding="utf-8"?>
<!-- Generator: Adobe Illustrator 25.3.1, SVG Export Plug-In . SVG Version: 6.00 Build 0)  -->
<svg version="1.1" id="Calque_1" xmlns="http://www.w3.org/2000/svg" xmlns:xlink="http://www.w3.org/1999/xlink" x="0px" y="0px"
	 viewBox="0 0 200 200" style="enable-background:new 0 0 200 200;" xml:space="preserve">
<style type="text/css">
	.st0{fill-rule:evenodd;clip-rule:evenodd;fill:#FFFFFF;}
	.st1{fill:#0066B1;}
	.st2{fill:#FFE700;}
	.st3{fill:#0061AD;}
</style>
<g>
	<polygon class="st0" points="0,0 200,0 200,200 0,200 0,0 	"/>
	<g>
		<polygon class="st1" points="168.94,126.78 168.94,75.66 20.65,75.66 20.65,126.78 168.94,126.78 		"/>
		<path class="st2" d="M94.79,125.45c40.36,0,73.08-10.85,73.08-24.23c0-13.38-32.72-24.23-73.08-24.23s-73.08,10.85-73.08,24.23
			C21.71,114.6,54.43,125.45,94.79,125.45L94.79,125.45z"/>
		<path class="st3" d="M54.47,111.28c0.35,0,0.49-0.14,0.3-0.35c-0.14-0.16-0.39-1.27-0.39-2.45V94.73c0-1.18,0.25-2.29,0.39-2.45
			c0.18-0.21,0.05-0.35-0.3-0.35H42.02c-0.35,0-0.48,0.14-0.3,0.35c0.14,0.16,0.39,1.27,0.39,2.45v13.77c0,1.18-0.25,2.29-0.39,2.45
			c-0.18,0.21-0.05,0.35,0.3,0.35H54.47L54.47,111.28z"/>
		<path class="st3" d="M73.21,98.84l4.53-6.15c0.18-0.18,0.09-0.44,0.09-0.55c0-0.12,0-0.21,0.09-0.21h12.29
			c0.16,0,0.09,0.12,0.02,0.21l-5.06,7.07c-0.23,0.3-0.18,0.58,0.05,0.88l6.95,10.99c0.07,0.09,0.14,0.21-0.02,0.21H77.14
			c-0.09,0-0.09-0.09-0.09-0.21c0-0.11,0.23-1.11,0.05-1.29l-3.88-5.94l0,4.64c0,1.18,0.25,2.29,0.39,2.45
			c0.18,0.21,0.05,0.35-0.3,0.35H61.23c-0.35,0-0.49-0.14-0.3-0.35c0.14-0.16,0.39-1.27,0.39-2.45V94.73c0-1.18-0.25-2.29-0.39-2.45
			c-0.18-0.21-0.05-0.35,0.3-0.35h12.08c0.35,0,0.49,0.14,0.3,0.35c-0.14,0.16-0.39,1.27-0.39,2.45L73.21,98.84L73.21,98.84z"/>
		<path class="st3" d="M108.06,104.1c0-0.08,0.03-0.35,0.35-0.35h4.78c0.49,0,2.27-0.06,2.42,0.09c0.15,0.15,0.34,0.06,0.34-0.23
			v-4.64c0-0.29-0.19-0.39-0.34-0.23c-0.15,0.15-1.93,0.09-2.42,0.09h-4.78c-0.32,0-0.35-0.27-0.35-0.35l0-0.94
			c0-0.08,0.03-0.35,0.35-0.35h6.87c1.17,0,2.26,0.25,2.42,0.39c0.21,0.18,0.34,0.05,0.34-0.3v-5.36H96.41
			c-0.34,0-0.48,0.17-0.3,0.38c0.14,0.16,0.39,1.26,0.39,2.42v13.62c0,1.17-0.25,2.26-0.39,2.42c-0.18,0.21-0.05,0.34,0.3,0.34
			l21.64,0v-5.7c0-0.34-0.14-0.48-0.34-0.3c-0.16,0.14-1.26,0.39-2.42,0.39h-6.87c-0.32,0-0.35-0.27-0.35-0.35L108.06,104.1
			L108.06,104.1z"/>
		<path class="st3" d="M152.34,111.11c0,0-7.19-17.08-7.29-17.36c-0.1-0.28-0.21-0.77-0.03-1.21c0.18-0.44,0.03-0.54-0.28-0.54
			h-16.82c-0.31,0-0.46,0.1-0.28,0.54c0.18,0.44,0.08,0.93-0.03,1.21c-0.1,0.28-6.47,17.36-6.47,17.36h10.34
			c0.24,0,0.3-0.12,0.22-0.28c-0.08-0.17-0.08-0.55,0.04-0.84l0.55-1.84c0.18-0.52,0.44-0.59,0.88-0.59h4.55
			c0.44,0,0.7,0.08,0.88,0.59l0.55,1.84c0.12,0.28,0.12,0.67,0.04,0.84c-0.08,0.17-0.03,0.28,0.22,0.28H152.34L152.34,111.11z
			 M134,103.78c-0.16-0.01-0.18-0.18-0.14-0.3l1.12-2.65c0.05-0.08,0.07-0.15,0.17-0.15c0.1,0,0.12,0.08,0.17,0.15l1.12,2.65
			c0.05,0.12,0.03,0.28-0.13,0.3H134L134,103.78z"/>
		<path class="st3" d="M174.73,77.46c0.68,0,1.28-0.05,1.28-0.86c0-0.65-0.59-0.77-1.15-0.77h-1.09v1.63H174.73L174.73,77.46z
			 M173.77,80.42h-0.8v-5.26h2c1.24,0,1.86,0.46,1.86,1.5c0,0.94-0.59,1.35-1.36,1.45l1.5,2.32h-0.89l-1.39-2.28h-0.92V80.42
			L173.77,80.42z M174.74,81.59c2.07,0,3.69-1.62,3.69-3.82c0-2.16-1.63-3.79-3.69-3.79c-2.09,0-3.72,1.63-3.72,3.79
			C171.02,79.97,172.65,81.59,174.74,81.59L174.74,81.59z M170.1,77.77c0-2.62,2.13-4.55,4.64-4.55c2.49,0,4.61,1.93,4.61,4.55
			c0,2.64-2.12,4.58-4.61,4.58C172.23,82.35,170.1,80.42,170.1,77.77L170.1,77.77z"/>
	</g>
</g>
</svg>
