<?xml version="1.0" encoding="utf-8"?>
<!-- Generator: Adobe Illustrator 25.3.1, SVG Export Plug-In . SVG Version: 6.00 Build 0)  -->
<svg version="1.1" id="Calque_1" xmlns="http://www.w3.org/2000/svg" xmlns:xlink="http://www.w3.org/1999/xlink" x="0px" y="0px"
	 viewBox="0 0 200 200" style="enable-background:new 0 0 200 200;" xml:space="preserve">
<style type="text/css">
	.st0{fill:#FFFFFF;}
	.st1{fill:#E85325;}
	.st2{fill:#501615;}
</style>
<g>
	<rect class="st0" width="200" height="200"/>
	<g>
		<g>
			<path class="st0" d="M99.58,142.13c-47.04,0-75.94-12.74-76.23-12.87l-0.38-0.17V70.9l0.38-0.17
				c0.29-0.13,29.44-12.86,76.23-12.86c46.79,0,76.77,12.71,77.06,12.84l0.38,0.17v58.26l-0.38,0.17
				C176.35,129.43,146.62,142.13,99.58,142.13z"/>
			<path class="st0" d="M99.58,58.5c47.2,0,76.81,12.79,76.81,12.79v57.43c0,0-29.36,12.78-76.81,12.78
				c-47.44,0-75.97-12.81-75.97-12.81V71.31C23.61,71.31,52.38,58.5,99.58,58.5 M99.58,57.23c-46.92,0-76.2,12.79-76.49,12.92
				l-0.75,0.34v0.83v57.38v0.82l0.75,0.34c0.29,0.13,29.32,12.92,76.49,12.92c47.17,0,77.02-12.76,77.32-12.89l0.76-0.33v-0.83
				V71.29v-0.84l-0.77-0.33C176.6,69.99,146.5,57.23,99.58,57.23L99.58,57.23z"/>
		</g>
		<path class="st1" d="M99.58,58.5c-47.2,0-75.97,12.81-75.97,12.81v57.38c0,0,28.53,12.81,75.97,12.81
			c47.45,0,76.81-12.78,76.81-12.78V71.29C176.39,71.29,146.78,58.5,99.58,58.5 M171.81,125.4c-20.41,7.65-51.7,11.13-72.19,11.13
			c-20.21,0-51.13-3.49-71.39-11.16V74.48c20.27-7.68,51.18-11.17,71.39-11.17c20.5,0,51.79,3.49,72.19,11.14V125.4z"/>
		<path class="st2" d="M93.6,93.1c0.05-4.11-0.26-4.2-7.78-4.11c-2.12,4.52-5.91,15.83-7.56,22.79c-1.34-5.65-4.08-14.15-6.2-19.58
			c-1.14-2.93-1.43-3.53-5.28-3.37c-1.58,0.06-4.41,0.25-5.4,0.41c0.22,0.71,0.83,1.88,0.92,3.11c0.61,8.05-1.08,25.27-1.56,25.99
			c4.62,0.41,5.49-0.11,5.6-2.08c0.12-2.51,0.79-13.65,0.9-20.75c2.56,6.74,6.4,18.37,7.29,21.71c0.38,1.43,1.91,1.3,3.31,1.3
			c1.21,0,2.52,0.04,2.88-1.3c0.88-3.34,4.73-14.97,7.29-21.71c0,0,0.5,17.65,0.42,20.65c-0.08,2.99,2.3,2.4,6.37,2.18
			C94.24,117.5,93.52,99.92,93.6,93.1"/>
		<path class="st2" d="M139.24,105.51c0.08-5.85-2.03-8.04-5.58-8.04c-2.35,0-4.07,1.02-6.21,3.38c0.01-4.79,0.09-9.35,0.21-11.81
			c0.08-1.48-1.71-1.31-2.98-1.31c-1.09,0-3.43,0.39-4.02,0.97c0.33,0.43,1.03,1.63,1.18,3.32c0.62,6.83,0.02,21.55,0.26,24.27
			c0.16,1.83,0.9,2.3,6.02,2.05c-0.41-0.63-0.61-6.72-0.65-13.35c0.34-1.61,1.78-2.67,3.58-2.67c2.15,0,2.55,1.94,2.54,4.76
			c-0.01,3.68,0.11,7.3,0.28,9.21c0.16,1.83,0.89,2.3,6.02,2.05C139.31,117.46,139.16,111.32,139.24,105.51"/>
		<path class="st2" d="M167.13,89.04c0.08-1.48-1.72-1.31-2.98-1.31c-1.09,0-3.43,0.39-4.02,0.97c0.33,0.42,1.02,1.6,1.17,3.25
			c0.63,6.81,0.02,21.61,0.26,24.34c0.16,1.83,0.9,2.3,6.02,2.05C166.79,117.13,166.79,95.61,167.13,89.04"/>
		<path class="st2" d="M102.48,99.04c0.07-1.48-1.71-1.3-2.98-1.3c-1.09,0-2.97,0.38-3.55,0.97c1.67,2.18,0.64,14.92,0.96,17.68
			c0.21,1.83,0.9,2.3,6.02,2.05C102.14,117.22,102.28,103.36,102.48,99.04"/>
		<path class="st2" d="M151.66,97.39c-6.99,0-10.77,5.15-10.77,11.25c0,6.88,5.33,10.23,10.47,10.23c3.43,0,5.96-1.12,7.5-2.53
			l-0.06-4.84c-0.84,1.93-3.43,3.27-5.75,3.25c-2.52,0-5.2-1.33-5.62-3.99c-0.1-0.65-0.04-0.89,0.73-1.03
			c1.22-0.23,11.31-1.96,11.31-1.96C160.27,102.24,157.19,97.39,151.66,97.39 M154.42,104.02c0.14,1.11-0.22,1.71-1.55,1.99
			c-1.3,0.27-3.93,0.79-5.1,1.02c-0.37,0.08-0.65-0.16-0.7-0.6c-0.39-3.42,1.67-5.4,4.03-5.4
			C152.84,101.03,154.17,102.16,154.42,104.02"/>
		<path class="st2" d="M99.54,96.16c1.95,0,3.08-1.24,3.08-2.91c0-1.74-1.19-2.91-3.08-2.91c-1.93,0-3.09,1.26-3.09,2.91
			C96.46,95.03,97.73,96.16,99.54,96.16"/>
		<path class="st2" d="M110.29,108.02c0-4.36,1.91-6.63,4.96-6.62c1.28,0,3.02,0.5,4.18,1.31c1.03-2.51,0.17-5.32-4.26-5.32
			c-7.61,0-10.88,5.15-10.88,11.25c0,6.88,4.1,10.23,9.14,10.23c2.73,0,5.47-0.88,7.01-2.02l0.02-4.84
			c-1.05,1.42-2.75,2.45-4.84,2.45C112.83,114.47,110.29,112.66,110.29,108.02"/>
		<path class="st2" d="M55.24,101.77c-0.05-1.42-0.06-3.1-0.06-4.74c0.72,0.02,1.47,0.06,2.25,0c1.34-0.1,1.69-0.41,1.51-2.75
			c-0.59,0.24-1.96,0.29-3.74,0.27c0.02-1.47,0.05-2.75,0.09-3.57c0.05-1.09-1.26-0.95-2.19-0.95c-0.8,0-2.19,0.27-2.62,0.71
			c1.04,1.35,0.66,9.46,0.66,12.18c0,3.46,1.99,5.13,5.62,5.13c1.5,0,2.73-0.39,3.51-1.08l0-2.54c-0.48,0.55-1.38,0.92-2.42,0.92
			C56.11,105.35,55.34,104.44,55.24,101.77"/>
		<path class="st2" d="M38.31,96.31c0-2.34,1.98-2.78,4.12-2.78c2.45,0,4.83,0.89,6.1,1.78c1.13-2.73,0.16-5.8-5.7-5.8
			c-6.86,0-9.79,3.83-9.79,7.98c0,7.54,11.16,7.37,11.16,12.39c0,1.65-1.42,3.33-4.45,3.33c-3.5,0-6.17-1.86-7.21-3.59l-0.06,4.74
			c1.66,1.52,4.39,2.73,8.09,2.73c5.6,0,9.14-3.12,9.14-8.17C49.71,100.6,38.31,101.1,38.31,96.31"/>
		<path class="st1" d="M119.86,72.68c-0.29-1-1.67-0.68-1.56,0.36c-3.21,0.68-4.16,3.4-4.88,6.32c-0.07,0.27-1.96,1.43-4.1,3.35
			c-0.05,0.04-0.52-0.31-0.51-0.35c0.17-1.79-0.77-3.36-1.6-3.34c-0.01,0-0.02,0.01-0.03,0.01c-0.4-2.05-2.17-5.39-3.24-4.85
			c-0.25,0.13-0.36,0.48-0.12,1.04c0.01,0.03-0.01,0.06-0.03,0.04c-1.11-0.87-1.65,0-1.35,0.81c0.02,0.06-0.02,0.08-0.05,0.06
			c-1.05-0.94-1.59,0.05-1.32,1.17c-0.73-0.13-1.07,0.38-0.85,1.43c-1.54,0.37-0.29,3.13,1.18,4.09c0.01,0.27,0.11,0.57,0.34,0.88
			c0.62,0.83,1.38,1.44,1.72,2.37c0.45,1.24-0.13,1.68,0.14,3.58c0.34,2.44,4.12,3.63,4.84,4.53c0.67,0.84,1.85,3.2,1.52,3.69
			c-0.34,0.5-0.59,0.19-0.82,0.6c-0.08,0.14-1.11-0.03-1.01,1.03c4.81-2.2,7.64-2.18,7.64-2.18c-0.09-0.3-0.25-0.44-0.59-0.48
			c-0.33-0.03-0.98,0.21-1.33,0.17c-0.35-0.03-0.55-0.38-0.84-0.42c-0.3-0.05-0.63-0.8-0.9-1.49c-0.12-0.31-0.03-1.14,0.3-1.32
			c1.69-0.86,2.7-2.48,2.92-2.55c3.96-1.26,5.11-4.08,4.23-7.06c-0.53-1.83-1.99-3.17-2.17-5.05c-0.08-0.83-0.11-1.72,0.83-2.59
			c0.55-0.5,1.4-0.81,2.02-0.98c0.38,0.01,0.97,0.27,1.33,0.14c-0.04-0.23-0.11-0.52-0.2-0.81
			C122.47,73.43,120.66,72.16,119.86,72.68 M111.14,97.06c-0.26-0.27-1.21-1.45-1.51-2.61c-0.11-0.42,0.2-0.75,0.48-0.58
			c0.62,0.37,1.62,1.82,1.97,2.81C112.26,97.21,111.65,97.6,111.14,97.06 M119.54,74.88c-0.24,0-0.45-0.2-0.46-0.46
			c-0.01-0.25,0.19-0.47,0.43-0.47c0.24-0.01,0.44,0.19,0.45,0.45C119.97,74.65,119.79,74.87,119.54,74.88"/>
	</g>
</g>
</svg>
