<?xml version="1.0" encoding="utf-8"?>
<!-- Generator: Adobe Illustrator 25.3.1, SVG Export Plug-In . SVG Version: 6.00 Build 0)  -->
<svg version="1.1" id="Calque_1" xmlns="http://www.w3.org/2000/svg" xmlns:xlink="http://www.w3.org/1999/xlink" x="0px" y="0px"
	 viewBox="0 0 200 200" style="enable-background:new 0 0 200 200;" xml:space="preserve">
<style type="text/css">
	.st0{fill:#FFFFFF;}
	.st1{fill:#FFD51F;}
	.st2{fill:#EE3424;}
	.st3{fill:#F8991C;}
</style>
<g>
	<rect y="0" class="st0" width="200" height="200"/>
	<g id="Bandai_Namco">
		<g>
			<g>
				<path class="st0" d="M178.12,114.31l-0.02-0.04c0,0,0.14-0.28,0.17-0.34c0.75-1.42,1.59-3.02,2.06-4.48
					c0.71-2.25,1.08-4.58,1.08-6.93c0-7.04-3.21-14.09-9.53-20.95c0,0-0.36-0.39-0.38-0.47c0.43-2.25,0.63-4.06,0.63-5.71
					c0-5.59-1.72-10.72-5.12-15.24c-8.83-11.75-26.32-9.99-31.53-9.18c-6-3.12-12.41-5.11-19.61-6.11
					c-19.8-2.73-34.65,4.07-50.65,12.54c-11.35,6.02-22.97,12.82-29.45,24c-1.29,0.8-2.77,1.74-4.08,2.71
					c-8.7,6.49-13.11,13.61-13.11,21.16l0,0.11v0.11c0.09,8.02,5.18,15.67,15.13,22.75c3.55,2.53,9.12,5.33,14.22,7.17
					c1.87,1.78,4.46,4.16,6.14,5.4c10.41,7.69,20.75,12,32.55,13.58c8.97,1.2,31.8,3.33,50.04-2.85c0.02-0.02,0.03-0.03,2.08-0.77
					l4.79,0.17c22.27,0.13,34.66-8.01,36.8-24.19l0.17-2.53c0-2.12-0.35-4.25-1.06-6.52C179.16,116.73,178.73,115.65,178.12,114.31"
					/>
				<path class="st1" d="M175.96,108.06c2.63-8.25-0.91-16.28-7.45-23.37c-0.6-0.64-1.26-1.37-1.98-2.15
					c-0.17,0.61-0.35,1.22-0.55,1.85c-0.89,2.9-1.53,5.65-1.49,8.03c0.15,7.18,3.62,13.35,7.3,19.64c0.42,0.72,0.82,1.43,1.2,2.14
					c0.13-0.26,0.26-0.52,0.39-0.79C174.15,111.85,175.47,109.61,175.96,108.06"/>
				<path class="st1" d="M94.42,139.05c-9.85-1.6-24.76-2.91-36.89-5.62c-2.56-0.57-4.95-1.23-7.12-2c2.24,2.15,4.89,4.59,6.39,5.7
					c8.02,5.92,17.68,11.01,30.45,12.72c15.31,2.05,34.18,2.01,48-2.68c0.94-0.32,1.86-0.66,2.76-1.01c-1.44-0.09-2.9-0.2-4.36-0.34
					C119.03,144.41,103.77,140.57,94.42,139.05"/>
				<path class="st2" d="M155.16,70.88c4.21,3.92,8.3,8.32,11.38,11.67c2.05-7.6,1.04-13.99-3.19-19.64
					c-5.63-7.47-17.51-9.17-28.02-7.26c-0.11,0.03-0.3,0.06-0.52,0.11c0.72,0.4,1.42,0.82,2.11,1.25
					C142.8,60.5,149.61,65.71,155.16,70.88"/>
				<path class="st2" d="M141.1,144.7c-0.98,0.56-2.03,1.03-3.1,1.46c1.87,0.11,3.74,0.18,5.57,0.19
					c16.26,0.1,30.12-4.32,32.23-20.19c0.33-2.45,0-4.79-0.72-7.07c-0.51-1.65-1.26-3.27-2.11-4.87c-1.02,1.97-2.22,3.94-3.59,5.9
					C162.44,130,151.69,138.69,141.1,144.7"/>
				<path class="st2" d="M47.07,128.16c-11.57-11.84-14.3-26.01-9.92-38.85c0.56-1.63,1.24-3.18,2.01-4.64
					c-1.63,0.98-3.21,2.02-4.72,3.14c-15.03,11.21-15.62,24.2,1.95,36.69c3.44,2.45,9.06,5.21,13.65,6.8
					c0.12,0.05,0.25,0.08,0.36,0.12C49.03,130.11,47.8,128.9,47.07,128.16"/>
				<path class="st1" d="M92.29,66.8c18.61-5.43,37.06-9.84,37.9-10.03c0.6-0.14,3.33-0.75,4.6-1.02
					c-5.41-3.02-11.74-5.25-19.54-6.33c-18.83-2.59-32.88,4.11-47.87,12.05c-12.36,6.55-22.84,13.06-28.22,23.2
					c4.1-2.46,8.52-4.48,13-6.2C58.82,75.9,83.19,69.46,92.29,66.8"/>
				<path class="st3" d="M171.78,112.07c-3.67-6.29-7.14-12.47-7.3-19.64c-0.04-2.38,0.6-5.13,1.49-8.03
					c0.21-0.63,0.39-1.24,0.55-1.85c-3.08-3.35-7.17-7.74-11.38-11.67C149.61,65.71,142.8,60.5,136.91,57
					c-0.69-0.43-1.39-0.85-2.11-1.25c-1.27,0.27-4,0.88-4.6,1.02c-0.84,0.19-19.29,4.6-37.9,10.03c-9.09,2.66-33.47,9.1-40.13,11.67
					c-4.48,1.72-8.9,3.74-13,6.2c-0.77,1.46-1.45,3-2.01,4.64c-4.37,12.84-1.65,27.02,9.92,38.85c0.73,0.74,1.95,1.95,3.33,3.27
					c2.17,0.77,4.56,1.43,7.12,2c12.13,2.71,27.04,4.03,36.89,5.62c9.36,1.53,24.61,5.37,39.23,6.77c1.46,0.14,2.92,0.25,4.36,0.34
					c1.07-0.44,2.12-0.91,3.1-1.46c10.58-6,21.34-14.69,28.29-24.58c1.37-1.96,2.57-3.93,3.59-5.9
					C172.6,113.49,172.2,112.78,171.78,112.07"/>
				<path class="st0" d="M57.01,87.41h1.43c1.64,0,3.23,0.16,3.23,1.87c0,1.57-1.66,1.98-3.28,1.98h-1.38V87.41 M52.1,102.52h7.77
					c3.3,0,7.18-0.93,7.18-5.39c0-2.27-1.27-3.6-3.73-4.11v-0.05c2.06-0.7,3.25-2.01,3.25-4.36c0-3.2-2.57-4.72-6-4.72H52.1V102.52z
					 M57.01,94.62h1.51c1.69,0,3.62,0.18,3.62,2.21c0,1.9-1.87,2.16-3.67,2.16h-1.45V94.62z"/>
				<path class="st0" d="M68.34,102.52h5l1.45-3.97h6.92l1.37,3.97h5.39l-7.11-18.64h-6.02L68.34,102.52 M80.55,95.02h-4.63
					l2.38-7.28h0.04L80.55,95.02z"/>
				<polyline class="st0" points="90.88,83.89 97.15,83.89 103.38,96.54 103.44,96.54 103.36,83.89 107.85,83.89 107.85,102.52 
					101.75,102.52 95.3,89.79 95.24,89.79 95.4,102.52 90.88,102.52 90.88,83.89 				"/>
				<path class="st0" d="M111.77,102.52h6.71c6.28,0,10.91-2.43,10.91-9.39c0-7.21-4.48-9.24-10.91-9.24h-6.71V102.52 M116.68,87.57
					h1.9c3.59,0,5.73,1.93,5.73,5.64c0,3.71-2.06,5.64-5.73,5.64h-1.9V87.57z"/>
				<path class="st0" d="M129.58,102.52h4.99l1.45-3.97h6.92l1.37,3.97h5.4l-7.11-18.64h-6.02L129.58,102.52 M141.8,95.02h-4.63
					l2.37-7.28h0.05L141.8,95.02z"/>
				<rect x="151.91" y="83.89" class="st0" width="4.93" height="18.64"/>
				<polyline class="st0" points="52.1,108.25 58.43,108.25 64.73,120.9 64.78,120.9 64.7,108.25 69.24,108.25 69.24,126.88 
					63.08,126.88 56.56,114.15 56.51,114.15 56.67,126.88 52.1,126.88 52.1,108.25 				"/>
				<path class="st0" d="M71.82,126.88h5.05l1.47-3.98h6.99l1.38,3.98h5.45l-7.18-18.63H78.9L71.82,126.88 M84.16,119.38h-4.67
					l2.4-7.29h0.04L84.16,119.38z"/>
				<polyline class="st0" points="94.75,108.25 102.58,108.25 106.53,120.63 106.58,120.63 110.72,108.25 118.24,108.25 
					118.24,126.88 113.38,126.88 113.47,112.57 113.42,112.57 108.66,126.88 104.09,126.88 99.56,112.57 99.51,112.57 99.61,126.88 
					94.75,126.88 94.75,108.25 				"/>
				<path class="st0" d="M137.44,126.46c-1.42,0.33-3,0.75-5.53,0.75c-4.97,0-10.7-2.51-10.7-9.56c0-6.48,4.53-9.72,10.68-9.72
					c1.9,0,3.73,0.44,5.53,0.97l-0.41,4.04c-1.6-0.89-3.15-1.31-4.86-1.31c-3.52,0-5.82,2.56-5.82,6.03c0,3.66,2.59,5.88,6.22,5.88
					c1.62,0,3.29-0.43,4.65-0.97L137.44,126.46"/>
				<path class="st0" d="M139.65,117.56c0,5.93,3.26,9.64,9.34,9.64c6.08,0,9.34-3.71,9.34-9.64c0-5.98-3.2-9.65-9.34-9.65
					C142.86,107.92,139.65,111.58,139.65,117.56 M144.77,117.56c0-3.23,1.2-5.95,4.22-5.95c3.02,0,4.22,2.73,4.22,5.95
					c0,3.07-1.21,5.96-4.22,5.96C145.97,123.52,144.77,120.63,144.77,117.56z"/>
			</g>
		</g>
	</g>
</g>
</svg>
