<?xml version="1.0" encoding="utf-8"?>
<!-- Generator: Adobe Illustrator 25.3.1, SVG Export Plug-In . SVG Version: 6.00 Build 0)  -->
<svg version="1.1" id="Calque_1" xmlns="http://www.w3.org/2000/svg" xmlns:xlink="http://www.w3.org/1999/xlink" x="0px" y="0px"
	 viewBox="0 0 200 200" style="enable-background:new 0 0 200 200;" xml:space="preserve">
<style type="text/css">
	.st0{fill:#FFFFFF;}
	.st1{fill:#00A551;}
	.st2{fill-rule:evenodd;clip-rule:evenodd;fill:#00A551;}
	.st3{fill-rule:evenodd;clip-rule:evenodd;fill:#80C242;}
	.st4{fill-rule:evenodd;clip-rule:evenodd;fill:#FFFFFF;}
	.st5{fill-rule:evenodd;clip-rule:evenodd;fill:#FFE60D;}
</style>
<g>
	<rect y="0" class="st0" width="200" height="200"/>
	<g>
		<path class="st1" d="M131.02,41.71c0,3.32-1.17,7.89-5.86,7.89c-5.67,0-5.67-6.35-5.67-7.69c0-1.29,0-8.09,5.82-8.09
			C130.62,33.83,131.02,39.69,131.02,41.71L131.02,41.71z M119.57,24h-3.8v24.43l-0.08,3.64h3.67l0.08-3.07
			c0.41,0.61,0.85,1.29,1.99,2.06c1.74,1.17,3.56,1.29,4.53,1.29c2.79,0,5.51-1.17,7.13-3.48c1.01-1.33,1.94-3.48,1.94-7.4
			c0-4.45-1.38-6.47-2.38-7.64c-1.86-2.1-4.41-2.59-6.44-2.59c-4.61,0-6.11,2.55-6.63,3.48V24L119.57,24z"/>
		<path class="st1" d="M141.57,42.52c0-1.82,0-8.25,6.07-8.25c4.49,0,5.58,3.8,5.58,7.44c0,1.46-0.2,4.37-1.66,6.35
			c-1.29,1.78-3.32,1.98-4.29,1.98C141.94,50.05,141.57,44.99,141.57,42.52L141.57,42.52z M137.94,59.88h3.76V49.8
			c1.09,1.78,3.28,3.03,6.23,3.03c4.86,0,9.26-3.32,9.26-10.88c0-7.52-4.16-10.52-8.53-10.52c-1.66,0-5.02,0.48-6.92,3.68
			l-0.08-3.36h-3.84c0.08,1.94,0.12,2.43,0.12,3.32V59.88L137.94,59.88z"/>
		<path id="XMLID_55_" class="st2" d="M107.78,73.88c-2.87-6.77-6.38-11.93-7.77-14.02c-1.39,2.09-4.91,7.25-7.77,14.02
			c2.8,3.02,5.57,6.57,7.77,10.59C102.2,80.44,104.97,76.89,107.78,73.88L107.78,73.88z"/>
		<path id="XMLID_54_" class="st2" d="M92.23,161.99c2.86,6.76,6.38,11.93,7.77,14.01c1.39-2.09,4.91-7.25,7.77-14.01
			c-2.8-3.02-5.58-6.57-7.77-10.6C97.8,155.41,95.03,158.96,92.23,161.99L92.23,161.99z"/>
		<path id="XMLID_53_" class="st2" d="M92.23,73.88c-4.99-5.38-10.07-9.03-12.09-10.51c-0.6,2.43-2.13,8.49-2.5,15.83
			c3.66,1.88,7.48,4.27,10.92,7.29C89.25,81.95,90.64,77.66,92.23,73.88L92.23,73.88z"/>
		<path id="XMLID_52_" class="st2" d="M107.78,161.99c4.99,5.38,10.07,9.02,12.09,10.51c0.59-2.44,2.13-8.49,2.5-15.82
			c-3.66-1.88-7.48-4.28-10.92-7.3C110.75,153.91,109.37,158.2,107.78,161.99L107.78,161.99z"/>
		<path id="XMLID_51_" class="st2" d="M77.64,79.19c-6.54-3.35-12.55-5.04-14.96-5.75c0.27,2.5,0.89,8.72,3.06,15.74
			c4.08,0.5,8.48,1.45,12.76,3.12C77.59,87.8,77.43,83.3,77.64,79.19L77.64,79.19z"/>
		<path id="XMLID_50_" class="st2" d="M122.37,156.68c6.53,3.34,12.55,5.03,14.96,5.74c-0.27-2.49-0.9-8.71-3.06-15.73
			c-4.07-0.51-8.48-1.46-12.76-3.13C122.41,148.07,122.58,152.56,122.37,156.68L122.37,156.68z"/>
		<path id="XMLID_49_" class="st2" d="M71.03,101.2c-2.38-3.92-4.08-8.1-5.29-12.02c-7.29-0.91-13.52-0.45-16.02-0.28
			c1.11,2.25,3.82,7.87,8.25,13.73C61.97,101.71,66.44,101.1,71.03,101.2L71.03,101.2z"/>
		<path id="XMLID_48_" class="st2" d="M128.97,134.66c2.39,3.92,4.1,8.1,5.29,12.02c7.29,0.91,13.52,0.44,16.03,0.29
			c-1.11-2.26-3.82-7.89-8.25-13.75C138.03,134.15,133.57,134.77,128.97,134.66L128.97,134.66z"/>
		<path id="XMLID_47_" class="st2" d="M57.96,102.63c-7.15,1.63-12.85,4.2-15.15,5.22c1.82,1.73,6.29,6.09,12.46,10.08
			c3.45-2.23,7.43-4.34,11.78-5.81C63.47,109.25,60.45,105.91,57.96,102.63L57.96,102.63z"/>
		<path id="XMLID_46_" class="st2" d="M144.73,117.93c-3.45,2.23-7.43,4.35-11.78,5.81c3.58,2.87,6.61,6.21,9.09,9.48
			c7.16-1.63,12.86-4.2,15.15-5.21C155.37,126.28,150.9,121.91,144.73,117.93L144.73,117.93z"/>
		<path id="XMLID_45_" class="st2" d="M67.05,123.74c-4.35-1.47-8.34-3.58-11.78-5.81c-6.16,3.98-10.64,8.35-12.46,10.08
			c2.3,1.01,7.99,3.58,15.15,5.21C60.45,129.95,63.47,126.61,67.05,123.74L67.05,123.74z"/>
		<path id="XMLID_44_" class="st2" d="M132.95,112.12c4.35,1.47,8.33,3.58,11.78,5.81c6.17-3.99,10.65-8.35,12.46-10.08
			c-2.29-1.01-7.99-3.58-15.15-5.22C139.56,105.91,136.53,109.25,132.95,112.12L132.95,112.12z"/>
		<path id="XMLID_43_" class="st2" d="M57.96,133.23c-4.42,5.86-7.14,11.49-8.25,13.75c2.51,0.15,8.74,0.62,16.02-0.29
			c1.21-3.92,2.91-8.1,5.29-12.02C66.44,134.77,61.97,134.15,57.96,133.23L57.96,133.23z"/>
		<path id="XMLID_42_" class="st2" d="M142.04,102.63c4.44-5.86,7.14-11.49,8.25-13.74c-2.51-0.15-8.74-0.62-16.03,0.29
			c-1.2,3.92-2.9,8.1-5.29,12.02C133.57,101.1,138.03,101.71,142.04,102.63L142.04,102.63z"/>
		<path id="XMLID_41_" class="st2" d="M78.5,143.55c-4.28,1.67-8.68,2.62-12.76,3.13c-2.16,7.02-2.79,13.24-3.06,15.73
			c2.4-0.7,8.42-2.39,14.96-5.74C77.43,152.56,77.59,148.07,78.5,143.55L78.5,143.55z"/>
		<path id="XMLID_40_" class="st2" d="M121.5,92.3c4.28-1.67,8.68-2.62,12.76-3.12c2.16-7.02,2.79-13.24,3.06-15.74
			c-2.41,0.7-8.42,2.4-14.96,5.74C122.58,83.3,122.41,87.79,121.5,92.3L121.5,92.3z"/>
		<path id="XMLID_39_" class="st2" d="M77.64,156.68c0.37,7.33,1.91,13.38,2.5,15.82c2.02-1.49,7.09-5.13,12.09-10.51
			c-1.59-3.79-2.98-8.08-3.67-12.62C85.11,152.4,81.29,154.8,77.64,156.68L77.64,156.68z"/>
		<path id="XMLID_38_" class="st2" d="M122.37,79.19c-0.37-7.33-1.91-13.39-2.5-15.82c-2.02,1.48-7.1,5.13-12.09,10.51
			c1.59,3.78,2.98,8.07,3.67,12.61C114.89,83.46,118.71,81.06,122.37,79.19L122.37,79.19z"/>
		<path id="XMLID_37_" class="st3" d="M96.02,95.36c0.73-3.93,2.16-7.57,3.98-10.89c-2.2-4.03-4.97-7.58-7.77-10.59
			c-1.59,3.79-2.98,8.07-3.67,12.61C91.4,88.99,94,91.92,96.02,95.36L96.02,95.36z"/>
		<path id="XMLID_36_" class="st3" d="M103.98,140.5c-0.74,3.93-2.16,7.56-3.98,10.89c2.2,4.03,4.97,7.58,7.77,10.6
			c1.59-3.79,2.98-8.08,3.67-12.62C108.61,146.87,106.01,143.94,103.98,140.5L103.98,140.5z"/>
		<path id="XMLID_35_" class="st3" d="M78.5,92.3c3.52,1.37,6.96,3.24,10.04,5.78c-0.65-3.94-0.55-7.85,0.02-11.59
			c-3.44-3.02-7.26-5.42-10.92-7.29C77.43,83.3,77.59,87.8,78.5,92.3L78.5,92.3z"/>
		<path id="XMLID_34_" class="st3" d="M121.5,143.55c-3.52-1.37-6.95-3.24-10.04-5.77c0.65,3.93,0.55,7.84-0.02,11.59
			c3.45,3.03,7.27,5.43,10.92,7.3C122.58,152.56,122.41,148.07,121.5,143.55L121.5,143.55z"/>
		<path id="XMLID_33_" class="st3" d="M82.45,103.2c-1.97-3.48-3.21-7.18-3.95-10.9c-4.28-1.67-8.68-2.62-12.76-3.12
			c1.21,3.92,2.91,8.1,5.29,12.02C74.81,101.29,78.68,101.87,82.45,103.2L82.45,103.2z"/>
		<path id="XMLID_32_" class="st3" d="M117.56,132.67c1.96,3.47,3.2,7.18,3.95,10.89c4.28,1.67,8.68,2.62,12.76,3.13
			c-1.2-3.92-2.9-8.1-5.29-12.02C125.19,134.57,121.32,133.99,117.56,132.67L117.56,132.67z"/>
		<path id="XMLID_31_" class="st3" d="M67.05,112.12c3.58-1.22,7.42-1.99,11.41-2.03c-3.03-2.6-5.48-5.65-7.44-8.89
			c-4.59-0.11-9.05,0.51-13.07,1.43C60.45,105.91,63.47,109.25,67.05,112.12L67.05,112.12z"/>
		<path id="XMLID_30_" class="st3" d="M132.95,123.74c-3.59,1.21-7.42,1.99-11.41,2.03c3.03,2.6,5.47,5.66,7.43,8.89
			c4.6,0.11,9.06-0.52,13.07-1.43C139.56,129.95,136.53,126.61,132.95,123.74L132.95,123.74z"/>
		<path id="XMLID_29_" class="st3" d="M77.08,117.93c-3.73-1.4-7.07-3.45-10.02-5.81c-4.35,1.47-8.34,3.58-11.78,5.81
			c3.45,2.23,7.43,4.35,11.78,5.81C70.01,121.37,73.34,119.33,77.08,117.93L77.08,117.93z"/>
		<path id="XMLID_28_" class="st3" d="M122.92,117.93c3.74,1.4,7.07,3.44,10.03,5.81c4.35-1.47,8.33-3.58,11.78-5.81
			c-3.45-2.23-7.43-4.34-11.78-5.81C130,114.48,126.66,116.53,122.92,117.93L122.92,117.93z"/>
		<path id="XMLID_27_" class="st3" d="M71.03,134.66c1.96-3.23,4.4-6.3,7.44-8.89c-3.99-0.04-7.83-0.81-11.41-2.03
			c-3.59,2.87-6.61,6.21-9.09,9.48C61.97,134.15,66.44,134.77,71.03,134.66L71.03,134.66z"/>
		<path id="XMLID_26_" class="st3" d="M128.97,101.2c-1.96,3.23-4.39,6.29-7.43,8.89c3.99,0.04,7.82,0.82,11.41,2.03
			c3.58-2.87,6.61-6.21,9.09-9.49C138.03,101.71,133.57,101.1,128.97,101.2L128.97,101.2z"/>
		<path id="XMLID_25_" class="st3" d="M82.45,132.67c-3.77,1.33-7.64,1.91-11.42,2c-2.38,3.92-4.08,8.1-5.29,12.02
			c4.08-0.51,8.48-1.46,12.76-3.13C79.24,139.84,80.48,136.14,82.45,132.67L82.45,132.67z"/>
		<path id="XMLID_24_" class="st3" d="M117.56,103.2c3.76-1.32,7.64-1.91,11.41-1.99c2.39-3.92,4.1-8.1,5.29-12.02
			c-4.07,0.5-8.48,1.45-12.76,3.12C120.76,96.01,119.52,99.72,117.56,103.2L117.56,103.2z"/>
		<path id="XMLID_23_" class="st3" d="M96.02,140.5c-2.02,3.44-4.62,6.37-7.46,8.87c0.69,4.54,2.08,8.82,3.67,12.62
			c2.8-3.02,5.57-6.57,7.77-10.6C98.18,148.07,96.75,144.43,96.02,140.5L96.02,140.5z"/>
		<path id="XMLID_22_" class="st3" d="M88.54,137.79c-3.08,2.53-6.52,4.4-10.04,5.77c-0.91,4.51-1.07,9.01-0.86,13.12
			c3.66-1.88,7.48-4.28,10.92-7.3C87.99,145.62,87.89,141.71,88.54,137.79L88.54,137.79z"/>
		<path id="XMLID_21_" class="st3" d="M103.98,95.36c2.03-3.44,4.62-6.37,7.46-8.87c-0.69-4.54-2.08-8.83-3.67-12.61
			c-2.8,3.02-5.58,6.57-7.77,10.59C101.82,87.79,103.24,91.43,103.98,95.36L103.98,95.36z"/>
		<path id="XMLID_20_" class="st3" d="M111.47,98.08c3.09-2.53,6.51-4.4,10.04-5.78c0.91-4.51,1.07-9,0.86-13.11
			c-3.66,1.88-7.48,4.28-10.92,7.3C112.02,90.23,112.12,94.14,111.47,98.08L111.47,98.08z"/>
		<path id="XMLID_19_" class="st4" d="M96.04,107.05c-2.05-3.66-4.62-6.6-7.5-8.97c0.61,3.68,1.88,7.37,4.01,10.97
			c-3.18-2.73-6.59-4.62-10.11-5.85c1.82,3.25,4.28,6.29,7.52,8.94c-3.92-1.48-7.78-2.09-11.51-2.05c2.83,2.43,6.17,4.44,10.13,5.83
			c-4.19-0.05-8.02,0.7-11.51,2.01c3.49,1.31,7.33,2.06,11.51,2.01c-3.96,1.39-7.3,3.4-10.13,5.83c3.72,0.04,7.58-0.56,11.51-2.04
			c-3.24,2.65-5.7,5.69-7.52,8.94c3.51-1.24,6.93-3.13,10.11-5.86c-2.14,3.6-3.4,7.29-4.01,10.98c2.88-2.37,5.45-5.31,7.5-8.96
			c-0.78,4.11-0.7,8.02-0.01,11.68c1.9-3.21,3.3-6.85,3.98-10.98c0.68,4.13,2.08,7.77,3.98,10.98c0.69-3.66,0.76-7.57-0.02-11.68
			c2.05,3.65,4.62,6.59,7.5,8.96c-0.61-3.68-1.88-7.38-4.02-10.98c3.18,2.73,6.6,4.62,10.11,5.86c-1.82-3.25-4.28-6.29-7.52-8.94
			c3.93,1.49,7.78,2.09,11.51,2.04c-2.83-2.42-6.17-4.44-10.13-5.83c4.19,0.06,8.02-0.69,11.51-2c-3.49-1.31-7.32-2.07-11.51-2.01
			c3.95-1.39,7.3-3.4,10.13-5.83c-3.73-0.04-7.58,0.56-11.51,2.05c3.25-2.65,5.71-5.69,7.53-8.94c-3.51,1.24-6.94,3.13-10.11,5.86
			c2.14-3.6,3.41-7.3,4.02-10.98c-2.88,2.37-5.45,5.31-7.5,8.97c0.78-4.12,0.71-8.03,0.02-11.69c-1.9,3.2-3.3,6.85-3.98,10.99
			c-0.68-4.13-2.08-7.78-3.98-10.99C95.34,99.02,95.26,102.92,96.04,107.05L96.04,107.05z"/>
		<path id="XMLID_18_" class="st5" d="M96.04,107.05c-0.78-4.12-0.7-8.03-0.01-11.69c-2.02-3.44-4.62-6.37-7.46-8.87
			c-0.57,3.75-0.67,7.66-0.02,11.59C91.42,100.44,93.99,103.39,96.04,107.05L96.04,107.05z"/>
		<path id="XMLID_17_" class="st5" d="M103.97,128.82c0.78,4.11,0.71,8.02,0.02,11.68c2.03,3.44,4.62,6.37,7.46,8.87
			c0.57-3.75,0.67-7.65,0.02-11.59C108.59,135.41,106.02,132.47,103.97,128.82L103.97,128.82z"/>
		<path id="XMLID_16_" class="st5" d="M88.54,98.08c-3.08-2.53-6.52-4.4-10.04-5.78c0.74,3.71,1.98,7.42,3.95,10.9
			c3.51,1.24,6.93,3.13,10.11,5.85C90.42,105.45,89.15,101.76,88.54,98.08L88.54,98.08z"/>
		<path id="XMLID_15_" class="st5" d="M111.47,137.79c3.09,2.53,6.51,4.4,10.04,5.77c-0.74-3.71-1.99-7.42-3.95-10.89
			c-3.51-1.24-6.94-3.13-10.11-5.86C109.58,130.41,110.86,134.1,111.47,137.79L111.47,137.79z"/>
		<path id="XMLID_14_" class="st5" d="M89.97,112.14c-3.24-2.65-5.7-5.69-7.52-8.94c-3.77-1.32-7.64-1.91-11.42-1.99
			c1.96,3.23,4.4,6.29,7.44,8.89C82.19,110.05,86.05,110.65,89.97,112.14L89.97,112.14z"/>
		<path id="XMLID_13_" class="st5" d="M110.03,123.72c3.24,2.65,5.7,5.69,7.52,8.94c3.76,1.33,7.64,1.91,11.41,2
			c-1.96-3.23-4.39-6.3-7.43-8.89C117.82,125.81,113.96,125.21,110.03,123.72L110.03,123.72z"/>
		<path id="XMLID_12_" class="st5" d="M88.59,115.92c-3.96-1.39-7.3-3.4-10.13-5.83c-3.99,0.04-7.83,0.82-11.41,2.03
			c2.96,2.36,6.29,4.41,10.02,5.81C80.57,116.62,84.4,115.86,88.59,115.92L88.59,115.92z"/>
		<path id="XMLID_11_" class="st5" d="M111.41,119.93c3.95,1.39,7.3,3.41,10.13,5.83c3.99-0.04,7.82-0.82,11.41-2.03
			c-2.96-2.37-6.29-4.41-10.03-5.81C119.43,119.24,115.6,119.99,111.41,119.93L111.41,119.93z"/>
		<path id="XMLID_10_" class="st5" d="M77.08,117.93c-3.73,1.4-7.07,3.44-10.02,5.81c3.58,1.21,7.42,1.99,11.41,2.03
			c2.83-2.42,6.17-4.44,10.13-5.83C84.4,119.99,80.57,119.24,77.08,117.93L77.08,117.93z"/>
		<path id="XMLID_9_" class="st5" d="M122.92,117.93c3.74-1.4,7.07-3.45,10.03-5.81c-3.59-1.22-7.42-1.99-11.41-2.03
			c-2.83,2.43-6.17,4.44-10.13,5.83C115.6,115.86,119.43,116.62,122.92,117.93L122.92,117.93z"/>
		<path id="XMLID_8_" class="st5" d="M89.97,123.72c-3.92,1.49-7.78,2.09-11.51,2.04c-3.03,2.6-5.48,5.66-7.44,8.89
			c3.78-0.09,7.65-0.67,11.42-2C84.26,129.41,86.73,126.38,89.97,123.72L89.97,123.72z"/>
		<path id="XMLID_7_" class="st5" d="M110.03,112.14c3.93-1.48,7.79-2.09,11.51-2.05c3.03-2.6,5.47-5.65,7.43-8.89
			c-3.78,0.08-7.65,0.67-11.41,1.99C115.74,106.44,113.28,109.48,110.03,112.14L110.03,112.14z"/>
		<path id="XMLID_6_" class="st5" d="M96.02,140.5c0.73,3.93,2.16,7.56,3.98,10.89c1.82-3.32,3.24-6.96,3.98-10.89
			c-1.9-3.21-3.3-6.85-3.98-10.98C99.32,133.65,97.92,137.29,96.02,140.5L96.02,140.5z"/>
		<path id="XMLID_5_" class="st5" d="M96.04,128.82c-2.05,3.65-4.62,6.59-7.5,8.96c-0.65,3.93-0.55,7.84,0.02,11.59
			c2.84-2.5,5.44-5.43,7.46-8.87C95.34,136.84,95.26,132.93,96.04,128.82L96.04,128.82z"/>
		<path id="XMLID_4_" class="st5" d="M82.45,132.67c-1.97,3.47-3.21,7.18-3.95,10.89c3.52-1.37,6.96-3.24,10.04-5.77
			c0.61-3.68,1.88-7.38,4.01-10.98C89.38,129.53,85.96,131.43,82.45,132.67L82.45,132.67z"/>
		<path id="XMLID_3_" class="st5" d="M103.98,95.36c-0.74-3.93-2.16-7.57-3.98-10.89c-1.82,3.32-3.25,6.96-3.98,10.89
			c1.9,3.2,3.3,6.85,3.98,10.99C100.69,102.21,102.08,98.56,103.98,95.36L103.98,95.36z"/>
		<path id="XMLID_2_" class="st5" d="M103.97,107.05c2.05-3.66,4.62-6.6,7.5-8.97c0.65-3.94,0.55-7.85-0.02-11.59
			c-2.84,2.5-5.44,5.43-7.46,8.87C104.67,99.02,104.74,102.92,103.97,107.05L103.97,107.05z"/>
		<path id="XMLID_1_" class="st5" d="M117.56,103.2c1.96-3.48,3.2-7.18,3.95-10.9c-3.52,1.37-6.95,3.24-10.04,5.78
			c-0.61,3.68-1.88,7.37-4.02,10.98C110.62,106.32,114.05,104.44,117.56,103.2L117.56,103.2z"/>
	</g>
</g>
</svg>
