<?xml version="1.0" encoding="utf-8"?>
<!-- Generator: Adobe Illustrator 25.3.1, SVG Export Plug-In . SVG Version: 6.00 Build 0)  -->
<svg version="1.1" id="Calque_1" xmlns="http://www.w3.org/2000/svg" xmlns:xlink="http://www.w3.org/1999/xlink" x="0px" y="0px"
	 viewBox="0 0 200 200" style="enable-background:new 0 0 200 200;" xml:space="preserve">
<style type="text/css">
	.st0{fill-rule:evenodd;clip-rule:evenodd;fill:#FFFFFF;}
	.st1{fill:#E82D36;}
</style>
<g>
	<polygon class="st0" points="0,0 200,0 200,200 0,200 0,0 	"/>
	<g>
		<path class="st1" d="M147.8,109.48v-2.55l2.63-0.25c0.85-0.17,1.19-0.94,1.36-1.11l6.37-10.45c0.51-0.77,0-1.53-0.68-1.61
			l-3.31-0.34v-2.63h14.53c0.85,0,1.36,0.59,1.7,1.1l8.5,13c0.68,1.02,1.19,1.87,2.04,1.95l2.72,0.26v2.63h-16.4v-2.55l2.04-0.25
			c1.02-0.09,1.87-0.59,1.02-1.78l-0.76-1.19h-11.64l-0.94,1.44c-0.51,0.85,0,1.44,0.85,1.53l2.12,0.25v2.55H147.8L147.8,109.48
			L147.8,109.48z M159.96,100.3h7.39l-3.74-5.78L159.96,100.3L159.96,100.3z"/>
		<path class="st1" d="M136.93,90.52h-18.7v2.63l2.29,0.17c0.93,0.17,1.28,0.76,1.28,1.61c0,0.85,0,9.52,0,10.2
			c0,0.77-0.34,1.44-1.11,1.53l-2.46,0.34v2.46h18.7c8.67,0,12.41-4.16,12.41-9.77C149.33,94.77,145.59,90.52,136.93,90.52
			L136.93,90.52L136.93,90.52z M134.04,105.82h-4.84V94.18h4.84c4.67,0,6.54,1.02,6.54,5.86
			C140.58,104.8,138.71,105.82,134.04,105.82L134.04,105.82z"/>
		<path class="st1" d="M16.33,109.48h15.21v-2.55l-2.63-0.25c-0.59-0.09-1.19-0.43-1.19-1.7v-3.06h11.73v2.89
			c0,0.85-0.17,1.7-1.19,1.78l-2.63,0.26v2.63h15.21v-2.63l-2.72-0.26c-0.51-0.09-1.1-0.51-1.1-1.53V95.2c0-1.02,0.34-1.7,1.19-1.79
			l2.63-0.25v-2.63H35.62v2.55l2.63,0.34c0.94,0.09,1.19,0.85,1.19,1.79v2.89H27.72v-2.97c0-1.11,0.51-1.61,1.27-1.7l2.55-0.25
			v-2.63H16.42v2.63l2.55,0.25c0.93,0.09,1.27,0.85,1.19,1.79v9.6c0,1.1-0.26,1.78-1.27,1.87l-2.55,0.25V109.48L16.33,109.48z"/>
		<path class="st1" d="M51.52,99.96c0-5.95,4.84-10.11,15.55-10.11c10.62,0,15.47,4.16,15.47,10.11c0,6.03-4.84,10.2-15.47,10.2
			C56.36,110.16,51.52,105.99,51.52,99.96L51.52,99.96L51.52,99.96z M67.07,93.41c-4.33,0-6.8,1.62-6.8,6.54
			c0,5.01,2.46,6.63,6.8,6.63c4.25,0,6.71-1.61,6.71-6.63C73.78,95.03,71.32,93.41,67.07,93.41L67.07,93.41z"/>
		<path class="st1" d="M83.39,109.48h12.07v-2.55l-2.55-0.25c-0.76-0.09-1.19-0.68-1.19-1.61v-9.6l10.03,13.26
			c0.34,0.51,1.02,0.76,1.61,0.76h9.52V95.11c0-0.68,0.17-1.61,1.1-1.7l2.64-0.25v-2.63h-12.07v2.55l2.64,0.34
			c0.93,0.09,1.1,0.93,1.1,1.79v9.35l-9.94-13.17c-0.43-0.51-0.93-0.85-1.61-0.85H83.39v2.63l2.46,0.25
			c0.93,0.17,1.27,0.6,1.27,1.79v9.6c0,1.19-0.34,1.7-1.27,1.87l-2.46,0.25V109.48L83.39,109.48z"/>
	</g>
</g>
</svg>
