<?xml version="1.0" encoding="utf-8"?>
<!-- Generator: Adobe Illustrator 25.3.1, SVG Export Plug-In . SVG Version: 6.00 Build 0)  -->
<svg version="1.1" id="Calque_1" xmlns="http://www.w3.org/2000/svg" xmlns:xlink="http://www.w3.org/1999/xlink" x="0px" y="0px"
	 viewBox="0 0 200 200" style="enable-background:new 0 0 200 200;" xml:space="preserve">
<style type="text/css">
	.st0{fill-rule:evenodd;clip-rule:evenodd;fill:#FFFFFF;}
	.st1{fill-rule:evenodd;clip-rule:evenodd;fill:#382E85;}
</style>
<g>
	<polygon class="st0" points="0,0 200,0 200,200 0,200 0,0 	"/>
	<g>
		<path class="st1" d="M78.62,61.45h42.76v42.78H78.62V61.45L78.62,61.45z M84.59,67.34v30.91h30.81V67.34H84.59L84.59,67.34z"/>
		<polygon class="st1" points="88.21,93.78 103.63,71.04 111.96,70.88 96.04,93.78 88.21,93.78 		"/>
		<path class="st1" d="M15.5,138.31v-17.35h7.41c2.35,0,4.13,0.93,5.47,2.78c1.09,1.6,1.68,3.54,1.68,5.89
			c0,2.28-0.59,4.3-1.85,5.99c-1.34,1.77-3.11,2.7-5.3,2.7H15.5L15.5,138.31z M19.13,124.07v11.11h3.36c1.36,0,2.28-0.58,2.95-1.68
			c0.59-1.01,0.84-2.27,0.84-3.88c0-1.34-0.25-2.6-0.84-3.62c-0.67-1.35-1.68-1.94-2.95-1.94H19.13L19.13,124.07z M40.51,134.25
			h3.36c-0.25,1.43-1,2.44-2.19,3.29c-1.01,0.68-2.27,1.01-3.79,1.01c-1.77,0-3.2-0.67-4.29-1.94c-1.18-1.26-1.77-2.86-1.77-4.88
			c0-1.77,0.59-3.28,1.69-4.47c1.17-1.18,2.6-1.85,4.37-1.85c2.53,0,4.21,0.93,5.14,2.7c0.34,0.58,0.59,1.35,0.77,2.1
			c0.16,0.84,0.25,1.68,0.25,2.61h-8.76c0,0.67,0.25,1.26,0.67,1.85c0.59,0.67,1.19,1.01,1.94,1.01c0.59,0,1.19-0.16,1.61-0.33
			C40.01,135.11,40.34,134.76,40.51,134.25L40.51,134.25z M35.29,130.64h5.22c0-0.59-0.26-1.18-0.76-1.59
			c-0.58-0.51-1.18-0.77-1.85-0.77c-0.67,0-1.26,0.26-1.77,0.77C35.54,129.46,35.29,130.05,35.29,130.64L35.29,130.64z
			 M46.15,125.67h3.37v8.33c0,0.42,0.26,0.84,0.59,1.17c0.42,0.34,0.93,0.51,1.43,0.51c0.67,0,1.26-0.16,1.77-0.58
			c0.51-0.51,0.75-1.02,0.75-1.61v-7.83h3.29v12.63h-3.29v-1.61c-1,1.26-2.27,1.85-3.78,1.85c-1.1,0-2.03-0.33-2.78-0.84
			c-0.85-0.59-1.36-1.44-1.36-2.45V125.67L46.15,125.67z M64,122.05v3.62h1.94v2.36H64v6.48c0,0.25,0.17,0.5,0.33,0.67
			c0.17,0.17,0.42,0.26,0.77,0.26c0.16,0,0.33,0,0.51,0c0.16-0.09,0.25-0.09,0.33-0.09v2.95c-0.42,0.08-0.84,0.16-1.1,0.16
			c-0.33,0.09-0.75,0.09-1.34,0.09c-0.84,0-1.43-0.24-2.02-0.84c-0.5-0.51-0.76-1.1-0.76-1.85v-7.83h-1.68v-2.36h1.68v-1.68
			L64,122.05L64,122.05z M67.37,134.01h3.37c0,0.59,0.17,1.1,0.67,1.43c0.42,0.33,1.01,0.5,1.68,0.5c0.59,0,1.1-0.08,1.43-0.26
			c0.42-0.16,0.68-0.58,0.68-1.09c0-0.68-0.59-1.19-1.94-1.52c-2.19-0.59-3.45-0.93-3.62-1.1c-1.35-0.58-2.03-1.43-2.03-2.6
			c0-1.18,0.51-2.11,1.43-2.87c0.93-0.75,2.19-1.1,3.71-1.1c1.52,0,2.69,0.34,3.7,1.01c1.1,0.77,1.69,1.77,1.69,3.2h-3.12
			c-0.09-0.5-0.34-0.93-0.75-1.17c-0.42-0.26-0.93-0.42-1.52-0.42c-0.51,0-0.93,0.17-1.26,0.33c-0.33,0.26-0.51,0.51-0.51,0.93
			c0,0.51,0.68,0.93,1.94,1.18c1.94,0.33,3.2,0.58,3.62,0.84c1.35,0.59,2.03,1.6,2.03,3.03c0,1.43-0.59,2.53-1.77,3.2
			c-1,0.68-2.19,1.01-3.71,1.01c-1.68,0-3.03-0.42-4.13-1.26C67.88,136.53,67.37,135.44,67.37,134.01L67.37,134.01z M86.4,138.55
			c-1.77,0-3.2-0.67-4.39-1.94c-1.08-1.26-1.68-2.86-1.68-4.88c0-1.69,0.59-3.2,1.77-4.47c1.18-1.18,2.6-1.85,4.3-1.85
			c1.51,0,2.86,0.5,3.95,1.43c1.19,0.85,1.77,2.03,1.77,3.37h-3.36c0-0.6-0.26-1.01-0.68-1.35c-0.51-0.42-1.01-0.59-1.68-0.59
			c-0.84,0-1.43,0.35-1.94,1.02c-0.42,0.59-0.68,1.43-0.68,2.44c0,1.18,0.26,2.1,0.68,2.87c0.51,0.67,1.1,1.09,1.94,1.09
			c0.59,0,1.17-0.25,1.59-0.67c0.51-0.42,0.77-0.83,0.77-1.43h3.36c0,1.43-0.58,2.69-1.77,3.62
			C89.18,138.05,87.92,138.55,86.4,138.55L86.4,138.55z M94.32,120.95h3.37v6.07c0.43-0.59,1.01-1.01,1.69-1.26
			c0.67-0.17,1.43-0.34,2.19-0.34c1.1,0,2.11,0.34,2.95,1.01c0.84,0.59,1.26,1.52,1.26,2.53v9.35h-3.28v-7.92
			c0-0.68-0.25-1.19-0.59-1.52c-0.33-0.33-0.84-0.51-1.43-0.51c-0.67,0-1.35,0.17-1.93,0.59c-0.51,0.42-0.85,0.93-0.85,1.59v7.76
			h-3.37V120.95L94.32,120.95z M116.63,134.25h3.29c-0.26,1.43-1.01,2.44-2.2,3.29c-1.01,0.68-2.27,1.01-3.7,1.01
			c-1.76,0-3.2-0.67-4.37-1.94c-1.19-1.26-1.69-2.86-1.69-4.88c0-1.77,0.51-3.28,1.69-4.47c1.09-1.18,2.61-1.85,4.37-1.85
			c2.45,0,4.12,0.93,5.05,2.7c0.43,0.58,0.68,1.35,0.85,2.1c0.16,0.84,0.16,1.68,0.16,2.61h-8.76c0,0.67,0.26,1.26,0.76,1.85
			c0.5,0.67,1.18,1.01,1.94,1.01c0.59,0,1.1-0.16,1.61-0.33C116.04,135.11,116.38,134.76,116.63,134.25L116.63,134.25z
			 M111.32,130.64h5.31c0-0.59-0.35-1.18-0.85-1.59c-0.5-0.51-1.09-0.77-1.77-0.77c-0.67,0-1.35,0.26-1.85,0.77
			C111.66,129.46,111.32,130.05,111.32,130.64L111.32,130.64z M128.42,138.31v-17.35h8.84c1.27,0,2.36,0.42,3.2,1.35
			c0.93,0.93,1.43,2.02,1.43,3.37c0,0.75-0.16,1.43-0.51,2.1c-0.42,0.68-1,1.19-1.68,1.52c0.84,0.33,1.52,0.93,2.1,1.6
			c0.5,0.76,0.76,1.51,0.76,2.36c0,1.43-0.51,2.61-1.43,3.53c-0.93,1.01-1.94,1.52-3.29,1.52H128.42L128.42,138.31z M131.96,124.07
			v3.7h4.29c0.59,0,1.1-0.16,1.52-0.5c0.42-0.34,0.59-0.76,0.59-1.26c0-0.59-0.17-1.01-0.59-1.43c-0.42-0.33-0.84-0.51-1.43-0.51
			H131.96L131.96,124.07z M131.96,130.9v4.29h4.54c0.67,0,1.18-0.16,1.68-0.67c0.42-0.42,0.68-0.93,0.68-1.52
			c0-0.59-0.26-1.1-0.68-1.52c-0.51-0.42-1.02-0.58-1.68-0.58H131.96L131.96,130.9z M148.46,129.46h-3.37
			c0-1.35,0.59-2.36,1.69-3.12c1.01-0.59,2.19-0.93,3.62-0.93c1.94,0,3.37,0.34,4.3,0.93c0.76,0.59,1.18,1.27,1.18,2.19v7.74
			c0,0.76,0.26,1.44,0.76,2.03h-3.45c-0.17-0.26-0.33-0.42-0.42-0.68c-0.09-0.16-0.17-0.42-0.26-0.75c-0.42,0.59-1,1.01-1.68,1.26
			c-0.59,0.26-1.35,0.42-2.27,0.42c-1.18,0-2.11-0.42-2.78-1.09c-0.76-0.76-1.18-1.69-1.18-2.7c0-1.01,0.34-1.93,0.93-2.61
			c0.59-0.68,1.43-1.1,2.53-1.26c1.94-0.35,2.86-0.51,2.95-0.51c1.01-0.26,1.5-0.59,1.5-0.93c0-0.51-0.16-0.93-0.58-1.1
			c-0.35-0.25-0.85-0.33-1.52-0.33c-0.59,0-1.01,0.17-1.43,0.33C148.63,128.62,148.46,128.96,148.46,129.46L148.46,129.46z
			 M152.5,134.01v-1.94c-1.09,0.17-1.93,0.42-2.6,0.59c-1.26,0.33-1.85,0.93-1.85,1.68c0,0.59,0.09,0.93,0.42,1.18
			c0.33,0.25,0.76,0.33,1.35,0.33c0.59,0,1.18-0.17,1.69-0.51C152,135.11,152.33,134.6,152.5,134.01L152.5,134.01z M158.82,125.67
			h3.37v1.43c0.42-0.5,0.93-0.93,1.6-1.26c0.76-0.26,1.43-0.43,2.02-0.43c1.18,0,2.1,0.34,2.94,0.85c0.85,0.67,1.35,1.5,1.35,2.52
			v9.52h-3.37v-8.34c0-0.51-0.17-0.93-0.51-1.18c-0.42-0.33-0.84-0.42-1.34-0.42c-0.68,0-1.19,0.09-1.61,0.33
			c-0.42,0.35-0.76,0.68-1.09,1.27v8.34h-3.37V125.67L158.82,125.67z M172.8,120.95h3.36v9.26l3.88-4.54h4.04l-4.12,4.8l4.55,7.83
			h-3.96l-2.87-5.4l-1.52,1.6v3.79h-3.36V120.95L172.8,120.95z"/>
	</g>
</g>
</svg>
