<?xml version="1.0" encoding="utf-8"?>
<!-- Generator: Adobe Illustrator 25.3.1, SVG Export Plug-In . SVG Version: 6.00 Build 0)  -->
<svg version="1.1" id="Calque_1" xmlns="http://www.w3.org/2000/svg" xmlns:xlink="http://www.w3.org/1999/xlink" x="0px" y="0px"
	 viewBox="0 0 200 200" style="enable-background:new 0 0 200 200;" xml:space="preserve">
<style type="text/css">
	.st0{fill-rule:evenodd;clip-rule:evenodd;fill:#FFFFFF;}
	.st1{fill-rule:evenodd;clip-rule:evenodd;}
</style>
<g>
	<polygon class="st0" points="0,0 200,0 200,200 0,200 0,0 	"/>
	<g>
		<path class="st1" d="M52.24,103.22c0.01-2.33,0.22-9.2,0.38-14.11c6.98,0.19,13.88,1.65,14.42,3.39c0,0,0.33,0.8-1.28,1.54
			c-1.48,0.6-2.63,1.08-1.43,1.68c0,0,1.76,0.88,2.9,0.81c1.08-0.07,3.96-1.28,4.3-4.36c0.41-3.16-3.14-6.05-8.59-7.2
			c-4.16-0.88-6.38-1.19-10.15-1.16c0.08-3.43-0.25-7.73-0.98-8.74c-0.87-1.34-1.88-3.16-2.76-1.22c-0.74,1.68-1.42,5.38-1.76,10.29
			c-5.79,0.76-12.23,3-14.25,5.36c-2.16,2.6-0.15,4.83,0.05,5.03c0.13,0.27,4.16,6.46,13.15,10.91c0.13,1.61,0.4,3.43,1.01,4.43
			c1.34,2.15,3.96,0.75,4.3,0.41c0.27-0.27,0.48-0.94,0.61-2.55c4.02,1.19,11.41,2.5,19.35,0.36c12.04-3.27,13.93-10.59,14.42-14.95
			c0.47-4.43-2.47-16-21.47-26.31c0,0-20.27-11.19-37.34-5.84c0,0-1.09-0.07-2.1,1.34c-1.01,1.34-1.88,2.28-1.41,3.36
			c0.47,1.08,3.09,1.62,5.44,0.95c0,0,1.08-0.67-0.26-1.14c-1.28-0.47-2.01-0.61-2.01-0.61s-0.68-0.14,0.06-0.47
			c0.67-0.33,8.48-2.6,22.05,1.38c13.57,3.93,31.76,15.51,30.86,27c-0.89,11.49-18.9,11.46-18.9,11.46S57.14,104.31,52.24,103.22
			L52.24,103.22z M46.9,89.1c-0.3,3.97-0.61,8.42-0.64,12.36c-4.11-1.75-8.52-4.18-12.01-8.16c0,0-1.28-1.41,0.67-2.28
			C36.65,90.29,40.43,89.41,46.9,89.1L46.9,89.1z"/>
		<path class="st1" d="M89.57,85.07c-1.08,0.94-1.36,6.99-1.63,11.9c-0.29,4.83-0.15,7.92,0.45,8.72c0.61,0.88,2.82,1.29,3.89,0.55
			c1.01-0.74,0.76-7.99,0.76-7.99s-0.12-8.06-0.19-9.61c-0.06-1.55-0.59-2.29-1.07-2.96C91.38,85.01,90.71,84.13,89.57,85.07
			L89.57,85.07z"/>
		<path class="st1" d="M90.18,77.54c2.17-3.02,6.59-6.58,9.41-6.98c1.61-0.19,2.1,0.46,2.19,1.15c0.07,0.71-0.24,1.47-0.24,1.47
			C98.91,78.16,93.34,78.24,90.18,77.54L90.18,77.54z M88.36,80.97c1.76,0.77,3.82,1.22,6.91,0.27c4.84-1.47,9.63-6.02,9.77-9.79
			c0.2-3.77-4.03-3.91-4.03-3.91h-0.13c-0.76-2.32-5.04-2.16-5.04-2.16c-8.94,0.46-12.11,6.56-12.52,8.17
			c-0.41,1.41-0.23,3.46,1.41,5.11c-0.55,1.34-0.14,1.95,0,2.29c0.14,0.47,0.87,1.88,1.74,1.82C87.08,82.71,87.53,82.29,88.36,80.97
			L88.36,80.97z M92.47,69.75c-2.78,1.85-4.8,4.21-5.85,5.76c-0.42-0.58-0.33-1.48,0.61-2.89C88.51,70.75,90.33,69.88,92.47,69.75
			L92.47,69.75z"/>
		<path class="st1" d="M107.3,84.7c-3.16,0.19-10.48,1.25-11.63,4.55c-1.08,3.15-0.21,4.3-0.21,4.3c0.87,1.68,7.12,1.76,8.8,1.9
			c1.76,0.14,6.26,0.81,7.79,1.77c1.55,1.01,0.47,2.15,0.47,2.15c-2.69,2.82-11.43,3.07-13.65,1.65c-0.87-0.53-1.07-1.2-0.13-2.14
			c0.95-1.01,3.83,0.61,3.5,0.48c-0.34-0.2,1.41,1.01,3.82,1.15c2.49,0.13,4.24-0.74,4.37-1.61c0.14-0.81-2.08-1.69-2.08-1.69
			c-7.32-2.29-10.28-0.62-10.28-0.62c-4.1,2.41-1.22,5.84-1.22,5.84c6.31,7.14,16.53,2.99,17.73,1.98c1.15-0.94,1.69-2.02,1.83-4.9
			c0.14-2.82-1.07-4.1-1.07-4.1c-2.02-2.69-7.86-2.83-9.61-2.98c-1.61-0.07-4.97-0.67-5.77-0.88c-0.81-0.2-0.27-0.8-0.27-0.8
			c0.75-1.01,15.67-1.58,15.67-1.58c1.54-0.13,1.75-1.08,2.09-1.68c0.26-0.6,0.06-1.01,0.06-1.01
			C115.98,84.64,107.3,84.7,107.3,84.7L107.3,84.7z"/>
		<path class="st1" d="M120.74,87.41c-1.35,1.41-2.5,6.04-3.05,10.41c-0.47,4.37-0.28,6.86,0.32,7.93c0.68,1.08,2.02,1.48,3.16,0.61
			c1.21-0.88,1.15-6.65,1.43-9.61c0.27-2.96,0.54-2.42,0.54-2.42c0.26-0.07,1.54,2.69,1.54,2.69s3.33,7.4,5.56,8.55
			c2.21,1.14,4.1-0.53,4.84-2.15c0.75-1.61,2.11-6.99,0.49-13.02c-1.6-6.06-5.23-8.01-5.23-8.01s-0.93-0.47-1.2,0.47
			c-0.27,0.94,0.06,1.95,0.06,1.95c2.14,8.14,2.53,12.91,2.53,12.91s0.07,1.4-0.2,1.48c-0.2,0.13-0.4-0.07-0.4-0.07
			c-0.27,0-2.75-4.44-2.75-4.44l-0.47-0.87c-2.54-4.77-4.42-6.32-4.42-6.32C123.09,87.08,122.09,86,120.74,87.41L120.74,87.41z"/>
		<path class="st1" d="M141.99,91.1c-0.39,0.67-1.02,1.95-1.65,3.26h-0.06c-1.35,0.09-1.82,0.48-1.82,0.48
			c-0.57,0.57-0.24,2,0.02,2.78c0.06,0.17,0.13,0.31,0.22,0.42l-0.05,0.1c-0.32,0.82-2.5,5.17-0.89,8c1.75,2.96,3.9,2.89,3.9,2.89
			c4.1,0.41,10.96-3.68,11.36-5.09c0.33-1.14-0.66-2.42-1.6-2.69c-0.87-0.21-7.67,0.85-8.48,1.05c-0.87,0.2-0.47-0.6-0.47-0.6
			s0.67-2.16,1.1-3.36c2.3-0.07,4.97-0.15,7.45-0.32c0.87-0.06,0.93-0.74,0.93-0.74s0.13-1.01,0.13-1.95
			c-0.06-1.01-0.86-0.94-0.86-0.94c-1.38-0.19-3.69-0.23-5.97-0.2c0.46-1.1,0.85-2.07,1-2.63c0,0,6.85-0.12,9.47-0.67
			c1.35-0.26,0.61-1.6,0.61-1.6c-1.53-3.3-3.41-3.16-3.41-3.16c-5.38-0.35-13.24,0.85-14.11,1.25c-0.81,0.33-0.75,0.94,0.26,2.29
			c0.52,0.68,1.24,1,1.81,1.18C141.15,90.92,141.53,91.01,141.99,91.1L141.99,91.1z"/>
		<path class="st1" d="M155.8,97.34c-0.68,3.23-0.05,5.5,0.86,7.13c-3.52,7.07-5.47,13.23-5.07,16.93c0.27,2.82,2.27,4.91,3.48,5.38
			c1.21,0.54,1.49-0.93,1.49-0.93c1.17-7.16,3.09-13.07,5.13-17.66l0.21,0.05c6.25,1.58,11.15-4.35,12.9-7.23
			c2.23-3.7,2.44-10.14-0.31-12.23c-4.36-3.24-11.78,6.4-15.14,11.14c-0.41-2.49,1.36-5.58,1.36-5.58s2.83-4.57,3.23-5.51
			c0.4-0.94,0.68-2.89,0.2-3.09c-0.4-0.2-1.14,0.4-1.14,0.4C156.82,91.36,155.8,97.34,155.8,97.34L155.8,97.34z M164.4,102.94
			c2.64-4.41,5.53-7.78,7.2-9.53c1.96-2.07,2.16-0.13,2.16-0.13c0.32,3.76-2.51,6.52-3.72,7.52
			C169.3,101.47,166.88,102.77,164.4,102.94L164.4,102.94z"/>
		<path class="st1" d="M138.05,116.74l-8.15-0.01c-0.7,0-1.24,0.54-1.24,1.24l-0.02,11.54c0,0.7,0.54,1.24,1.24,1.24l8.26,0.01
			c0.6,0,1.1-0.48,1.1-1.1c0-0.6-0.5-1.1-1.1-1.1l-7.03-0.01l0.01-2.89c0-0.48,0.4-0.87,0.88-0.87l5.15,0.01
			c0.6,0,1.1-0.48,1.1-1.08c0.01-0.61-0.5-1.12-1.1-1.12l-6.03-0.01l0.01-2.78c0-0.48,0.39-0.87,0.87-0.87l6.06,0.01
			c0.6,0,1.1-0.48,1.1-1.1C139.15,117.25,138.64,116.74,138.05,116.74L138.05,116.74z"/>
		<path class="st1" d="M118.7,125.84L118.7,125.84L118.7,125.84z M124.6,121.15c0.01-1.22-0.42-2.26-1.15-3.03
			c-0.9-0.88-2.28-1.41-4.04-1.41l-5.01-0.01c-0.7,0-1.24,0.54-1.24,1.24l-0.02,11.65c-0.01,0.68,0.53,1.22,1.23,1.22
			c0.69,0,1.22-0.54,1.22-1.22l0-2.89c0-0.48,0.39-0.87,0.87-0.87l2.23,0.01h0.01l3.4,4.35c0.28,0.38,0.64,0.64,1.2,0.65
			c0.59,0,1.18-0.47,1.18-1.14c0-0.38-0.16-0.64-0.4-0.94l-2.67-3.39c1.88-0.58,3.18-1.94,3.18-4.18V121.15L124.6,121.15z
			 M122.1,121.33c0,1.42-1.13,2.34-2.89,2.34l-3.62-0.01l0.01-3.84c0-0.48,0.39-0.87,0.87-0.87l2.72,0c1.82,0,2.91,0.83,2.91,2.33
			V121.33L122.1,121.33z"/>
		<path class="st1" d="M109.79,123.67c0-3.95-3-7.22-7.3-7.23c-4.31-0.01-7.36,3.29-7.36,7.24v0.04c-0.01,3.94,2.99,7.21,7.3,7.22
			c4.31,0,7.35-3.29,7.36-7.23V123.67L109.79,123.67z M102.44,118.7c2.78,0.01,4.76,2.27,4.76,5l0,0.04
			c-0.01,2.73-1.96,4.92-4.74,4.92c-2.78,0-4.77-2.25-4.76-4.98v-0.04C97.72,120.93,99.66,118.7,102.44,118.7L102.44,118.7z"/>
		<path class="st1" d="M92.48,118.95c0.63,0,1.13-0.52,1.13-1.14c0.01-0.61-0.5-1.14-1.12-1.14l-9.31-0.01
			c-0.64,0-1.14,0.52-1.14,1.14c0,0.62,0.49,1.14,1.14,1.14h2.54c0.47,0,0.86,0.4,0.86,0.87l-0.02,9.75c0,0.68,0.57,1.22,1.24,1.22
			c0.68,0,1.24-0.53,1.25-1.22l0.01-9.74c0-0.48,0.39-0.87,0.87-0.87L92.48,118.95L92.48,118.95z"/>
		<path class="st1" d="M72.06,120.28c0-0.92,0.85-1.66,2.29-1.66c1.1,0,2.14,0.37,3.22,1.07c0.2,0.12,0.4,0.18,0.65,0.18
			c0.64,0,1.16-0.5,1.16-1.14c0-0.48-0.25-0.82-0.54-0.98c-1.27-0.85-2.68-1.31-4.45-1.31c-2.78-0.01-4.79,1.66-4.79,4.06v0.04
			c-0.02,2.59,1.67,3.47,4.66,4.2c2.6,0.6,3.16,1.14,3.16,2.14v0.04c0,1.05-0.97,1.76-2.48,1.76c-1.52,0-2.77-0.52-3.93-1.45
			c-0.16-0.12-0.38-0.21-0.72-0.22c-0.63,0-1.16,0.5-1.16,1.14c0,0.4,0.2,0.74,0.48,0.94c1.56,1.16,3.36,1.77,5.26,1.77
			c2.94,0.01,5.01-1.55,5.02-4.18v-0.04c0-2.32-1.51-3.38-4.49-4.11c-2.7-0.64-3.34-1.13-3.34-2.21V120.28L72.06,120.28z"/>
		<path class="st1" d="M65.38,117.94c0.55,0,1.01-0.45,1.02-1.01c0-0.56-0.46-1.01-1.02-1.01c-0.56,0-1.01,0.45-1.01,1
			C64.37,117.48,64.82,117.94,65.38,117.94L65.38,117.94z"/>
		<path class="st1" d="M63.22,113.57c0.32,0.01,0.58-0.26,0.58-0.57c0-0.32-0.26-0.57-0.57-0.57c-0.32,0-0.57,0.26-0.57,0.57
			C62.65,113.31,62.9,113.57,63.22,113.57L63.22,113.57z"/>
		<path class="st1" d="M61.35,117.65l-1.64,1.04c-0.05-0.78-0.36-4.28-0.36-4.28c-0.02-0.16-0.14-0.27-0.3-0.27
			c-0.09-0.01-0.16,0.03-0.19,0.07c-0.07,0.07-0.1,0.12-0.1,0.19c0,0-0.43,3.5-0.5,4.28l-1.53-0.99c-0.1-0.08-0.25-0.07-0.36,0.02
			l-0.01,0.01c-0.1,0.09-0.11,0.25-0.04,0.36l0.96,1.53l-4.3,0.37c-0.06,0-0.13,0.04-0.17,0.09c-0.06,0.05-0.09,0.12-0.11,0.2
			c0.01,0.16,0.12,0.29,0.28,0.3l4.27,0.51l-1,1.45c-0.07,0.11-0.07,0.26,0.02,0.36c0.1,0.1,0.27,0.13,0.38,0.06
			c0,0,1.05-0.61,1.54-0.91c0.08,0.77,0.39,4.3,0.39,4.3c0.01,0.15,0.14,0.27,0.28,0.27c0.09,0,0.15-0.03,0.2-0.09
			c0.05-0.05,0.09-0.1,0.1-0.18l0.51-4.28l1.57,0.99c0.1,0.09,0.26,0.07,0.35-0.04h0c0.1-0.1,0.13-0.25,0.05-0.37
			c0,0-0.67-1.01-1-1.53l4.27-0.37c0.08,0,0.14-0.03,0.18-0.08c0.06-0.05,0.1-0.13,0.11-0.22c0-0.14-0.13-0.27-0.27-0.28l-4.27-0.52
			c0.35-0.51,1.1-1.61,1.1-1.61c0.08-0.11,0.06-0.26-0.04-0.36C61.61,117.6,61.46,117.58,61.35,117.65L61.35,117.65z"/>
		<path class="st1" d="M63.88,122.06l-0.29,1.23l-1.19,0.28c-0.04,0.01-0.07,0.03-0.07,0.06c0,0.03,0.03,0.05,0.07,0.06l1.18,0.28
			l0.29,1.22c0.01,0.03,0.03,0.05,0.06,0.05c0.02,0,0.05-0.02,0.06-0.05l0.29-1.21l1.18-0.28h0c0.03-0.01,0.06-0.03,0.06-0.05
			c0-0.03-0.02-0.05-0.06-0.06l-1.18-0.29L64,122.06c-0.01-0.03-0.04-0.05-0.06-0.05C63.92,122.01,63.89,122.03,63.88,122.06
			L63.88,122.06z"/>
		<path class="st1" d="M54.34,122.68l-2.61-0.65l-0.64-2.68c-0.01-0.06-0.06-0.12-0.12-0.12c-0.06,0-0.1,0.04-0.11,0.11l-0.66,2.69
			l-2.61,0.63c-0.08,0.01-0.14,0.06-0.14,0.13c0,0.06,0.06,0.11,0.14,0.12l2.6,0.62l0.64,2.68c0.02,0.06,0.07,0.11,0.13,0.11
			c0.05,0,0.1-0.05,0.12-0.12l0.01-0.01l0.64-2.66l2.59-0.62h0.02c0.07-0.02,0.12-0.07,0.12-0.13
			C54.46,122.74,54.41,122.69,54.34,122.68L54.34,122.68z"/>
		<path class="st1" d="M48.4,130.45L48.4,130.45L48.4,130.45z M49.89,128.84l-1.19-0.3l-0.29-1.22c0-0.03-0.02-0.05-0.06-0.05
			c-0.02,0-0.04,0.03-0.05,0.05L48,128.54l-1.19,0.29c-0.03,0-0.06,0.03-0.06,0.06c0,0.03,0.03,0.06,0.06,0.06l1.19,0.29l0.29,1.22
			c0,0.03,0.03,0.05,0.05,0.05c0.03,0,0.05-0.02,0.06-0.06l0.29-1.21l1.19-0.28h0c0.03-0.01,0.05-0.03,0.05-0.05
			C49.94,128.87,49.92,128.84,49.89,128.84L49.89,128.84z"/>
		<path class="st1" d="M46.97,131.35c0-0.31-0.26-0.57-0.58-0.57c-0.31,0-0.57,0.26-0.57,0.57c0,0.32,0.27,0.58,0.57,0.58
			C46.71,131.93,46.97,131.67,46.97,131.35L46.97,131.35z"/>
		<path class="st1" d="M52.07,132.04c-0.31,0-0.57,0.25-0.57,0.57c0,0.32,0.26,0.57,0.57,0.57c0.32,0,0.57-0.25,0.57-0.57
			C52.66,132.3,52.39,132.04,52.07,132.04L52.07,132.04z"/>
		<path class="st1" d="M52.08,129.09c0.33,0,0.58-0.26,0.58-0.57c0-0.32-0.25-0.58-0.57-0.58c-0.32,0-0.58,0.26-0.58,0.58
			C51.51,128.83,51.77,129.09,52.08,129.09L52.08,129.09z"/>
		<path class="st1" d="M54.07,124.9c0,0.56,0.45,1.01,1,1.01c0.56,0,1.02-0.45,1.02-1.01c0-0.56-0.46-1.01-1.01-1.01
			C54.52,123.89,54.07,124.34,54.07,124.9L54.07,124.9z"/>
		<path class="st1" d="M53.87,117.75c0.31,0,0.57-0.26,0.57-0.57c0.01-0.32-0.26-0.57-0.57-0.57c-0.31,0-0.57,0.25-0.58,0.57
			C53.29,117.49,53.56,117.75,53.87,117.75L53.87,117.75z"/>
		<path class="st1" d="M48.61,119.87c0-0.31-0.26-0.57-0.58-0.57c-0.31,0-0.56,0.25-0.56,0.57c0,0.32,0.25,0.57,0.56,0.57
			C48.35,120.45,48.61,120.19,48.61,119.87L48.61,119.87z"/>
		<path class="st1" d="M47.76,124.96c-0.32,0-0.57,0.25-0.57,0.57c0,0.31,0.25,0.57,0.57,0.57c0.32,0,0.57-0.26,0.57-0.57
			C48.33,125.21,48.08,124.96,47.76,124.96L47.76,124.96z"/>
		<path class="st1" d="M52.05,136.95l-1.18,0.28c-0.03,0-0.07,0.03-0.07,0.06c0,0.03,0.04,0.05,0.07,0.06l1.18,0.28l0.3,1.22
			c0.01,0.03,0.03,0.06,0.05,0.06c0.03,0,0.06-0.02,0.06-0.06v-0.01l0.29-1.2l1.2-0.28c0.03-0.01,0.05-0.03,0.05-0.05
			c0-0.03-0.02-0.05-0.05-0.07l-1.2-0.28l-0.29-1.22c0-0.03-0.03-0.06-0.06-0.06c-0.03,0-0.04,0.02-0.06,0.06L52.05,136.95
			L52.05,136.95z"/>
		<path class="st1" d="M56.39,139.32c-0.31,0-0.56,0.26-0.56,0.57c0,0.32,0.26,0.58,0.56,0.58c0.32,0,0.58-0.26,0.58-0.58
			C56.97,139.58,56.71,139.33,56.39,139.32L56.39,139.32z"/>
	</g>
</g>
</svg>
