<?xml version="1.0" encoding="utf-8"?>
<!-- Generator: Adobe Illustrator 25.3.1, SVG Export Plug-In . SVG Version: 6.00 Build 0)  -->
<svg version="1.1" id="Calque_1" xmlns="http://www.w3.org/2000/svg" xmlns:xlink="http://www.w3.org/1999/xlink" x="0px" y="0px"
	 viewBox="0 0 200 200" style="enable-background:new 0 0 200 200;" xml:space="preserve">
<style type="text/css">
	.st0{fill:url(#SVGID_1_);}
	.st1{fill:url(#SVGID_2_);}
	.st2{fill:#FFFFFF;}
	.st3{fill:#FFCC00;}
</style>
<g>
	
		<radialGradient id="SVGID_1_" cx="-1043.955" cy="1767.5544" r="26.1823" gradientTransform="matrix(7.5202 0 0 7.5202 7871.2891 -13271.6631)" gradientUnits="userSpaceOnUse">
		<stop  offset="0" style="stop-color:#006CB5"/>
		<stop  offset="1" style="stop-color:#1F3460"/>
	</radialGradient>
	<path class="st0" d="M0,0h200v200H0V0z"/>
	
		<radialGradient id="SVGID_2_" cx="-1032.6743" cy="1929.6478" r="12.5618" fx="-1034.2969" fy="1929.6545" gradientTransform="matrix(7.5202 0 0 4.225 7871.2891 -8103.8145)" gradientUnits="userSpaceOnUse">
		<stop  offset="0.064" style="stop-color:#000000;stop-opacity:0.5"/>
		<stop  offset="1" style="stop-color:#000000;stop-opacity:0"/>
	</radialGradient>
	<path class="st1" d="M0,0h200v109.97H0V0z"/>
	<g>
		<path class="st2" d="M33.79,128.1c0-2.06-1.34-3.46-3.59-3.46h-8.17v6.93h8.27C32.45,131.57,33.79,130.16,33.79,128.1L33.79,128.1
			z M34.93,138.76c0-2.06-1.41-3.59-3.73-3.59h-9.18v7.19h9.25C33.5,142.35,34.93,140.95,34.93,138.76L34.93,138.76z M17.97,120.98
			h12.78c4.44,0,7.12,2.91,7.12,6.57c0,2.81-1.63,4.8-3.66,5.49c2.68,0.56,4.8,2.97,4.8,6.14c0,4.02-2.81,6.76-7.19,6.76H17.97
			V120.98z M55.65,125.29l-4.87,11.86h9.8L55.65,125.29z M64.05,145.95l-2.12-5.16H49.38l-2.12,5.16h-4.44l10.65-24.97h4.38
			l10.65,24.97H64.05z M91.86,145.95l-14.31-18.56v18.56h-4.02v-24.97h3.89l14.18,18.27v-18.27h4.02v24.97H91.86z M134.38,136.01
			v-15.03h4.02v14.97c0,4.44,2.68,6.76,6.93,6.76c4.31,0,6.93-2.32,6.93-6.76v-14.97h4.02v15.03c0,6.83-4.38,10.36-10.95,10.36
			C138.82,146.37,134.38,142.78,134.38,136.01z M163.59,145.95v-24.97h18.27v3.66h-14.25v6.83h11.27v3.66h-11.27v7.19h14.38v3.66
			h-18.4L163.59,145.95z M28.92,156.96H17.97v25.07h4.02v-9.18h6.27c0.2,0,1.14,0,1.34-0.07c4.44-0.29,7.48-3.66,7.48-7.91
			C37.09,160.49,33.86,156.96,28.92,156.96z M28.56,169.18h-6.54v-8.53h6.57c2.55,0,4.51,1.76,4.51,4.31
			C33.07,167.42,31.11,169.18,28.56,169.18L28.56,169.18z M115,160.62v-3.66H95.65v3.66h7.71v21.41h3.92v-21.41H115z M148.37,156.96
			h-3.95v25.07h15.46v-3.69h-11.5V156.96z M82.48,167.25c-4.38-0.78-6.57-1.41-6.5-3.46c0.07-1.9,1.63-3.3,4.38-3.59
			c0.62-0.07,1.27-0.07,1.96,0c2.25,0.13,4.58,0.98,6.08,2.25c0.13,0.07,0.36,0.2,0.42,0.36l2.19-3.17c-2.06-1.83-5.65-3.1-9.25-3.1
			c-5.85,0-9.8,3.17-9.87,7.55c-0.13,5.16,4.58,6.21,8.95,6.99c4.93,0.92,7.19,1.41,7.12,3.59c-0.07,2.06-1.83,3.73-5.42,3.95h-1.41
			c-3.24-0.2-5.78-1.27-7.55-2.97c-0.13-0.13-0.29-0.2-0.42-0.36l-2.25,3.24c2.61,2.48,6.21,3.82,10.65,3.82
			c6.41,0,10.29-3.17,10.42-7.84C92.19,168.95,87.19,168.1,82.48,167.25L82.48,167.25z M54.31,156.47
			c-7.61,0-12.97,5.59-12.97,12.91c0,7.25,5.36,12.91,12.97,12.91s12.97-5.59,12.97-12.91C67.39,162.06,61.93,156.47,54.31,156.47z
			 M54.31,178.56c-5.42,0-8.95-4.02-8.95-9.25s3.46-9.25,8.95-9.25c5.42,0,8.95,4.02,8.95,9.25S59.84,178.56,54.31,178.56z
			 M124.51,156.96l-10.65,25.07h4.44l2.12-5.16h12.55l2.12,5.16h4.44l-10.65-24.97h-4.38V156.96z M121.83,173.2l4.87-11.86
			l4.87,11.86H121.83z M168.27,178.33v-7.19h10.65v-3.66h-10.65v-6.86h13.59v-3.66h-17.61v25.07h17.78v-3.69H168.27z M128.17,133.46
			c0-7.25-5.36-12.91-12.97-12.91c-7.61,0-12.97,5.59-12.97,12.91c0,7.35,5.36,12.91,12.97,12.91c1.14,0,2.19-0.13,3.17-0.36
			l1.83,4.44h4.44l-2.61-5.85C125.85,142.35,128.17,138.27,128.17,133.46z M115.2,142.71c-5.42,0-8.95-4.02-8.95-9.25
			s3.46-9.25,8.95-9.25c5.42,0,8.95,4.02,8.95,9.25c0,3.17-1.34,5.92-3.59,7.61l-0.98-2.32h-4.25l1.63,3.82
			C116.34,142.65,115.75,142.71,115.2,142.71L115.2,142.71z"/>
	</g>
	<path class="st3" d="M17.97,109.97V85h4.02v21.37h13.14v3.66H17.97V109.97z M52.71,89.31l-4.87,11.86h9.8L52.71,89.31z
		 M61.18,109.97l-2.12-5.16H46.41l-2.12,5.16h-4.41L50.52,85h4.38l10.72,24.97H61.18z"/>
	<path class="st2" d="M57.71,18.82c7.61,2.68,20.1,7.55,26.67,13.46l47.97-0.49c1.34-1.7,1.83-2.39,3.3-4.31
		c3.46-4.64,3.66-9.38-3.73-9.44c-3.95-0.07-66.37,0.2-73.66,0.29C57.16,18.27,56.31,18.27,57.71,18.82L57.71,18.82z M169.08,33.92
		l-83.4,1.54c0.36,3.4-3.3,8.33-10.85,12.97c-3.89,2.39-12.71,7.12-44.02,18.99c-0.42,0.13-0.2,0.62,0.07,0.56
		C85,54.25,120.92,44.02,169.08,34.84C170.59,34.58,171.5,33.92,169.08,33.92z M118.79,48.76L44.02,67.65
		c-0.13,0.07-0.29,0.29,0.13,0.29l57.91-1.83c3.53-0.13,6.08-2.97,7.42-4.74l9.44-12.29C119.15,48.89,119.15,48.59,118.79,48.76
		L118.79,48.76z"/>
</g>
</svg>
