<?xml version="1.0" encoding="utf-8"?>
<!-- Generator: Adobe Illustrator 25.3.1, SVG Export Plug-In . SVG Version: 6.00 Build 0)  -->
<svg version="1.1" id="Calque_1" xmlns="http://www.w3.org/2000/svg" xmlns:xlink="http://www.w3.org/1999/xlink" x="0px" y="0px"
	 viewBox="0 0 200 200" style="enable-background:new 0 0 200 200;" xml:space="preserve">
<style type="text/css">
	.st0{fill-rule:evenodd;clip-rule:evenodd;fill:#FFFFFF;}
	.st1{fill:url(#SVGID_1_);}
</style>
<g>
	<polygon class="st0" points="0,0 200,0 200,200 0,200 0,0 	"/>
	<g>
		
			<linearGradient id="SVGID_1_" gradientUnits="userSpaceOnUse" x1="-457.7393" y1="631.7271" x2="-457.7393" y2="701.7023" gradientTransform="matrix(1 0 0 1 557.7393 -566.1072)">
			<stop  offset="0" style="stop-color:#353535"/>
			<stop  offset="1" style="stop-color:#0A0A0A"/>
		</linearGradient>
		<path class="st1" d="M145.95,71.46l-0.11-3.97h0.01l0.82,3.97h0.88l0.84-3.97h0.01l-0.12,3.97h1.13V66.4h-1.66l-0.63,2.99h-0.01
			l-0.61-2.99h-1.67v5.06L145.95,71.46L145.95,71.46z M141.27,67.41h0.93v4.05h1.19v-4.05h0.96V66.4h-3.08V67.41z M116.34,65.04
			H58.42l-8.9,14.16l57.93-0.18L116.34,65.04 M128.15,64.5l-35.96,56.84H52.78l9.08-13.98h24.51l8.9-14.16H40.62l-8.9,14.16H44.8
			L27,135.5h73.36l27.78-44.31l10.17,16.16h-8.72l-8.9,13.98h26.51l8.9,14.16H173L128.15,64.5"/>
	</g>
</g>
</svg>
