<?xml version="1.0" encoding="utf-8"?>
<!-- Generator: Adobe Illustrator 25.3.1, SVG Export Plug-In . SVG Version: 6.00 Build 0)  -->
<svg version="1.1" id="Calque_1" xmlns="http://www.w3.org/2000/svg" xmlns:xlink="http://www.w3.org/1999/xlink" x="0px" y="0px"
	 viewBox="0 0 200 200" style="enable-background:new 0 0 200 200;" xml:space="preserve">
<style type="text/css">
	.st0{fill-rule:evenodd;clip-rule:evenodd;fill:#FFFFFF;}
	.st1{fill:#1D1D1B;}
</style>
<g>
	<polygon class="st0" points="0,0 200,0 200,200 0,200 0,0 	"/>
	<path class="st1" d="M76.32,88.34l0.42,0.04c1.27,0.13,2.16,0.42,2.58,0.87c0.24,0.25,0.63,1.05,0.63,3.64v10.07
		c0,2.38-0.29,4.16-0.86,5.27c-1.01,1.97-2.95,2.92-5.95,2.92c-2.72,0-4.51-0.93-5.46-2.84c-0.52-1.06-0.78-2.59-0.78-4.54V91.39
		c0-1.68,0.32-2.21,0.51-2.38c0.2-0.18,0.81-0.51,2.61-0.63l0.44-0.03v-1.62H58.53v1.62l0.43,0.03c1.77,0.14,2.37,0.46,2.57,0.64
		c0.19,0.17,0.5,0.7,0.5,2.37v12.09c0,2.46,0.43,4.49,1.29,6.01c1.59,2.87,4.6,4.32,8.95,4.32c4.4,0,7.43-1.47,9.03-4.38
		c0.85-1.56,1.29-3.74,1.29-6.48V92.88c0-2.5,0.37-3.32,0.58-3.59c0.26-0.32,0.93-0.73,2.63-0.92l0.42-0.04v-1.6h-9.89V88.34z
		 M37.94,100.26l0.44,0.03c1.72,0.11,2.3,0.4,2.49,0.57c0.14,0.12,0.47,0.61,0.47,2.44v6.17c0,0.3-0.07,0.51-0.2,0.64
		c-0.08,0.08-0.39,0.3-1.54,0.67c-0.54,0.18-1.12,0.31-1.71,0.4c-0.6,0.09-1.14,0.13-1.58,0.13c-2.61,0-4.84-0.96-6.61-2.86
		c-1.79-1.9-2.69-4.61-2.69-8.03c0-4.17,0.91-7.19,2.69-8.98c1.78-1.78,3.88-2.69,6.22-2.69c2.33,0,4.17,0.74,5.61,2.27
		c0.8,0.88,1.6,2.24,2.37,4.06l0.12,0.29h1.68l-0.34-9.08h-1.61l-0.12,0.29c-0.14,0.34-0.3,0.59-0.48,0.76
		c-0.08,0.07-0.3,0.2-0.86,0.2c-0.07,0-0.44-0.05-2.37-0.61c-1.48-0.43-3.02-0.64-4.55-0.64c-4.26,0-7.74,1.48-10.33,4.41
		c-2.35,2.65-3.54,5.87-3.54,9.57c0,4.22,1.5,7.63,4.45,10.14c2.67,2.27,5.99,3.42,9.86,3.42c2.09,0,4.3-0.39,6.56-1.16
		c3.03-1.03,3.65-1.65,3.65-2.26v-7.62c0-1.08,0.21-1.82,0.62-2.13c0.13-0.11,0.52-0.3,1.65-0.37l0.44-0.03v-1.62h-10.8V100.26z
		 M117.64,106.07c-0.94,2.09-2,3.41-3.14,3.93c-1.18,0.54-3.07,0.82-5.62,0.82c-2.95,0-3.93-0.1-4.24-0.19
		c-0.1-0.03-0.39-0.11-0.39-0.91v-9.11h5.5c1.96,0,2.59,0.36,2.8,0.58c0.27,0.29,0.66,1,1,2.75l0.07,0.38h1.76v-9.87h-1.76
		l-0.07,0.38c-0.32,1.74-0.71,2.45-0.98,2.74c-0.2,0.22-0.84,0.58-2.81,0.58h-5.5v-8.17c0-0.59,0.1-0.74,0.1-0.74
		c0,0,0.13-0.1,0.69-0.1h5.27c2.68,0,3.71,0.36,4.1,0.66c0.39,0.29,0.92,1.06,1.3,3.03l0.07,0.38h1.85l-0.15-6.47H96v1.62l0.43,0.03
		c1.72,0.12,2.29,0.46,2.48,0.65c0.18,0.19,0.49,0.74,0.49,2.36v17.22c0,1.77-0.33,2.24-0.47,2.36c-0.2,0.17-0.78,0.47-2.52,0.65
		L96,111.67v1.6h21.74l2.01-7.47h-1.99L117.64,106.07z M177.11,101.97c-0.9-1.13-2.46-2.38-4.62-3.71l-3.4-2.1
		c-1.22-0.75-2.13-1.47-2.7-2.15c-0.53-0.62-0.79-1.36-0.79-2.25c0-0.97,0.33-1.7,1.01-2.23c0.71-0.56,1.52-0.83,2.48-0.83
		c1.26,0,2.56,0.47,3.86,1.39c1.29,0.91,2.25,2.57,2.85,4.93l0.09,0.35h1.81l-0.95-9.17h-1.58l-0.09,0.36
		c-0.08,0.35-0.2,0.61-0.33,0.78c-0.09,0.11-0.31,0.17-0.62,0.17c-0.06-0.01-0.39-0.07-1.99-0.63c-1.29-0.45-2.41-0.68-3.34-0.68
		c-2.26,0-4.11,0.7-5.49,2.08c-1.38,1.38-2.08,3.13-2.08,5.2c0,1.59,0.59,3.05,1.77,4.36c0.62,0.67,1.45,1.34,2.47,1.99l3.3,2.06
		c1.86,1.16,3.09,2.03,3.65,2.59c0.82,0.85,1.23,1.82,1.23,2.96c0,1.27-0.39,2.22-1.19,2.92c-0.82,0.71-1.77,1.06-2.89,1.06
		c-2.15,0-3.91-0.83-5.36-2.54c-0.84-0.99-1.59-2.34-2.22-4.02l-0.11-0.3h-1.75l1.28,9.17h1.65l0.06-0.39
		c0.04-0.26,0.12-0.5,0.25-0.73c0.07-0.12,0.24-0.18,0.5-0.18c0.07,0.01,0.41,0.07,2.1,0.66c1.35,0.47,2.66,0.71,3.91,0.71
		c2.49,0,4.57-0.73,6.18-2.16c1.63-1.45,2.45-3.27,2.45-5.43C178.5,104.58,178.03,103.16,177.11,101.97z M143.11,98.25l-3.4-2.1
		c-1.22-0.75-2.13-1.47-2.7-2.15c-0.53-0.62-0.79-1.36-0.79-2.25c0-0.97,0.33-1.7,1-2.23c0.71-0.56,1.52-0.83,2.48-0.83
		c1.26,0,2.56,0.47,3.86,1.39c1.29,0.91,2.25,2.57,2.85,4.93l0.09,0.35h1.81l-0.95-9.17h-1.58l-0.09,0.36
		c-0.08,0.35-0.2,0.61-0.34,0.78c-0.09,0.11-0.31,0.17-0.61,0.17c-0.06-0.01-0.39-0.07-1.99-0.63c-1.29-0.45-2.41-0.68-3.34-0.68
		c-2.26,0-4.1,0.7-5.49,2.08c-1.38,1.38-2.08,3.13-2.08,5.2c0,1.59,0.59,3.05,1.77,4.36c0.62,0.67,1.45,1.34,2.48,1.99l3.3,2.06
		c1.86,1.16,3.09,2.03,3.65,2.59c0.83,0.85,1.23,1.82,1.23,2.96c0,1.27-0.39,2.22-1.19,2.92c-0.82,0.71-1.77,1.06-2.89,1.06
		c-2.15,0-3.91-0.83-5.36-2.54c-0.84-0.99-1.59-2.34-2.22-4.02l-0.11-0.3h-1.75l1.28,9.17h1.65l0.06-0.39
		c0.04-0.26,0.13-0.5,0.26-0.73c0.07-0.12,0.24-0.18,0.5-0.18c0.07,0.01,0.41,0.07,2.1,0.65c1.35,0.47,2.66,0.71,3.91,0.71
		c2.49,0,4.57-0.73,6.18-2.16c1.63-1.45,2.45-3.27,2.45-5.43c0-1.61-0.47-3.03-1.39-4.22C146.83,100.83,145.28,99.59,143.11,98.25z"
		/>
</g>
</svg>
