<?xml version="1.0" encoding="utf-8"?>
<!-- Generator: Adobe Illustrator 23.0.6, SVG Export Plug-In . SVG Version: 6.00 Build 0)  -->
<svg version="1.1" id="Calque_1" xmlns="http://www.w3.org/2000/svg" xmlns:xlink="http://www.w3.org/1999/xlink" x="0px" y="0px"
	 viewBox="0 0 5674 3820" style="enable-background:new 0 0 5674 3820;" xml:space="preserve">
<style type="text/css">
	.st0{fill:#FFFFFF;}
	.st1{fill:#FFC400;}
	.st2{fill:url(#SVGID_1_);}
	.st3{fill:#4FC031;}
	.st4{fill:#3B6E31;}
</style>
<g>
	<rect class="st0" width="5674" height="3820"/>
	<g>
		<rect x="410" y="410" width="4854" height="600"/>
		<path class="st1" d="M908.17,567.26h-88.53v277.84h34.91V736.34h56.09c25.58-0.52,45.39-7.99,59.45-22.43
			c14.04-14.44,21.07-35.02,21.07-61.74c0-25.69-7.38-46.28-22.12-61.72C954.29,575,934,567.26,908.17,567.26z M943.84,692.43
			c-8.25,9.3-20.16,13.94-35.68,13.94h-53.61V597.22h53.82c14.87,0,26.59,5.04,35.1,15.11c8.5,10.07,12.78,23.45,12.78,40.14
			C956.25,669.8,952.13,683.11,943.84,692.43z M1271.28,686.72h-111.81V567.26h-34.93v277.84h34.93V716.68h111.81v128.42h35.12
			V567.26h-35.12V686.72z M1456.74,845.11h34.91V567.26h-34.91V845.11z M1676.31,567.26h-35.09v277.84h144.07v-29.96h-108.98V567.26
			z M1950.16,716.68h98.25v-29.96h-98.25v-89.5h112.56v-29.96h-147.49v277.84h149.41v-29.96h-114.48V716.68z M2048.42,490.57h-42.74
			l-36.83,56l28.43,0.09L2048.42,490.57z M2265.35,567.26l-89.49,277.84h35.87l21.58-72.7h93.88l21.96,72.7h35.87l-89.69-277.84
			H2265.35z M2242.48,742.45l37.76-126.33l37.98,126.33H2242.48z M2591.45,689.18c-17.55-6.25-30.54-13.32-38.94-21.22
			c-8.39-7.9-12.6-17.71-12.6-29.45c0-14.27,3.89-25.36,11.66-33.25c7.75-7.9,18.7-11.86,32.82-11.86c15.5,0,27.41,4.7,35.68,14.13
			c8.28,9.4,12.39,22.7,12.39,39.88h35.12c0-15.53-3.43-29.77-10.3-42.72c-6.88-12.95-16.68-23.08-29.4-30.34
			c-12.72-7.27-27.22-10.91-43.49-10.91c-23.8,0-43.03,7.13-57.74,21.37c-14.68,14.25-22.02,32.39-22.02,54.4
			c0,12.72,2.56,24.01,7.71,33.88c5.14,9.84,12.92,18.63,23.29,26.32s25.36,15.05,44.93,22.05c19.62,6.99,33.13,14.19,40.66,21.56
			c7.5,7.38,11.24,17.99,11.24,31.88c0,13.6-3.88,24.35-11.64,32.25c-7.74,7.88-19.34,11.82-34.72,11.82
			c-16.54,0-29.59-4.77-39.2-14.31c-9.61-9.55-14.41-22.9-14.41-40.07h-35.12c0,16.54,3.93,31.2,11.75,43.98
			c7.81,12.79,18.57,22.73,32.25,29.77c13.68,7.06,28.59,10.6,44.74,10.6c25.2,0,45.1-6.76,59.72-20.32
			c14.63-13.54,21.96-31.58,21.96-54.1c0-21.37-5.88-38.67-17.64-51.91C2638.34,709.36,2618.78,698.23,2591.45,689.18z
			 M3023.02,612.98c9.28-13.04,23.92-19.57,43.89-19.57c16.67,0,29.11,4.86,37.32,14.6c8.21,9.73,13.01,23.24,14.41,40.54h34.91
			c-1.52-27.34-9.77-48.37-24.71-63.06c-14.96-14.69-35.65-22.05-62.1-22.05c-31.04,0-54.37,9.71-69.93,29.11
			c-15.59,19.41-23.37,48.56-23.37,87.5v54.57c0.35,36.39,9.11,64.54,26.22,84.45c17.12,19.91,40.68,29.86,70.71,29.86
			c33.82,0,59.52-10.24,77.09-30.73l6.1-7.63V706.75h-85.68v29.98h50.77v63.81l-5.17,4.75c-9.77,9.12-24.08,13.68-42.93,13.68
			c-19.97,0-35.28-7.47-45.97-22.43c-10.68-14.94-16.05-36.4-16.05-64.39v-56.68C3008.9,646.84,3013.73,626.02,3023.02,612.98z
			 M3333.86,716.68h98.25v-29.96h-98.25v-89.5h112.58v-29.96h-147.49v277.84h149.39v-29.96h-114.48V716.68z M3661.66,689.18
			c-17.55-6.25-30.54-13.32-38.95-21.22c-8.37-7.9-12.59-17.71-12.59-29.45c0-14.27,3.89-25.36,11.66-33.25
			c7.75-7.9,18.7-11.86,32.82-11.86c15.5,0,27.41,4.7,35.68,14.13c8.28,9.4,12.39,22.7,12.39,39.88h35.12
			c0-15.53-3.43-29.77-10.3-42.72c-6.88-12.95-16.68-23.08-29.4-30.34c-12.72-7.27-27.22-10.91-43.49-10.91
			c-23.8,0-43.03,7.13-57.74,21.37c-14.68,14.25-22.03,32.39-22.03,54.4c0,12.72,2.58,24.01,7.72,33.88
			c5.14,9.84,12.91,18.63,23.29,26.32c10.36,7.69,25.36,15.05,44.93,22.05c19.62,6.99,33.13,14.19,40.66,21.56
			c7.49,7.38,11.24,17.99,11.24,31.88c0,13.6-3.88,24.35-11.64,32.25c-7.74,7.88-19.34,11.82-34.72,11.82
			c-16.54,0-29.61-4.77-39.2-14.31c-9.61-9.55-14.41-22.9-14.41-40.07h-35.12c0,16.54,3.92,31.2,11.75,43.98
			c7.81,12.79,18.57,22.73,32.25,29.77c13.68,7.06,28.59,10.6,44.74,10.6c25.19,0,45.08-6.76,59.72-20.32
			c14.63-13.54,21.96-31.58,21.96-54.1c0-21.37-5.88-38.67-17.64-51.91C3708.56,709.36,3689,698.23,3661.66,689.18z M3853.6,597.22
			h72.89v247.88h34.93V597.22h73.1v-29.96H3853.6V597.22z M4165.37,845.11h34.91V567.26h-34.91V845.11z M4437.09,563.44
			c-29.39,0-52.27,10.54-68.69,31.6c-16.42,21.05-24.63,50.14-24.63,87.29v52.29c0.63,36.39,9.26,64.54,25.88,84.45
			c16.58,19.91,39.2,29.86,67.82,29.86c29.77,0,52.73-10.24,68.88-30.73c16.15-20.49,24.23-49.67,24.23-87.58v-50.56
			c-0.35-37.4-8.74-66.19-25.08-86.35C4489.15,573.54,4466.34,563.44,4437.09,563.44z M4495.67,734.04
			c-0.4,28.37-5.26,49.41-14.69,63.16c-9.42,13.74-23.92,20.62-43.5,20.62c-19.6,0-34.34-7.46-44.18-22.33
			c-9.84-14.88-14.77-36.52-14.77-64.89V680.8c0.12-28.24,5.11-49.61,14.96-64.11c9.86-14.5,24.39-21.75,43.61-21.75
			c19.84,0,34.57,7.16,44.17,21.47c9.61,14.31,14.41,36.15,14.41,65.55V734.04z M4819.64,567.26v215.06L4708,567.26h-35.09v277.84
			H4708V631l111.25,214.11h35.1V567.26H4819.64z"/>
		<linearGradient id="SVGID_1_" gradientUnits="userSpaceOnUse" x1="2154.4839" y1="429.3721" x2="4558.2729" y2="918.406">
			<stop  offset="0" style="stop-color:#FFFFFF"/>
			<stop  offset="1" style="stop-color:#FFC400"/>
		</linearGradient>
		<path class="st2" d="M2265.36,567.26l-89.49,277.85h35.87l21.56-72.7h93.88l21.96,72.7h35.87l-89.69-277.85H2265.36z
			 M2242.47,742.44l37.76-126.32l37.98,126.32H2242.47z M2591.44,689.18c-17.54-6.25-30.53-13.32-38.94-21.22
			c-8.38-7.9-12.59-17.72-12.59-29.44c0-14.27,3.9-25.36,11.66-33.26c7.74-7.9,18.7-11.86,32.81-11.86
			c15.51,0,27.42,4.7,35.68,14.13c8.28,9.41,12.4,22.7,12.4,39.88h35.11c0-15.53-3.43-29.76-10.29-42.72
			c-6.88-12.95-16.69-23.07-29.41-30.34c-12.72-7.27-27.22-10.91-43.5-10.91c-23.79,0-43.03,7.13-57.73,21.37
			c-14.68,14.25-22.03,32.39-22.03,54.39c0,12.72,2.57,24.01,7.72,33.88c5.15,9.85,12.91,18.64,23.28,26.33
			c10.37,7.69,25.36,15.04,44.94,22.04c19.6,7,33.13,14.19,40.65,21.56c7.5,7.38,11.25,18,11.25,31.87
			c0,13.61-3.87,24.36-11.64,32.25c-7.74,7.89-19.33,11.82-34.72,11.82c-16.54,0-29.6-4.77-39.21-14.31
			c-9.61-9.54-14.41-22.9-14.41-40.06h-35.11c0,16.53,3.92,31.19,11.74,43.97c7.82,12.79,18.57,22.71,32.25,29.77
			c13.67,7.06,28.6,10.59,44.74,10.59c25.19,0,45.09-6.76,59.72-20.31c14.63-13.55,21.96-31.59,21.96-54.11
			c0-21.37-5.88-38.67-17.64-51.9C2638.34,709.36,2618.79,698.23,2591.44,689.18z M3023.01,612.97
			c9.29-13.05,23.92-19.57,43.89-19.57c16.66,0,29.11,4.87,37.32,14.6c8.21,9.73,13.01,23.24,14.41,40.55h34.92
			c-1.52-27.35-9.78-48.38-24.73-63.07c-14.95-14.69-35.65-22.04-62.09-22.04c-31.05,0-54.38,9.7-69.94,29.1
			c-15.58,19.41-23.38,48.57-23.38,87.5v54.57c0.37,36.39,9.12,64.53,26.22,84.44c17.13,19.91,40.68,29.86,70.72,29.86
			c33.82,0,59.52-10.23,77.09-30.72l6.1-7.63V706.76h-85.69v29.97h50.77v63.82l-5.17,4.74c-9.78,9.12-24.09,13.67-42.93,13.67
			c-19.97,0-35.29-7.47-45.97-22.42c-10.68-14.94-16.05-36.41-16.05-64.4v-56.68C3008.9,646.84,3013.73,626.01,3023.01,612.97z
			 M3333.86,716.68h98.26v-29.96h-98.26v-89.49h112.57v-29.97h-147.49v277.85h149.4v-29.96h-114.49V716.68z M3661.65,689.18
			c-17.54-6.25-30.53-13.32-38.94-21.22c-8.38-7.9-12.6-17.72-12.6-29.44c0-14.27,3.9-25.36,11.66-33.26
			c7.74-7.9,18.7-11.86,32.81-11.86c15.51,0,27.42,4.7,35.68,14.13c8.28,9.41,12.4,22.7,12.4,39.88h35.12
			c0-15.53-3.43-29.76-10.29-42.72c-6.89-12.95-16.69-23.07-29.4-30.34c-12.72-7.27-27.23-10.91-43.5-10.91
			c-23.8,0-43.03,7.13-57.73,21.37c-14.68,14.25-22.03,32.39-22.03,54.39c0,12.72,2.57,24.01,7.72,33.88
			c5.15,9.85,12.91,18.64,23.28,26.33c10.36,7.69,25.36,15.04,44.94,22.04c19.6,7,33.13,14.19,40.65,21.56
			c7.5,7.38,11.25,18,11.25,31.87c0,13.61-3.87,24.36-11.64,32.25c-7.74,7.89-19.34,11.82-34.72,11.82
			c-16.54,0-29.6-4.77-39.21-14.31c-9.6-9.54-14.41-22.9-14.41-40.06h-35.12c0,16.53,3.92,31.19,11.74,43.97
			c7.82,12.79,18.57,22.71,32.25,29.77c13.67,7.06,28.6,10.59,44.75,10.59c25.19,0,45.09-6.76,59.72-20.31
			c14.63-13.55,21.96-31.59,21.96-54.11c0-21.37-5.88-38.67-17.64-51.9C3708.56,709.36,3689,698.23,3661.65,689.18z M3853.6,597.23
			h72.9v247.88h34.92V597.23h73.1v-29.97H3853.6V597.23z M4165.37,845.11h34.92V567.26h-34.92V845.11z M4437.08,563.45
			c-29.38,0-52.27,10.53-68.69,31.59c-16.42,21.05-24.63,50.15-24.63,87.3v52.28c0.64,36.39,9.26,64.53,25.88,84.44
			c16.59,19.91,39.21,29.86,67.83,29.86c29.77,0,52.73-10.23,68.88-30.72s24.23-49.67,24.23-87.59v-50.56
			c-0.37-37.41-8.75-66.19-25.09-86.34C4489.15,573.54,4466.34,563.45,4437.08,563.45z M4495.67,734.05
			c-0.39,28.37-5.27,49.41-14.7,63.16c-9.41,13.74-23.92,20.61-43.5,20.61c-19.6,0-34.33-7.45-44.18-22.32
			c-9.85-14.88-14.78-36.51-14.78-64.89V680.8c0.12-28.24,5.12-49.61,14.97-64.12c9.85-14.49,24.38-21.75,43.59-21.75
			c19.85,0,34.58,7.16,44.18,21.47c9.6,14.31,14.41,36.15,14.41,65.55V734.05z M4819.65,567.26v215.07L4708,567.26h-35.09v277.85
			H4708V631l111.25,214.11h35.11V567.26H4819.65z"/>
		<rect x="410" y="2810" class="st3" width="4854" height="600"/>
		<g>
			<path class="st0" d="M909.18,2969.06l-89.54,278.04h35.9l21.58-72.74h93.94l21.96,72.74h35.93l-89.78-278.04H909.18z
				 M886.28,3144.35l37.82-126.42l37.99,126.42H886.28z"/>
			<path class="st0" d="M1369.89,3165.22c0,18.69-3.98,32.66-11.94,41.88c-7.96,9.23-20.84,13.82-38.67,13.82
				c-17.71,0-30.54-4.6-38.49-13.82c-7.96-9.23-11.94-23.2-11.94-41.88v-196.16h-34.75v197.63c0.27,27,7.63,47.78,22.17,62.37
				c14.5,14.56,35.52,21.87,63.02,21.87c26.85,0,47.81-7.46,62.81-22.34c15.03-14.91,22.67-35.55,22.93-61.9v-197.63h-35.13V3165.22
				z"/>
			<path class="st0" d="M1676.45,2969.06h-66.26v278.04h62.25c34.63,0,61.04-10.02,79.26-30.06c18.22-20.07,27.32-48.49,27.32-85.27
				v-46.6c0-36.78-8.99-65.35-26.94-85.65C1734.13,2979.2,1708.93,2969.06,1676.45,2969.06z M1744.44,3133.38
				c-0.27,27.68-6.04,48.55-17.39,62.6c-11.32,14.09-29.27,21.13-53.85,21.13h-28.06v-218.08h31.3c22.81,0,39.82,6.84,51.11,20.54
				c11.26,13.71,16.89,35.19,16.89,64.52V3133.38z"/>
			<rect x="1984.18" y="2969.06" class="st0" width="34.96" height="278.04"/>
			<polygon class="st0" points="2224.3,2999.04 2297.25,2999.04 2297.25,3247.1 2332.18,3247.1 2332.18,2999.04 2405.34,2999.04 
				2405.34,2969.06 2224.3,2969.06 			"/>
			<polygon class="st0" points="2850.63,3118.59 2948.96,3118.59 2948.96,3088.58 2850.63,3088.58 2850.63,2999.04 2963.28,2999.04 
				2963.28,2969.06 2815.67,2969.06 2815.67,3247.1 2965.2,3247.1 2965.2,3217.12 2850.63,3217.12 			"/>
			<polygon class="st0" points="3358.83,2969.06 3317.77,2969.06 3265.45,3075.61 3212.75,2969.06 3171.87,2969.06 3244.64,3106.92 
				3170.36,3247.1 3211.78,3247.1 3265.45,3138.63 3318.92,3247.1 3360.36,3247.1 3286.47,3106.92 			"/>
			<path class="st0" d="M3654.12,2969.06h-88.6v278.04h34.96v-108.85h56.15c25.58-0.5,45.42-7.99,59.48-22.43
				c14.06-14.44,21.1-35.05,21.1-61.78c0-25.73-7.4-46.3-22.17-61.78C3700.28,2976.78,3679.97,2969.06,3654.12,2969.06z
				 M3689.85,3094.3c-8.28,9.31-20.19,13.97-35.72,13.97h-53.64v-109.23h53.85c14.88,0,26.62,5.04,35.13,15.12
				c8.52,10.05,12.79,23.46,12.79,40.17C3702.26,3071.66,3698.13,3084.99,3689.85,3094.3z"/>
			<polygon class="st0" points="3977.33,3118.59 4075.66,3118.59 4075.66,3088.58 3977.33,3088.58 3977.33,2999.04 4089.99,2999.04 
				4089.99,2969.06 3942.38,2969.06 3942.38,3247.1 4091.9,3247.1 4091.9,3217.12 3977.33,3217.12 			"/>
			<path class="st0" d="M4446.5,3097.66c7.57-12.79,11.35-27.77,11.35-44.98c0-27.35-6.99-48.13-20.99-62.34
				c-14-14.21-34.63-21.28-61.87-21.28h-77.93v278.04h35.13v-112.48h48.9l49.46,112.48h37.61v-2.3l-53.85-118.19
				C4428.2,3120.12,4438.93,3110.45,4446.5,3097.66z M4374.61,3104.65h-42.41v-105.61h42.03c32.33,0,48.49,17.86,48.49,53.56
				c0,15.83-4.36,28.44-13.06,37.88C4400.94,3099.93,4389.23,3104.65,4374.61,3104.65z"/>
			<polygon class="st0" points="4673.33,2969.06 4673.33,2999.04 4746.28,2999.04 4746.28,3247.1 4781.21,3247.1 4781.21,2999.04 
				4854.37,2999.04 4854.37,2969.06 			"/>
		</g>
		<g>
			<path class="st3" d="M1673.84,2716.84l1513.93-1513.93h-579.3L1094.52,2716.84H1673.84z M2503.26,1202.91h-579.31L410,2716.84
				h579.33L2503.26,1202.91z M3187.77,2617.1l988.25-988.23c155.02-155.04,407.25-155.04,562.28,0
				c155.01,155.01,155.01,407.25,0,562.26c-155.02,155.02-407.25,155.02-562.28,0l-289.65,289.66
				c314.73,314.73,826.84,314.75,1141.57,0c314.75-314.75,314.75-826.86,0-1141.59c-314.73-314.73-826.83-314.73-1141.57,0
				l-1277.9,1277.9H3187.77z"/>
			<polyline class="st4" points="3187.77,1202.91 2608.47,1782.21 2608.47,2617.1 2608.47,2617.1 3187.77,2037.8 3187.77,1202.9 			
				"/>
		</g>
	</g>
</g>
</svg>
