<?xml version="1.0" encoding="utf-8"?>
<!-- Generator: Adobe Illustrator 23.0.6, SVG Export Plug-In . SVG Version: 6.00 Build 0)  -->
<svg version="1.1" id="Calque_1" xmlns="http://www.w3.org/2000/svg" xmlns:xlink="http://www.w3.org/1999/xlink" x="0px" y="0px"
	 viewBox="0 0 5674 3820" style="enable-background:new 0 0 5674 3820;" xml:space="preserve">
<style type="text/css">
	.st0{fill:#FFFFFF;}
	.st1{fill:#FFC400;}
	.st2{fill:url(#SVGID_1_);}
	.st3{fill:#FF3A64;}
	.st4{fill:#9D1A47;}
</style>
<g>
	<rect class="st0" width="5674" height="3820"/>
	<g>
		<rect x="410" y="410" class="st0" width="4854" height="3000"/>
		<rect x="410" y="410" width="4854" height="600"/>
		<path class="st1" d="M908.17,567.26h-88.53v277.84h34.91V736.34h56.09c25.58-0.52,45.39-7.99,59.45-22.43
			c14.04-14.44,21.07-35.02,21.07-61.74c0-25.69-7.38-46.28-22.12-61.72C954.29,575,934,567.26,908.17,567.26z M943.84,692.43
			c-8.25,9.3-20.16,13.94-35.68,13.94h-53.61V597.22h53.82c14.87,0,26.59,5.04,35.1,15.11c8.5,10.07,12.78,23.45,12.78,40.14
			C956.25,669.8,952.13,683.11,943.84,692.43z M1271.28,686.72h-111.81V567.26h-34.93v277.84h34.93V716.68h111.81v128.42h35.12
			V567.26h-35.12V686.72z M1456.74,845.11h34.91V567.26h-34.91V845.11z M1676.31,567.26h-35.09v277.84h144.07v-29.96h-108.98V567.26
			z M1950.16,716.68h98.25v-29.96h-98.25v-89.5h112.56v-29.96h-147.49v277.84h149.41v-29.96h-114.48V716.68z M2048.42,490.57h-42.74
			l-36.83,56l28.43,0.09L2048.42,490.57z M2265.35,567.26l-89.49,277.84h35.87l21.58-72.7h93.88l21.96,72.7h35.87l-89.69-277.84
			H2265.35z M2242.48,742.45l37.76-126.33l37.98,126.33H2242.48z M2591.45,689.18c-17.55-6.25-30.54-13.32-38.94-21.22
			c-8.39-7.9-12.6-17.71-12.6-29.45c0-14.27,3.89-25.36,11.66-33.25c7.75-7.9,18.7-11.86,32.82-11.86c15.5,0,27.41,4.7,35.68,14.13
			c8.28,9.4,12.39,22.7,12.39,39.88h35.12c0-15.53-3.43-29.77-10.3-42.72c-6.88-12.95-16.68-23.08-29.4-30.34
			c-12.72-7.27-27.22-10.91-43.49-10.91c-23.8,0-43.03,7.13-57.74,21.37c-14.68,14.25-22.02,32.39-22.02,54.4
			c0,12.72,2.56,24.01,7.71,33.88c5.14,9.84,12.92,18.63,23.29,26.32s25.36,15.05,44.93,22.05c19.62,6.99,33.13,14.19,40.66,21.56
			c7.5,7.38,11.24,17.99,11.24,31.88c0,13.6-3.88,24.35-11.64,32.25c-7.74,7.88-19.34,11.82-34.72,11.82
			c-16.54,0-29.59-4.77-39.2-14.31c-9.61-9.55-14.41-22.9-14.41-40.07h-35.12c0,16.54,3.93,31.2,11.75,43.98
			c7.81,12.79,18.57,22.73,32.25,29.77c13.68,7.06,28.59,10.6,44.74,10.6c25.2,0,45.1-6.76,59.72-20.32
			c14.63-13.54,21.96-31.58,21.96-54.1c0-21.37-5.88-38.67-17.64-51.91C2638.34,709.36,2618.78,698.23,2591.45,689.18z
			 M3023.02,612.98c9.28-13.04,23.92-19.57,43.89-19.57c16.67,0,29.11,4.86,37.32,14.6c8.21,9.73,13.01,23.24,14.41,40.54h34.91
			c-1.52-27.34-9.77-48.37-24.71-63.06c-14.96-14.69-35.65-22.05-62.1-22.05c-31.04,0-54.37,9.71-69.93,29.11
			c-15.59,19.41-23.37,48.56-23.37,87.5v54.57c0.35,36.39,9.11,64.54,26.22,84.45c17.12,19.91,40.68,29.86,70.71,29.86
			c33.82,0,59.52-10.24,77.09-30.73l6.1-7.63V706.75h-85.68v29.98h50.77v63.81l-5.17,4.75c-9.77,9.12-24.08,13.68-42.93,13.68
			c-19.97,0-35.28-7.47-45.97-22.43c-10.68-14.94-16.05-36.4-16.05-64.39v-56.68C3008.9,646.84,3013.73,626.02,3023.02,612.98z
			 M3333.86,716.68h98.25v-29.96h-98.25v-89.5h112.58v-29.96h-147.49v277.84h149.39v-29.96h-114.48V716.68z M3661.66,689.18
			c-17.55-6.25-30.54-13.32-38.95-21.22c-8.37-7.9-12.59-17.71-12.59-29.45c0-14.27,3.89-25.36,11.66-33.25
			c7.75-7.9,18.7-11.86,32.82-11.86c15.5,0,27.41,4.7,35.68,14.13c8.28,9.4,12.39,22.7,12.39,39.88h35.12
			c0-15.53-3.43-29.77-10.3-42.72c-6.88-12.95-16.68-23.08-29.4-30.34c-12.72-7.27-27.22-10.91-43.49-10.91
			c-23.8,0-43.03,7.13-57.74,21.37c-14.68,14.25-22.03,32.39-22.03,54.4c0,12.72,2.58,24.01,7.72,33.88
			c5.14,9.84,12.91,18.63,23.29,26.32c10.36,7.69,25.36,15.05,44.93,22.05c19.62,6.99,33.13,14.19,40.66,21.56
			c7.49,7.38,11.24,17.99,11.24,31.88c0,13.6-3.88,24.35-11.64,32.25c-7.74,7.88-19.34,11.82-34.72,11.82
			c-16.54,0-29.61-4.77-39.2-14.31c-9.61-9.55-14.41-22.9-14.41-40.07h-35.12c0,16.54,3.92,31.2,11.75,43.98
			c7.81,12.79,18.57,22.73,32.25,29.77c13.68,7.06,28.59,10.6,44.74,10.6c25.19,0,45.08-6.76,59.72-20.32
			c14.63-13.54,21.96-31.58,21.96-54.1c0-21.37-5.88-38.67-17.64-51.91C3708.56,709.36,3689,698.23,3661.66,689.18z M3853.6,597.22
			h72.89v247.88h34.93V597.22h73.1v-29.96H3853.6V597.22z M4165.37,845.11h34.91V567.26h-34.91V845.11z M4437.09,563.44
			c-29.39,0-52.27,10.54-68.69,31.6c-16.42,21.05-24.63,50.14-24.63,87.29v52.29c0.63,36.39,9.26,64.54,25.88,84.45
			c16.58,19.91,39.2,29.86,67.82,29.86c29.77,0,52.73-10.24,68.88-30.73c16.15-20.49,24.23-49.67,24.23-87.58v-50.56
			c-0.35-37.4-8.74-66.19-25.08-86.35C4489.15,573.54,4466.34,563.44,4437.09,563.44z M4495.67,734.04
			c-0.4,28.37-5.26,49.41-14.69,63.16c-9.42,13.74-23.92,20.62-43.5,20.62c-19.6,0-34.34-7.46-44.18-22.33
			c-9.84-14.88-14.77-36.52-14.77-64.89V680.8c0.12-28.24,5.11-49.61,14.96-64.11c9.86-14.5,24.39-21.75,43.61-21.75
			c19.84,0,34.57,7.16,44.17,21.47c9.61,14.31,14.41,36.15,14.41,65.55V734.04z M4819.64,567.26v215.06L4708,567.26h-35.09v277.84
			H4708V631l111.25,214.11h35.1V567.26H4819.64z"/>
		<linearGradient id="SVGID_1_" gradientUnits="userSpaceOnUse" x1="2154.4839" y1="429.3721" x2="4558.2729" y2="918.406">
			<stop  offset="0" style="stop-color:#FFFFFF"/>
			<stop  offset="1" style="stop-color:#FFC400"/>
		</linearGradient>
		<path class="st2" d="M2265.36,567.26l-89.49,277.85h35.87l21.56-72.7h93.88l21.96,72.7h35.87l-89.69-277.85H2265.36z
			 M2242.47,742.44l37.76-126.32l37.98,126.32H2242.47z M2591.44,689.18c-17.54-6.25-30.53-13.32-38.94-21.22
			c-8.38-7.9-12.59-17.72-12.59-29.44c0-14.27,3.9-25.36,11.66-33.26c7.74-7.9,18.7-11.86,32.81-11.86
			c15.51,0,27.42,4.7,35.68,14.13c8.28,9.41,12.4,22.7,12.4,39.88h35.11c0-15.53-3.43-29.76-10.29-42.72
			c-6.88-12.95-16.69-23.07-29.41-30.34c-12.72-7.27-27.22-10.91-43.5-10.91c-23.79,0-43.03,7.13-57.73,21.37
			c-14.68,14.25-22.03,32.39-22.03,54.39c0,12.72,2.57,24.01,7.72,33.88c5.15,9.85,12.91,18.64,23.28,26.33
			c10.37,7.69,25.36,15.04,44.94,22.04c19.6,7,33.13,14.19,40.65,21.56c7.5,7.38,11.25,18,11.25,31.87
			c0,13.61-3.87,24.36-11.64,32.25c-7.74,7.89-19.33,11.82-34.72,11.82c-16.54,0-29.6-4.77-39.21-14.31
			c-9.61-9.54-14.41-22.9-14.41-40.06h-35.11c0,16.53,3.92,31.19,11.74,43.97c7.82,12.79,18.57,22.71,32.25,29.77
			c13.67,7.06,28.6,10.59,44.74,10.59c25.19,0,45.09-6.76,59.72-20.31c14.63-13.55,21.96-31.59,21.96-54.11
			c0-21.37-5.88-38.67-17.64-51.9C2638.34,709.36,2618.79,698.23,2591.44,689.18z M3023.01,612.97
			c9.29-13.05,23.92-19.57,43.89-19.57c16.66,0,29.11,4.87,37.32,14.6c8.21,9.73,13.01,23.24,14.41,40.55h34.92
			c-1.52-27.35-9.78-48.38-24.73-63.07c-14.95-14.69-35.65-22.04-62.09-22.04c-31.05,0-54.38,9.7-69.94,29.1
			c-15.58,19.41-23.38,48.57-23.38,87.5v54.57c0.37,36.39,9.12,64.53,26.22,84.44c17.13,19.91,40.68,29.86,70.72,29.86
			c33.82,0,59.52-10.23,77.09-30.72l6.1-7.63V706.76h-85.69v29.97h50.77v63.82l-5.17,4.74c-9.78,9.12-24.09,13.67-42.93,13.67
			c-19.97,0-35.29-7.47-45.97-22.42c-10.68-14.94-16.05-36.41-16.05-64.4v-56.68C3008.9,646.84,3013.73,626.01,3023.01,612.97z
			 M3333.86,716.68h98.26v-29.96h-98.26v-89.49h112.57v-29.97h-147.49v277.85h149.4v-29.96h-114.49V716.68z M3661.65,689.18
			c-17.54-6.25-30.53-13.32-38.94-21.22c-8.38-7.9-12.6-17.72-12.6-29.44c0-14.27,3.9-25.36,11.66-33.26
			c7.74-7.9,18.7-11.86,32.81-11.86c15.51,0,27.42,4.7,35.68,14.13c8.28,9.41,12.4,22.7,12.4,39.88h35.12
			c0-15.53-3.43-29.76-10.29-42.72c-6.89-12.95-16.69-23.07-29.4-30.34c-12.72-7.27-27.23-10.91-43.5-10.91
			c-23.8,0-43.03,7.13-57.73,21.37c-14.68,14.25-22.03,32.39-22.03,54.39c0,12.72,2.57,24.01,7.72,33.88
			c5.15,9.85,12.91,18.64,23.28,26.33c10.36,7.69,25.36,15.04,44.94,22.04c19.6,7,33.13,14.19,40.65,21.56
			c7.5,7.38,11.25,18,11.25,31.87c0,13.61-3.87,24.36-11.64,32.25c-7.74,7.89-19.34,11.82-34.72,11.82
			c-16.54,0-29.6-4.77-39.21-14.31c-9.6-9.54-14.41-22.9-14.41-40.06h-35.12c0,16.53,3.92,31.19,11.74,43.97
			c7.82,12.79,18.57,22.71,32.25,29.77c13.67,7.06,28.6,10.59,44.75,10.59c25.19,0,45.09-6.76,59.72-20.31
			c14.63-13.55,21.96-31.59,21.96-54.11c0-21.37-5.88-38.67-17.64-51.9C3708.56,709.36,3689,698.23,3661.65,689.18z M3853.6,597.23
			h72.9v247.88h34.92V597.23h73.1v-29.97H3853.6V597.23z M4165.37,845.11h34.92V567.26h-34.92V845.11z M4437.08,563.45
			c-29.38,0-52.27,10.53-68.69,31.59c-16.42,21.05-24.63,50.15-24.63,87.3v52.28c0.64,36.39,9.26,64.53,25.88,84.44
			c16.59,19.91,39.21,29.86,67.83,29.86c29.77,0,52.73-10.23,68.88-30.72s24.23-49.67,24.23-87.59v-50.56
			c-0.37-37.41-8.75-66.19-25.09-86.34C4489.15,573.54,4466.34,563.45,4437.08,563.45z M4495.67,734.05
			c-0.39,28.37-5.27,49.41-14.7,63.16c-9.41,13.74-23.92,20.61-43.5,20.61c-19.6,0-34.33-7.45-44.18-22.32
			c-9.85-14.88-14.78-36.51-14.78-64.89V680.8c0.12-28.24,5.12-49.61,14.97-64.12c9.85-14.49,24.38-21.75,43.59-21.75
			c19.85,0,34.58,7.16,44.18,21.47c9.6,14.31,14.41,36.15,14.41,65.55V734.05z M4819.65,567.26v215.07L4708,567.26h-35.09v277.85
			H4708V631l111.25,214.11h35.11V567.26H4819.65z"/>
		<rect x="410" y="2810" class="st3" width="4854" height="600"/>
		<g>
			<path class="st0" d="M870.19,3019.46c10.19-14.83,24.75-22.22,43.72-22.22c16.4,0,28.62,4.82,36.63,14.5
				c8.02,9.65,12.77,25.83,14.32,48.47h35.29c-1.27-29.89-9.24-52.88-23.95-68.91c-14.7-16.02-35.46-24.04-62.29-24.04
				c-29.14,0-52.15,10.52-69.01,31.49c-16.86,20.97-25.27,49.55-25.27,85.67v50.38c0,36.27,8.19,64.99,24.6,86.16
				c16.42,21.18,38.55,31.76,66.41,31.76c27.74,0,49.21-7.89,64.4-23.74c15.22-15.84,23.58-38.65,25.1-68.4h-35.29
				c-1.92,23.4-6.89,39.6-14.9,48.64c-8.02,9.04-21.13,13.55-39.31,13.55c-18.18,0-32.02-7.49-41.51-22.52
				c-9.46-15.02-14.21-36.56-14.21-64.67v-50.98C854.93,3056,860.03,3034.29,870.19,3019.46z"/>
			<path class="st0" d="M1246.49,2967.26c-29.39,0-52.27,10.52-68.69,31.59c-16.42,21.05-24.63,50.14-24.63,87.29v52.3
				c0.63,36.39,9.26,64.54,25.87,84.45c16.59,19.9,39.22,29.84,67.84,29.84c29.77,0,52.73-10.21,68.88-30.71
				c16.15-20.48,24.24-49.67,24.24-87.61v-50.55c-0.37-37.43-8.75-66.19-25.09-86.34
				C1298.56,2977.33,1275.75,2967.26,1246.49,2967.26z M1305.08,3137.87c-0.39,28.35-5.27,49.43-14.7,63.15
				c-9.41,13.75-23.92,20.63-43.5,20.63c-19.6,0-34.33-7.45-44.18-22.35c-9.85-14.87-14.78-36.51-14.78-64.89v-49.8
				c0.13-28.22,5.13-49.59,14.97-64.1c9.85-14.51,24.39-21.76,43.6-21.76c19.84,0,34.57,7.16,44.18,21.47
				c9.6,14.31,14.41,36.17,14.41,65.55V3137.87z"/>
			<polygon class="st0" points="1610.57,3197.78 1538.04,2971.06 1493.02,2971.06 1493.02,3248.93 1527.93,3248.93 1527.93,3140.74 
				1524.68,3033.11 1597.02,3248.93 1623.73,3248.93 1696.44,3032.33 1693.18,3140.74 1693.18,3248.93 1728.13,3248.93 
				1728.13,2971.06 1683.08,2971.06 			"/>
			<polygon class="st0" points="1998.7,3197.78 1926.17,2971.06 1881.15,2971.06 1881.15,3248.93 1916.07,3248.93 1916.07,3140.74 
				1912.81,3033.11 1985.15,3248.93 2011.86,3248.93 2084.56,3032.33 2081.31,3140.74 2081.31,3248.93 2116.25,3248.93 
				2116.25,2971.06 2071.21,2971.06 			"/>
			<path class="st0" d="M2404.96,3167.1c0,18.67-3.96,32.64-11.94,41.86c-7.94,9.21-20.82,13.82-38.64,13.82
				c-17.67,0-30.49-4.61-38.45-13.82c-7.94-9.22-11.91-23.19-11.91-41.86v-196.04h-34.75v197.51c0.27,26.98,7.65,47.73,22.15,62.32
				c14.49,14.58,35.49,21.83,62.96,21.83c26.85,0,47.78-7.43,62.78-22.3c15.02-14.9,22.64-35.51,22.92-61.85v-197.51h-35.12V3167.1z
				"/>
			<polygon class="st0" points="2739.83,3186.14 2628.19,2971.06 2593.1,2971.06 2593.1,3248.93 2628.19,3248.93 2628.19,3034.82 
				2739.45,3248.93 2774.56,3248.93 2774.56,2971.06 2739.83,2971.06 			"/>
			<rect x="2927.59" y="2971.06" class="st0" width="34.91" height="277.87"/>
			<path class="st0" d="M3166.07,3019.46c10.2-14.83,24.74-22.22,43.71-22.22c16.4,0,28.62,4.82,36.64,14.5
				c8.02,9.65,12.76,25.83,14.31,48.47h35.3c-1.28-29.89-9.24-52.88-23.95-68.91c-14.69-16.02-35.46-24.04-62.29-24.04
				c-29.14,0-52.14,10.52-69,31.49c-16.86,20.97-25.26,49.55-25.26,85.67v50.38c0,36.27,8.18,64.99,24.6,86.16
				c16.42,21.18,38.55,31.76,66.41,31.76c27.75,0,49.21-7.89,64.4-23.74c15.22-15.84,23.58-38.65,25.1-68.4h-35.3
				c-1.9,23.4-6.88,39.6-14.9,48.64c-8,9.04-21.12,13.55-39.3,13.55c-18.19,0-32.02-7.49-41.52-22.52
				c-9.46-15.02-14.21-36.56-14.21-64.67v-50.98C3150.81,3056,3155.91,3034.29,3166.07,3019.46z"/>
			<path class="st0" d="M3538.55,2971.06l-89.5,277.87h35.89l21.56-72.71h93.88l21.96,72.71h35.87l-89.68-277.87H3538.55z
				 M3515.67,3146.28l37.76-126.35l37.99,126.35H3515.67z"/>
			<polygon class="st0" points="3811.23,3001.05 3884.14,3001.05 3884.14,3248.93 3919.05,3248.93 3919.05,3001.05 3992.15,3001.05 
				3992.15,2971.06 3811.23,2971.06 			"/>
			<rect x="4145.17" y="2971.06" class="st0" width="34.93" height="277.87"/>
			<path class="st0" d="M4426.44,2967.26c-29.39,0-52.27,10.52-68.69,31.59c-16.42,21.05-24.63,50.14-24.63,87.29v52.3
				c0.63,36.39,9.26,64.54,25.88,84.45c16.58,19.9,39.2,29.84,67.82,29.84c29.78,0,52.75-10.21,68.88-30.71
				c16.15-20.48,24.24-49.67,24.24-87.61v-50.55c-0.37-37.43-8.75-66.19-25.1-86.34
				C4478.51,2977.33,4455.69,2967.26,4426.44,2967.26z M4485.03,3137.87c-0.4,28.35-5.28,49.43-14.71,63.15
				c-9.42,13.75-23.92,20.63-43.5,20.63c-19.6,0-34.32-7.45-44.18-22.35c-9.84-14.87-14.77-36.51-14.77-64.89v-49.8
				c0.12-28.22,5.11-49.59,14.97-64.1c9.84-14.51,24.38-21.76,43.59-21.76c19.85,0,34.57,7.16,44.18,21.47
				c9.61,14.31,14.41,36.17,14.41,65.55V3137.87z"/>
			<polygon class="st0" points="4819.64,2971.06 4819.64,3186.14 4707.99,2971.06 4672.9,2971.06 4672.9,3248.93 4707.99,3248.93 
				4707.99,3034.82 4819.24,3248.93 4854.36,3248.93 4854.36,2971.06 			"/>
		</g>
		<g>
			<path class="st3" d="M1787.29,2480.41l0.99-1.06l850.48-850.48c155.02-155.04,407.25-155.04,562.28,0
				c155.02,155.01,155.02,407.25,0,562.28c-155.02,155.01-407.25,155.01-562.28,0l-289.65,289.65
				c314.73,314.73,826.86,314.75,1141.59,0c108.56-108.57,179.66-240.62,213.32-379.95l472-471.98
				c155.01-155.04,407.25-155.04,562.26,0c155.01,155.01,155.01,407.25,0,562.26c-155.01,155.02-407.25,155.02-562.26,0
				l-289.66,289.66c314.73,314.73,826.86,314.75,1141.58,0c314.76-314.75,314.76-826.86,0-1141.59
				c-314.72-314.73-826.83-314.73-1141.58,0l-233.2,233.19c-38.8-84.52-92.95-163.67-162.45-233.19
				c-314.73-314.73-826.84-314.73-1141.59,0l-866.5,866.49c-155.89,140.29-396.91,135.44-546.89-14.55
				c-155.02-155.02-155.02-407.27,0-562.28c155.01-155.04,407.25-155.04,562.26,0l289.66-289.66
				c-314.75-314.73-826.86-314.73-1141.59,0c-314.73,314.75-314.73,826.84,0,1141.59S1472.55,2795.14,1787.29,2480.41z"/>
		</g>
		<path class="st4" d="M3704.01,2100.86l316.99-316.97c-17.17-151.35-65.14-299.82-144.37-434.96l-223.49,223.49
			C3729.41,1738.57,3746.39,1925.47,3704.01,2100.86z"/>
	</g>
</g>
</svg>
