<?xml version="1.0" encoding="utf-8"?>
<!-- Generator: Adobe Illustrator 23.0.3, SVG Export Plug-In . SVG Version: 6.00 Build 0)  -->
<svg version="1.1" id="Logotype_DPI_-_RVB_-_fond_blanc"
	 xmlns="http://www.w3.org/2000/svg" xmlns:xlink="http://www.w3.org/1999/xlink" x="0px" y="0px" viewBox="0 0 566.93 566.93"
	 style="enable-background:new 0 0 566.93 566.93;" xml:space="preserve">
<style type="text/css">
	.st0{fill:#FFFFFF;}
	.st1{fill:#007ED4;}
	.st2{fill:#FF812B;}
</style>
<g>
	<rect x="0" y="0" class="st0" width="566.93" height="566.93"/>
	<g>
		<path class="st1" d="M419.72,92.15c-27.48-27.48-72.2-27.48-99.68,0L208.59,203.6h50.58l86.15-86.15
			c13.54-13.54,35.56-13.54,49.1,0c13.54,13.54,13.54,35.56,0,49.1c-13.54,13.54-35.56,13.54-49.1,0l-25.29,25.29
			c27.48,27.48,72.2,27.48,99.68,0C447.2,164.35,447.2,119.63,419.72,92.15z M252.7,80.39l-86.15,86.15
			c-13.54,13.54-35.56,13.54-49.1,0c-13.54-13.54-13.54-35.56,0-49.1s35.56-13.54,49.1,0l25.29-25.29
			c-27.48-27.48-72.2-27.48-99.68,0c-27.48,27.48-27.48,72.2,0,99.68c27.48,27.48,72.2,27.48,99.68,0L303.28,80.39H252.7z"/>
		<path d="M151.02,294.41c-5.05,0.05-9.03,1.33-11.93,3.85c-2.9,2.51-4.35,5.91-4.35,10.19c0,3.89,1.07,6.9,3.21,9.04
			c2.14,2.14,5.11,3.21,8.92,3.21c3.78,0,6.89-1.79,9.33-5.36c0.18,2.15,0.48,3.68,0.89,4.59h7.15v-0.62
			c-0.86-2.38-1.3-5.2-1.32-8.44v-21.23c-0.05-4.09-1.2-7.21-3.44-9.35c-2.24-2.14-5.51-3.21-9.82-3.21c-2.64,0-5.04,0.56-7.19,1.67
			c-2.15,1.11-3.86,2.65-5.13,4.61c-1.27,1.96-1.9,4.01-1.9,6.16h6.88c0-1.89,0.65-3.45,1.94-4.68c1.3-1.23,2.98-1.85,5.05-1.85
			c2.28,0,3.98,0.53,5.09,1.59c1.11,1.06,1.67,2.85,1.67,5.37v4.47H151.02z M156.08,309.53c-0.7,1.4-1.81,2.57-3.34,3.5
			c-1.53,0.93-3.14,1.4-4.82,1.4c-2.28,0-3.9-0.54-4.86-1.61c-0.96-1.08-1.44-2.81-1.44-5.19c0-2.54,0.95-4.52,2.84-5.93
			c1.89-1.41,4.47-2.14,7.74-2.2h3.89V309.53z M482.39,450.33c-3.17-1.38-5.17-2.48-6-3.33c-0.83-0.84-1.25-1.95-1.25-3.33
			c0-1.73,0.57-3.12,1.71-4.15c1.14-1.03,2.7-1.55,4.7-1.55c1.94,0,3.54,0.66,4.79,1.98c1.25,1.32,1.88,2.91,1.88,4.77h6.75
			c0-3.68-1.23-6.7-3.68-9.05c-2.45-2.35-5.7-3.53-9.74-3.53c-3.83,0-6.99,1.12-9.45,3.36c-2.47,2.24-3.7,5.04-3.7,8.42
			c0,1.89,0.37,3.52,1.11,4.89c0.74,1.37,1.86,2.59,3.36,3.66c1.5,1.07,4.07,2.36,7.73,3.87c3.14,1.41,5.27,2.63,6.37,3.68
			c1.1,1.05,1.65,2.3,1.65,3.76c0,1.71-0.59,3.07-1.76,4.08c-1.18,1.01-2.89,1.51-5.14,1.51c-2.4,0-4.27-0.65-5.6-1.96
			c-1.33-1.3-2.03-3.11-2.11-5.41h-6.83c0,3.81,1.34,6.95,4.03,9.43c2.68,2.48,6.19,3.72,10.51,3.72c4.17,0,7.49-1.08,9.97-3.25
			c2.48-2.16,3.72-5.05,3.72-8.66c0-2.89-0.91-5.28-2.72-7.16C490.85,454.23,487.43,452.3,482.39,450.33z M106.76,432.15
			c-4.09,0-7.45,1.75-10.09,5.25l-0.19-4.49h-6.4v41.49h6.79v-30.14c0.82-1.81,1.9-3.28,3.24-4.41c1.34-1.12,2.86-1.69,4.54-1.69
			c2.17,0,3.8,0.68,4.89,2.05c1.09,1.37,1.63,3.68,1.63,6.92v27.26h6.75v-27.57C117.82,437.05,114.1,432.15,106.76,432.15z
			 M129,366.71c1.38-3.81,3.81-5.71,7.29-5.71c1.1,0,2.12,0.09,3.07,0.27l-0.04-6.6c-0.72-0.36-1.61-0.54-2.68-0.54
			c-3.32,0-5.89,1.66-7.71,4.98l-0.11-4.22h-6.6v41.49H129V366.71z M134.27,418.25c-2.06,2.36-3.13,5.66-3.2,9.87v4.79h-5.41v5.48
			h5.41v36.01h6.79V438.4h7.09v-5.48h-7.09V429c0-5.51,1.93-8.27,5.79-8.27c1.1,0,2.13,0.12,3.11,0.35l0.35-5.72
			c-1.38-0.43-2.75-0.65-4.1-0.65C139.24,414.71,136.33,415.89,134.27,418.25z M486.84,389.85c-1.18,1.01-2.89,1.51-5.14,1.51
			c-2.4,0-4.27-0.65-5.6-1.96c-1.33-1.3-2.03-3.11-2.11-5.41h-6.83c0,3.81,1.34,6.95,4.03,9.43c2.68,2.48,6.19,3.72,10.51,3.72
			c4.17,0,7.49-1.08,9.97-3.25c2.48-2.16,3.72-5.05,3.72-8.66c0-2.89-0.91-5.28-2.72-7.16c-1.82-1.88-5.24-3.81-10.28-5.78
			c-3.17-1.38-5.17-2.48-6-3.33c-0.83-0.84-1.25-1.95-1.25-3.33c0-1.73,0.57-3.12,1.71-4.15c1.14-1.03,2.7-1.55,4.7-1.55
			c1.94,0,3.54,0.66,4.79,1.98c1.25,1.32,1.88,2.91,1.88,4.77h6.75c0-3.68-1.23-6.7-3.68-9.05c-2.45-2.35-5.7-3.53-9.74-3.53
			c-3.83,0-6.99,1.12-9.45,3.36c-2.47,2.24-3.7,5.04-3.7,8.42c0,1.89,0.37,3.52,1.11,4.89c0.74,1.37,1.86,2.59,3.36,3.66
			s4.07,2.36,7.73,3.87c3.14,1.41,5.27,2.63,6.37,3.68c1.1,1.05,1.65,2.3,1.65,3.76C488.6,387.48,488.01,388.84,486.84,389.85z
			 M156.01,359.4c-2.7,3.52-4.05,8.37-4.05,14.55v5.02c0.05,5.96,1.46,10.48,4.22,13.56c2.76,3.08,6.72,4.62,11.89,4.62
			c6.03,0,10.52-2.07,13.46-6.21l-3.53-4.29c-1.33,1.64-2.76,2.83-4.28,3.59c-1.52,0.75-3.28,1.13-5.27,1.13
			c-3.14,0-5.55-1.01-7.23-3.03c-1.67-2.02-2.51-5.25-2.51-9.7v-0.96h23.16v-4.45c-0.05-6.54-1.28-11.36-3.68-14.46
			c-2.4-3.09-6.03-4.64-10.89-4.64C162.47,354.13,158.7,355.89,156.01,359.4z M161.05,362.86c1.35-1.93,3.44-2.9,6.25-2.9
			c2.53,0,4.42,0.84,5.66,2.53c1.24,1.69,1.95,4.5,2.13,8.44v0.92h-16.34C158.93,367.78,159.69,364.79,161.05,362.86z
			 M106.01,357.62c0-5.16-1.48-9.3-4.45-12.41c-2.97-3.11-7.04-4.66-12.23-4.66H71.54v55.83h7.02v-21.86h11.27
			c5.14-0.1,9.12-1.6,11.95-4.51C104.6,367.13,106.01,362.99,106.01,357.62z M96.5,365.71c-1.66,1.87-4.05,2.8-7.17,2.8H78.56
			v-21.93h10.81c2.99,0,5.34,1.01,7.06,3.03c1.71,2.02,2.57,4.71,2.57,8.07C99,361.16,98.16,363.84,96.5,365.71z M237.31,360.38
			h6.33v25.77c0,3.5,0.7,6.21,2.11,8.13c1.41,1.92,3.45,2.88,6.14,2.88c1.61,0,3.18-0.25,4.72-0.76l0.08-5.72
			c-0.92,0.31-1.83,0.46-2.72,0.46c-1.3,0-2.22-0.42-2.76-1.27c-0.54-0.85-0.81-2.09-0.81-3.72v-25.76h6.25v-5.48h-6.25v-10.05
			h-6.75v10.05h-6.33V360.38z M367.24,294.41c-5.05,0.05-9.03,1.33-11.93,3.85c-2.9,2.51-4.35,5.91-4.35,10.19
			c0,3.89,1.07,6.9,3.21,9.04c2.14,2.14,5.11,3.21,8.92,3.21c3.78,0,6.89-1.79,9.33-5.36c0.18,2.15,0.48,3.68,0.89,4.59h7.15v-0.62
			c-0.86-2.38-1.3-5.2-1.32-8.44v-21.23c-0.05-4.09-1.2-7.21-3.44-9.35c-2.24-2.14-5.51-3.21-9.82-3.21c-2.64,0-5.04,0.56-7.19,1.67
			c-2.15,1.11-3.86,2.65-5.13,4.61c-1.27,1.96-1.9,4.01-1.9,6.16h6.88c0-1.89,0.65-3.45,1.94-4.68c1.3-1.23,2.98-1.85,5.05-1.85
			c2.28,0,3.98,0.53,5.09,1.59c1.11,1.06,1.67,2.85,1.67,5.37v4.47H367.24z M372.3,309.53c-0.7,1.4-1.81,2.57-3.34,3.5
			c-1.53,0.93-3.14,1.4-4.82,1.4c-2.28,0-3.9-0.54-4.86-1.61c-0.96-1.08-1.44-2.81-1.44-5.19c0-2.54,0.95-4.52,2.84-5.93
			c1.89-1.41,4.47-2.14,7.74-2.2h3.89V309.53z M416.1,289.35c0.83-1.84,1.92-3.33,3.28-4.47c1.36-1.14,2.9-1.71,4.61-1.71
			c2.2,0,3.85,0.69,4.96,2.08c1.1,1.39,1.65,3.73,1.65,7.02v27.64h6.84v-27.95c-0.1-9.93-3.87-14.89-11.31-14.89
			c-4.15,0-7.55,1.78-10.22,5.33l-0.19-4.55h-6.49v42.06h6.88V289.35z M199.88,288.38c1.42-3.47,3.87-5.21,7.35-5.21
			c4.66,0,7.04,2.92,7.11,8.75v27.99h6.92v-28.18c0.21-2.49,0.96-4.54,2.25-6.14c1.3-1.61,2.98-2.41,5.05-2.41
			c2.59,0,4.43,0.75,5.52,2.24c1.09,1.49,1.63,3.76,1.63,6.82v27.68h6.84v-28.34c-0.18-9.67-4.15-14.5-11.9-14.5
			c-4.72,0-8.4,2.04-11.04,6.1c-1.87-4.07-5.14-6.1-9.83-6.1c-4.2,0-7.58,1.56-10.15,4.67l-0.16-3.89h-6.45v42.06h6.84V288.38z
			 M484.08,277.07c-4.15,0-7.55,1.78-10.22,5.33l-0.19-4.55h-6.49v42.06h6.88v-30.55c0.83-1.84,1.92-3.33,3.28-4.47
			c1.36-1.14,2.9-1.71,4.61-1.71c2.2,0,3.85,0.69,4.96,2.08c1.1,1.39,1.65,3.73,1.65,7.02v27.64h6.84v-27.95
			C495.29,282.03,491.52,277.07,484.08,277.07z M71.54,474.41h7.02v-55.83h-7.02V474.41z M100.34,313.79
			c3.71-4.08,5.56-9.87,5.56-17.36v-9.49c0-7.49-1.83-13.3-5.48-17.44c-3.65-4.13-8.79-6.2-15.39-6.2H71.54v56.6h12.67
			C91.26,319.91,96.64,317.87,100.34,313.79z M78.65,269.41h6.38c4.64,0,8.11,1.39,10.4,4.18c2.29,2.79,3.44,7.17,3.44,13.13v10.04
			c-0.05,5.63-1.23,9.88-3.54,12.74c-2.31,2.87-5.96,4.3-10.96,4.3h-5.71V269.41z M327.71,389.87c-0.54-0.85-0.81-2.09-0.81-3.72
			v-25.76h6.25v-5.48h-6.25v-10.05h-6.75v10.05h-6.33v5.48h6.33v25.77c0,3.5,0.7,6.21,2.11,8.13c1.41,1.92,3.45,2.88,6.14,2.88
			c1.61,0,3.18-0.25,4.72-0.76l0.08-5.72c-0.92,0.31-1.83,0.46-2.72,0.46C329.17,391.14,328.25,390.72,327.71,389.87z
			 M322.66,467.89c-0.54-0.85-0.81-2.09-0.81-3.72V438.4h6.25v-5.48h-6.25v-10.05h-6.75v10.05h-6.33v5.48h6.33v25.77
			c0,3.5,0.7,6.21,2.11,8.13c1.41,1.92,3.45,2.88,6.14,2.88c1.61,0,3.18-0.25,4.72-0.76l0.08-5.72c-0.92,0.31-1.83,0.46-2.72,0.46
			C324.11,469.16,323.19,468.74,322.66,467.89z M401.21,391.9c2.91-3.5,4.37-8.26,4.37-14.26v-4.37c-0.08-5.91-1.58-10.57-4.51-14
			c-2.93-3.43-6.79-5.14-11.6-5.14c-4.81,0-8.67,1.76-11.6,5.27c-2.93,3.52-4.39,8.29-4.39,14.32v4.53c0.1,5.8,1.6,10.41,4.51,13.81
			c2.9,3.4,6.76,5.1,11.56,5.1C394.41,397.16,398.3,395.41,401.21,391.9z M398.79,378.41c-0.18,8.64-3.26,12.96-9.24,12.96
			c-2.84,0-5.09-1.22-6.77-3.66c-1.67-2.44-2.51-5.8-2.51-10.07v-3.95c0-4.22,0.84-7.56,2.51-10.03c1.67-2.47,3.9-3.7,6.69-3.7
			c2.84,0,5.1,1.23,6.79,3.7c1.69,2.47,2.53,5.82,2.53,10.07V378.41z M340.14,417.81c-1.28,0-2.24,0.4-2.88,1.19
			c-0.64,0.79-0.96,1.76-0.96,2.91c0,1.15,0.32,2.11,0.96,2.88c0.64,0.77,1.6,1.15,2.88,1.15c1.3,0,2.28-0.38,2.91-1.15
			c0.64-0.77,0.96-1.73,0.96-2.88c0-1.12-0.33-2.09-0.98-2.9C342.38,418.21,341.42,417.81,340.14,417.81z M336.69,474.41h6.79
			v-41.49h-6.79V474.41z M376.11,436.99c-2.22-3.22-5.34-4.83-9.36-4.83c-4.65,0-8.16,1.66-10.51,4.97
			c-2.35,3.31-3.53,8.2-3.53,14.67v4.26c0.05,6.24,1.28,10.99,3.68,14.25c2.4,3.26,5.84,4.89,10.32,4.89c3.89,0,6.93-1.47,9.13-4.41
			v24.62h6.79v-62.47h-6.21L376.11,436.99z M375.84,464.83c-1.74,3.04-4.19,4.56-7.36,4.56c-3.12,0-5.39-1.12-6.83-3.37
			c-1.43-2.25-2.15-5.7-2.15-10.35v-4.14c0.03-4.53,0.75-7.91,2.19-10.16c1.43-2.25,3.71-3.38,6.83-3.38c3.04,0,5.48,1.53,7.32,4.6
			V464.83z M414.42,463.64c-1.56,3.68-4.4,5.52-8.51,5.52c-3.89,0-5.83-3.23-5.83-9.7v-26.54h-6.75v27.04
			c0.03,4.96,1,8.74,2.91,11.33c1.92,2.59,4.75,3.89,8.51,3.89c4.32,0,7.61-1.47,9.86-4.41l0.15,3.64h6.44v-41.49h-6.79V463.64z
			 M445.48,432.15c-4.83,0-8.6,1.76-11.29,5.27c-2.7,3.52-4.05,8.37-4.05,14.55V457c0.05,5.96,1.46,10.48,4.22,13.56
			c2.76,3.08,6.72,4.62,11.89,4.62c6.03,0,10.52-2.07,13.46-6.21l-3.53-4.29c-1.33,1.64-2.76,2.83-4.28,3.59
			c-1.52,0.75-3.28,1.13-5.27,1.13c-3.14,0-5.55-1.01-7.23-3.03c-1.67-2.02-2.51-5.25-2.51-9.7v-0.96h23.16v-4.45
			c-0.05-6.54-1.28-11.36-3.68-14.46C453.97,433.7,450.34,432.15,445.48,432.15z M453.27,449.87h-16.34
			c0.18-4.06,0.95-7.06,2.3-8.99c1.35-1.93,3.44-2.9,6.25-2.9c2.53,0,4.42,0.84,5.66,2.53c1.24,1.69,1.95,4.5,2.13,8.44V449.87z
			 M353.05,347.92c1.3,0,2.28-0.38,2.91-1.15c0.64-0.77,0.96-1.73,0.96-2.88c0-1.12-0.33-2.09-0.98-2.9
			c-0.65-0.81-1.62-1.21-2.9-1.21c-1.28,0-2.24,0.4-2.88,1.19c-0.64,0.79-0.96,1.76-0.96,2.91c0,1.15,0.32,2.11,0.96,2.88
			C350.82,347.54,351.78,347.92,353.05,347.92z M356.39,354.9h-6.79v41.49h6.79V354.9z M206.77,432.15c-3.32,0-5.89,1.66-7.71,4.98
			l-0.11-4.22h-6.6v41.49h6.79v-29.68c1.38-3.81,3.81-5.71,7.29-5.71c1.1,0,2.12,0.09,3.07,0.27l-0.04-6.6
			C208.74,432.33,207.84,432.15,206.77,432.15z M253.4,432.15c-4.65,0-8.28,2.01-10.89,6.02c-1.84-4.01-5.08-6.02-9.7-6.02
			c-4.14,0-7.48,1.53-10.01,4.6l-0.15-3.83h-6.37v41.49h6.75v-31.1c1.41-3.43,3.82-5.14,7.25-5.14c4.6,0,6.94,2.88,7.02,8.63v27.61
			h6.83v-27.8c0.2-2.45,0.95-4.47,2.22-6.06c1.28-1.58,2.94-2.38,4.99-2.38c2.56,0,4.37,0.73,5.45,2.2
			c1.07,1.47,1.61,3.71,1.61,6.73v27.3h6.75v-27.95C264.96,436.92,261.04,432.15,253.4,432.15z M224.81,385.25
			c0-2.89-0.91-5.28-2.72-7.16c-1.82-1.88-5.24-3.81-10.28-5.78c-3.17-1.38-5.17-2.48-6-3.33c-0.83-0.84-1.25-1.95-1.25-3.33
			c0-1.73,0.57-3.12,1.71-4.15c1.14-1.03,2.7-1.55,4.7-1.55c1.94,0,3.54,0.66,4.79,1.98c1.25,1.32,1.88,2.91,1.88,4.77h6.75
			c0-3.68-1.23-6.7-3.68-9.05c-2.45-2.35-5.7-3.53-9.74-3.53c-3.83,0-6.99,1.12-9.45,3.36c-2.47,2.24-3.7,5.04-3.7,8.42
			c0,1.89,0.37,3.52,1.11,4.89c0.74,1.37,1.86,2.59,3.36,3.66s4.07,2.36,7.73,3.87c3.14,1.41,5.27,2.63,6.37,3.68
			c1.1,1.05,1.65,2.3,1.65,3.76c0,1.71-0.59,3.07-1.76,4.08c-1.18,1.01-2.89,1.51-5.14,1.51c-2.4,0-4.27-0.65-5.6-1.96
			c-1.33-1.3-2.03-3.11-2.11-5.41h-6.83c0,3.81,1.34,6.95,4.03,9.43c2.68,2.48,6.19,3.72,10.51,3.72c4.17,0,7.49-1.08,9.97-3.25
			C223.57,391.75,224.81,388.86,224.81,385.25z M167.5,432.15c-4.81,0-8.67,1.76-11.6,5.27c-2.93,3.52-4.39,8.29-4.39,14.32v4.53
			c0.1,5.8,1.6,10.41,4.51,13.81c2.9,3.4,6.76,5.1,11.56,5.1c4.86,0,8.74-1.75,11.66-5.25c2.91-3.5,4.37-8.26,4.37-14.26v-4.37
			c-0.08-5.91-1.58-10.57-4.51-14C176.17,433.87,172.31,432.15,167.5,432.15z M176.82,456.43c-0.18,8.64-3.26,12.96-9.24,12.96
			c-2.84,0-5.09-1.22-6.77-3.66c-1.67-2.44-2.51-5.8-2.51-10.07v-3.95c0-4.22,0.84-7.56,2.51-10.03c1.67-2.47,3.9-3.7,6.69-3.7
			c2.84,0,5.1,1.23,6.79,3.7c1.69,2.47,2.53,5.82,2.53,10.07V456.43z M287.92,371.24c-4.99,0.05-8.91,1.32-11.77,3.8
			c-2.86,2.48-4.3,5.83-4.3,10.05c0,3.83,1.05,6.81,3.16,8.92c2.11,2.11,5.04,3.16,8.8,3.16c3.73,0,6.8-1.76,9.2-5.29
			c0.18,2.12,0.47,3.63,0.88,4.53h7.06v-0.61c-0.84-2.35-1.28-5.12-1.3-8.32v-20.94c-0.05-4.04-1.18-7.11-3.39-9.22
			c-2.21-2.11-5.44-3.16-9.68-3.16c-2.61,0-4.97,0.55-7.09,1.65c-2.12,1.1-3.81,2.61-5.06,4.54c-1.25,1.93-1.88,3.96-1.88,6.08h6.79
			c0-1.87,0.64-3.41,1.92-4.62c1.28-1.21,2.94-1.82,4.99-1.82c2.25,0,3.92,0.52,5.02,1.57c1.1,1.05,1.65,2.81,1.65,5.29v4.41H287.92
			z M292.9,386.15c-0.69,1.38-1.79,2.53-3.3,3.45c-1.51,0.92-3.09,1.38-4.76,1.38c-2.25,0-3.85-0.53-4.79-1.59
			c-0.95-1.06-1.42-2.77-1.42-5.12c0-2.51,0.93-4.45,2.8-5.85c1.87-1.39,4.41-2.12,7.63-2.17h3.83V386.15z M302.45,444.54
			c-0.05-4.04-1.18-7.11-3.39-9.22c-2.21-2.11-5.44-3.16-9.68-3.16c-2.61,0-4.97,0.55-7.09,1.65c-2.12,1.1-3.81,2.61-5.06,4.54
			c-1.25,1.93-1.88,3.96-1.88,6.08h6.79c0-1.87,0.64-3.41,1.92-4.62c1.28-1.21,2.94-1.82,4.99-1.82c2.25,0,3.92,0.52,5.02,1.57
			c1.1,1.05,1.65,2.81,1.65,5.29v4.41h-4.99c-4.99,0.05-8.91,1.32-11.77,3.8c-2.86,2.48-4.3,5.83-4.3,10.05
			c0,3.83,1.05,6.81,3.16,8.92c2.11,2.11,5.04,3.16,8.8,3.16c3.73,0,6.8-1.76,9.2-5.29c0.18,2.12,0.47,3.63,0.88,4.53h7.06v-0.61
			c-0.84-2.35-1.28-5.12-1.3-8.32V444.54z M295.7,464.17c-0.69,1.38-1.79,2.53-3.3,3.45c-1.51,0.92-3.09,1.38-4.75,1.38
			c-2.25,0-3.85-0.53-4.79-1.59c-0.95-1.06-1.42-2.77-1.42-5.12c0-2.51,0.93-4.45,2.8-5.85c1.87-1.39,4.41-2.12,7.63-2.17h3.83
			V464.17z M313.42,285.41c1.09,1.49,1.63,3.76,1.63,6.82v27.68h6.84v-28.34c-0.18-9.67-4.15-14.5-11.9-14.5
			c-4.72,0-8.4,2.04-11.04,6.1c-1.87-4.07-5.14-6.1-9.83-6.1c-4.2,0-7.58,1.56-10.15,4.67l-0.16-3.89h-6.45v42.06h6.84v-31.53
			c1.42-3.47,3.87-5.21,7.35-5.21c4.66,0,7.04,2.92,7.11,8.75v27.99h6.92v-28.18c0.21-2.49,0.96-4.54,2.25-6.14
			c1.3-1.61,2.98-2.41,5.05-2.41C310.49,283.17,312.33,283.92,313.42,285.41z M432.21,361.84c1.34-1.12,2.86-1.69,4.54-1.69
			c2.17,0,3.8,0.68,4.89,2.05c1.09,1.37,1.63,3.68,1.63,6.92v27.26h6.75v-27.57c-0.1-9.79-3.82-14.69-11.16-14.69
			c-4.09,0-7.45,1.75-10.09,5.25l-0.19-4.49h-6.4v41.49h6.79v-30.14C429.78,364.44,430.86,362.97,432.21,361.84z"/>
		<rect x="459.62" y="71.54" class="st2" width="35.77" height="140.91"/>
	</g>
</g>
</svg>
