<?xml version="1.0" encoding="utf-8"?>
<!-- Generator: Adobe Illustrator 23.0.6, SVG Export Plug-In . SVG Version: 6.00 Build 0)  -->
<svg version="1.1" id="Calque_1" xmlns="http://www.w3.org/2000/svg" xmlns:xlink="http://www.w3.org/1999/xlink" x="0px" y="0px"
	 viewBox="0 0 5674 3820" style="enable-background:new 0 0 5674 3820;" xml:space="preserve">
<style type="text/css">
	.st0{fill:#FFFFFF;}
	.st1{fill:#FFC400;}
	.st2{fill:url(#SVGID_1_);}
	.st3{fill:#963AC2;}
	.st4{fill:#642C60;}
</style>
<g>
	<rect class="st0" width="5674" height="3820"/>
	<g>
		<rect x="410" y="410" class="st0" width="4854" height="3000"/>
		<rect x="410" y="410" width="4854" height="600"/>
		<path class="st1" d="M908.17,567.26h-88.53v277.84h34.91V736.34h56.09c25.58-0.52,45.39-7.99,59.45-22.43
			c14.04-14.44,21.07-35.02,21.07-61.74c0-25.69-7.38-46.28-22.12-61.72C954.29,575,934,567.26,908.17,567.26z M943.84,692.43
			c-8.25,9.3-20.16,13.94-35.68,13.94h-53.61V597.22h53.82c14.87,0,26.59,5.04,35.1,15.11c8.5,10.07,12.78,23.45,12.78,40.14
			C956.25,669.8,952.13,683.11,943.84,692.43z M1271.28,686.72h-111.81V567.26h-34.93v277.84h34.93V716.68h111.81v128.42h35.12
			V567.26h-35.12V686.72z M1456.74,845.11h34.91V567.26h-34.91V845.11z M1676.31,567.26h-35.09v277.84h144.07v-29.96h-108.98V567.26
			z M1950.16,716.68h98.25v-29.96h-98.25v-89.5h112.56v-29.96h-147.49v277.84h149.41v-29.96h-114.48V716.68z M2048.42,490.57h-42.74
			l-36.83,56l28.43,0.09L2048.42,490.57z M2265.35,567.26l-89.49,277.84h35.87l21.58-72.7h93.88l21.96,72.7h35.87l-89.69-277.84
			H2265.35z M2242.48,742.45l37.76-126.33l37.98,126.33H2242.48z M2591.45,689.18c-17.55-6.25-30.54-13.32-38.94-21.22
			c-8.39-7.9-12.6-17.71-12.6-29.45c0-14.27,3.89-25.36,11.66-33.25c7.75-7.9,18.7-11.86,32.82-11.86c15.5,0,27.41,4.7,35.68,14.13
			c8.28,9.4,12.39,22.7,12.39,39.88h35.12c0-15.53-3.43-29.77-10.3-42.72c-6.88-12.95-16.68-23.08-29.4-30.34
			c-12.72-7.27-27.22-10.91-43.49-10.91c-23.8,0-43.03,7.13-57.74,21.37c-14.68,14.25-22.02,32.39-22.02,54.4
			c0,12.72,2.56,24.01,7.71,33.88c5.14,9.84,12.92,18.63,23.29,26.32s25.36,15.05,44.93,22.05c19.62,6.99,33.13,14.19,40.66,21.56
			c7.5,7.38,11.24,17.99,11.24,31.88c0,13.6-3.88,24.35-11.64,32.25c-7.74,7.88-19.34,11.82-34.72,11.82
			c-16.54,0-29.59-4.77-39.2-14.31c-9.61-9.55-14.41-22.9-14.41-40.07h-35.12c0,16.54,3.93,31.2,11.75,43.98
			c7.81,12.79,18.57,22.73,32.25,29.77c13.68,7.06,28.59,10.6,44.74,10.6c25.2,0,45.1-6.76,59.72-20.32
			c14.63-13.54,21.96-31.58,21.96-54.1c0-21.37-5.88-38.67-17.64-51.91C2638.34,709.36,2618.78,698.23,2591.45,689.18z
			 M3023.02,612.98c9.28-13.04,23.92-19.57,43.89-19.57c16.67,0,29.11,4.86,37.32,14.6c8.21,9.73,13.01,23.24,14.41,40.54h34.91
			c-1.52-27.34-9.77-48.37-24.71-63.06c-14.96-14.69-35.65-22.05-62.1-22.05c-31.04,0-54.37,9.71-69.93,29.11
			c-15.59,19.41-23.37,48.56-23.37,87.5v54.57c0.35,36.39,9.11,64.54,26.22,84.45c17.12,19.91,40.68,29.86,70.71,29.86
			c33.82,0,59.52-10.24,77.09-30.73l6.1-7.63V706.75h-85.68v29.98h50.77v63.81l-5.17,4.75c-9.77,9.12-24.08,13.68-42.93,13.68
			c-19.97,0-35.28-7.47-45.97-22.43c-10.68-14.94-16.05-36.4-16.05-64.39v-56.68C3008.9,646.84,3013.73,626.02,3023.02,612.98z
			 M3333.86,716.68h98.25v-29.96h-98.25v-89.5h112.58v-29.96h-147.49v277.84h149.39v-29.96h-114.48V716.68z M3661.66,689.18
			c-17.55-6.25-30.54-13.32-38.95-21.22c-8.37-7.9-12.59-17.71-12.59-29.45c0-14.27,3.89-25.36,11.66-33.25
			c7.75-7.9,18.7-11.86,32.82-11.86c15.5,0,27.41,4.7,35.68,14.13c8.28,9.4,12.39,22.7,12.39,39.88h35.12
			c0-15.53-3.43-29.77-10.3-42.72c-6.88-12.95-16.68-23.08-29.4-30.34c-12.72-7.27-27.22-10.91-43.49-10.91
			c-23.8,0-43.03,7.13-57.74,21.37c-14.68,14.25-22.03,32.39-22.03,54.4c0,12.72,2.58,24.01,7.72,33.88
			c5.14,9.84,12.91,18.63,23.29,26.32c10.36,7.69,25.36,15.05,44.93,22.05c19.62,6.99,33.13,14.19,40.66,21.56
			c7.49,7.38,11.24,17.99,11.24,31.88c0,13.6-3.88,24.35-11.64,32.25c-7.74,7.88-19.34,11.82-34.72,11.82
			c-16.54,0-29.61-4.77-39.2-14.31c-9.61-9.55-14.41-22.9-14.41-40.07h-35.12c0,16.54,3.92,31.2,11.75,43.98
			c7.81,12.79,18.57,22.73,32.25,29.77c13.68,7.06,28.59,10.6,44.74,10.6c25.19,0,45.08-6.76,59.72-20.32
			c14.63-13.54,21.96-31.58,21.96-54.1c0-21.37-5.88-38.67-17.64-51.91C3708.56,709.36,3689,698.23,3661.66,689.18z M3853.6,597.22
			h72.89v247.88h34.93V597.22h73.1v-29.96H3853.6V597.22z M4165.37,845.11h34.91V567.26h-34.91V845.11z M4437.09,563.44
			c-29.39,0-52.27,10.54-68.69,31.6c-16.42,21.05-24.63,50.14-24.63,87.29v52.29c0.63,36.39,9.26,64.54,25.88,84.45
			c16.58,19.91,39.2,29.86,67.82,29.86c29.77,0,52.73-10.24,68.88-30.73c16.15-20.49,24.23-49.67,24.23-87.58v-50.56
			c-0.35-37.4-8.74-66.19-25.08-86.35C4489.15,573.54,4466.34,563.44,4437.09,563.44z M4495.67,734.04
			c-0.4,28.37-5.26,49.41-14.69,63.16c-9.42,13.74-23.92,20.62-43.5,20.62c-19.6,0-34.34-7.46-44.18-22.33
			c-9.84-14.88-14.77-36.52-14.77-64.89V680.8c0.12-28.24,5.11-49.61,14.96-64.11c9.86-14.5,24.39-21.75,43.61-21.75
			c19.84,0,34.57,7.16,44.17,21.47c9.61,14.31,14.41,36.15,14.41,65.55V734.04z M4819.64,567.26v215.06L4708,567.26h-35.09v277.84
			H4708V631l111.25,214.11h35.1V567.26H4819.64z"/>
		<linearGradient id="SVGID_1_" gradientUnits="userSpaceOnUse" x1="2154.4839" y1="429.3721" x2="4558.2729" y2="918.406">
			<stop  offset="0" style="stop-color:#FFFFFF"/>
			<stop  offset="1" style="stop-color:#FFC400"/>
		</linearGradient>
		<path class="st2" d="M2265.36,567.26l-89.49,277.85h35.87l21.56-72.7h93.88l21.96,72.7h35.87l-89.69-277.85H2265.36z
			 M2242.47,742.44l37.76-126.32l37.98,126.32H2242.47z M2591.44,689.18c-17.54-6.25-30.53-13.32-38.94-21.22
			c-8.38-7.9-12.59-17.72-12.59-29.44c0-14.27,3.9-25.36,11.66-33.26c7.74-7.9,18.7-11.86,32.81-11.86
			c15.51,0,27.42,4.7,35.68,14.13c8.28,9.41,12.4,22.7,12.4,39.88h35.11c0-15.53-3.43-29.76-10.29-42.72
			c-6.88-12.95-16.69-23.07-29.41-30.34c-12.72-7.27-27.22-10.91-43.5-10.91c-23.79,0-43.03,7.13-57.73,21.37
			c-14.68,14.25-22.03,32.39-22.03,54.39c0,12.72,2.57,24.01,7.72,33.88c5.15,9.85,12.91,18.64,23.28,26.33
			c10.37,7.69,25.36,15.04,44.94,22.04c19.6,7,33.13,14.19,40.65,21.56c7.5,7.38,11.25,18,11.25,31.87
			c0,13.61-3.87,24.36-11.64,32.25c-7.74,7.89-19.33,11.82-34.72,11.82c-16.54,0-29.6-4.77-39.21-14.31
			c-9.61-9.54-14.41-22.9-14.41-40.06h-35.11c0,16.53,3.92,31.19,11.74,43.97c7.82,12.79,18.57,22.71,32.25,29.77
			c13.67,7.06,28.6,10.59,44.74,10.59c25.19,0,45.09-6.76,59.72-20.31c14.63-13.55,21.96-31.59,21.96-54.11
			c0-21.37-5.88-38.67-17.64-51.9C2638.34,709.36,2618.79,698.23,2591.44,689.18z M3023.01,612.97
			c9.29-13.05,23.92-19.57,43.89-19.57c16.66,0,29.11,4.87,37.32,14.6c8.21,9.73,13.01,23.24,14.41,40.55h34.92
			c-1.52-27.35-9.78-48.38-24.73-63.07c-14.95-14.69-35.65-22.04-62.09-22.04c-31.05,0-54.38,9.7-69.94,29.1
			c-15.58,19.41-23.38,48.57-23.38,87.5v54.57c0.37,36.39,9.12,64.53,26.22,84.44c17.13,19.91,40.68,29.86,70.72,29.86
			c33.82,0,59.52-10.23,77.09-30.72l6.1-7.63V706.76h-85.69v29.97h50.77v63.82l-5.17,4.74c-9.78,9.12-24.09,13.67-42.93,13.67
			c-19.97,0-35.29-7.47-45.97-22.42c-10.68-14.94-16.05-36.41-16.05-64.4v-56.68C3008.9,646.84,3013.73,626.01,3023.01,612.97z
			 M3333.86,716.68h98.26v-29.96h-98.26v-89.49h112.57v-29.97h-147.49v277.85h149.4v-29.96h-114.49V716.68z M3661.65,689.18
			c-17.54-6.25-30.53-13.32-38.94-21.22c-8.38-7.9-12.6-17.72-12.6-29.44c0-14.27,3.9-25.36,11.66-33.26
			c7.74-7.9,18.7-11.86,32.81-11.86c15.51,0,27.42,4.7,35.68,14.13c8.28,9.41,12.4,22.7,12.4,39.88h35.12
			c0-15.53-3.43-29.76-10.29-42.72c-6.89-12.95-16.69-23.07-29.4-30.34c-12.72-7.27-27.23-10.91-43.5-10.91
			c-23.8,0-43.03,7.13-57.73,21.37c-14.68,14.25-22.03,32.39-22.03,54.39c0,12.72,2.57,24.01,7.72,33.88
			c5.15,9.85,12.91,18.64,23.28,26.33c10.36,7.69,25.36,15.04,44.94,22.04c19.6,7,33.13,14.19,40.65,21.56
			c7.5,7.38,11.25,18,11.25,31.87c0,13.61-3.87,24.36-11.64,32.25c-7.74,7.89-19.34,11.82-34.72,11.82
			c-16.54,0-29.6-4.77-39.21-14.31c-9.6-9.54-14.41-22.9-14.41-40.06h-35.12c0,16.53,3.92,31.19,11.74,43.97
			c7.82,12.79,18.57,22.71,32.25,29.77c13.67,7.06,28.6,10.59,44.75,10.59c25.19,0,45.09-6.76,59.72-20.31
			c14.63-13.55,21.96-31.59,21.96-54.11c0-21.37-5.88-38.67-17.64-51.9C3708.56,709.36,3689,698.23,3661.65,689.18z M3853.6,597.23
			h72.9v247.88h34.92V597.23h73.1v-29.97H3853.6V597.23z M4165.37,845.11h34.92V567.26h-34.92V845.11z M4437.08,563.45
			c-29.38,0-52.27,10.53-68.69,31.59c-16.42,21.05-24.63,50.15-24.63,87.3v52.28c0.64,36.39,9.26,64.53,25.88,84.44
			c16.59,19.91,39.21,29.86,67.83,29.86c29.77,0,52.73-10.23,68.88-30.72s24.23-49.67,24.23-87.59v-50.56
			c-0.37-37.41-8.75-66.19-25.09-86.34C4489.15,573.54,4466.34,563.45,4437.08,563.45z M4495.67,734.05
			c-0.39,28.37-5.27,49.41-14.7,63.16c-9.41,13.74-23.92,20.61-43.5,20.61c-19.6,0-34.33-7.45-44.18-22.32
			c-9.85-14.88-14.78-36.51-14.78-64.89V680.8c0.12-28.24,5.12-49.61,14.97-64.12c9.85-14.49,24.38-21.75,43.59-21.75
			c19.85,0,34.58,7.16,44.18,21.47c9.6,14.31,14.41,36.15,14.41,65.55V734.05z M4819.65,567.26v215.07L4708,567.26h-35.09v277.85
			H4708V631l111.25,214.11h35.11V567.26H4819.65z"/>
		<g>
			<rect x="410" y="2810" class="st3" width="4854" height="600"/>
			<path class="st3" d="M4854.37,1103.15v503.34c-39.35-97.34-98.4-188.51-177.2-267.29c-314.73-314.73-826.83-314.73-1141.58,0
				l-698.6,698.58l-698.58-698.58c-314.75-314.73-826.84-314.73-1141.58,0c-78.8,78.79-137.85,169.95-177.2,267.29v-503.34H410
				v1613.69h409.63v-503.36c39.35,97.34,98.4,188.51,177.2,267.31c314.73,314.75,826.84,314.73,1141.58,0l-289.65-289.65
				c-155.02,155.01-407.25,155.01-562.28,0c-155.01-155.02-155.01-407.27,0-562.28c155.02-155.04,407.25-155.04,562.28,0
				l698.58,698.58l-289.65,289.65h1158.61l-289.65-289.65l698.58-698.58c155.02-155.04,407.25-155.04,562.28,0
				c155.01,155.01,155.01,407.25,0,562.28c-155.02,155.01-407.25,155.01-562.28,0l-289.65,289.65
				c314.73,314.73,826.84,314.75,1141.58,0c78.8-78.8,137.85-169.97,177.2-267.31v503.36H5264V1103.15H4854.37z"/>
		</g>
		<g>
			<polygon class="st4" points="2257.69,2617.1 2837,2617.1 2547.34,2327.44 			"/>
			
				<rect x="2928.12" y="1848.11" transform="matrix(0.7071 -0.7071 0.7071 0.7071 -540.3015 2801.4568)" class="st4" width="366.79" height="409.64"/>
		</g>
		<g>
			<polygon class="st0" points="937.18,3197.78 864.64,2971.07 819.64,2971.07 819.64,3248.92 854.55,3248.92 854.55,3140.72 
				851.29,3033.1 923.62,3248.92 950.34,3248.92 1023.04,3032.34 1019.79,3140.72 1019.79,3248.92 1054.73,3248.92 1054.73,2971.07 
				1009.69,2971.07 			"/>
			<path class="st0" d="M1380.16,2971.07l-89.5,277.84h35.89l21.56-72.7h93.88l21.96,72.7h35.87l-89.69-277.84H1380.16z
				 M1357.27,3146.26l37.76-126.32l37.98,126.32H1357.27z"/>
			<polygon class="st0" points="1882.47,3186.14 1770.82,2971.07 1735.75,2971.07 1735.75,3248.92 1770.82,3248.92 1770.82,3034.81 
				1882.08,3248.92 1917.2,3248.92 1917.2,2971.07 1882.47,2971.07 			"/>
			<path class="st0" d="M2242.62,2971.07l-89.49,277.84H2189l21.58-72.7h93.86l21.96,72.7h35.87l-89.69-277.84H2242.62z
				 M2219.73,3146.26l37.77-126.32l37.96,126.32H2219.73z"/>
			<path class="st0" d="M2647.81,3016.79c9.28-13.05,23.9-19.57,43.89-19.57c16.65,0,29.12,4.87,37.31,14.6
				c8.22,9.73,13.01,23.24,14.41,40.54h34.93c-1.53-27.35-9.79-48.37-24.73-63.06c-14.94-14.69-35.65-22.04-62.1-22.04
				c-31.04,0-54.37,9.7-69.93,29.1c-15.59,19.41-23.39,48.57-23.39,87.49v54.57c0.37,36.39,9.12,64.53,26.23,84.44
				c17.13,19.91,40.68,29.86,70.71,29.86c33.82,0,59.52-10.23,77.09-30.72l6.12-7.63v-103.81h-85.7v29.97h50.77v63.82l-5.17,4.74
				c-9.79,9.11-24.08,13.67-42.93,13.67c-19.97,0-35.28-7.48-45.97-22.42c-10.68-14.95-16.05-36.41-16.05-64.4v-56.68
				C2633.69,3050.65,2638.53,3029.82,2647.81,3016.79z"/>
			<polygon class="st0" points="3049.22,3120.49 3147.47,3120.49 3147.47,3090.53 3049.22,3090.53 3049.22,3001.04 3161.78,3001.04 
				3161.78,2971.07 3014.29,2971.07 3014.29,3248.92 3163.7,3248.92 3163.7,3218.96 3049.22,3218.96 			"/>
			<polygon class="st0" points="3517.18,3197.78 3444.64,2971.07 3399.63,2971.07 3399.63,3248.92 3434.54,3248.92 3434.54,3140.72 
				3431.3,3033.1 3503.63,3248.92 3530.34,3248.92 3603.04,3032.34 3599.76,3140.72 3599.76,3248.92 3634.72,3248.92 
				3634.72,2971.07 3589.68,2971.07 			"/>
			<polygon class="st0" points="3905.57,3120.49 4003.84,3120.49 4003.84,3090.53 3905.57,3090.53 3905.57,3001.04 4018.15,3001.04 
				4018.15,2971.07 3870.66,2971.07 3870.66,3248.92 4020.06,3248.92 4020.06,3218.96 3905.57,3218.96 			"/>
			<polygon class="st0" points="4402.74,3186.14 4291.09,2971.07 4256,2971.07 4256,3248.92 4291.09,3248.92 4291.09,3034.81 
				4402.34,3248.92 4437.46,3248.92 4437.46,2971.07 4402.74,2971.07 			"/>
			<polygon class="st0" points="4673.43,2971.07 4673.43,3001.04 4746.34,3001.04 4746.34,3248.92 4781.25,3248.92 4781.25,3001.04 
				4854.36,3001.04 4854.36,2971.07 			"/>
		</g>
	</g>
</g>
</svg>
