<?xml version="1.0" encoding="utf-8"?>
<!-- Generator: Adobe Illustrator 23.0.6, SVG Export Plug-In . SVG Version: 6.00 Build 0)  -->
<svg version="1.1" id="Calque_1" xmlns="http://www.w3.org/2000/svg" xmlns:xlink="http://www.w3.org/1999/xlink" x="0px" y="0px"
	 viewBox="0 0 5674 3820" style="enable-background:new 0 0 5674 3820;" xml:space="preserve">
<style type="text/css">
	.st0{fill:#FFFFFF;}
	.st1{fill:#FF8E06;}
	.st2{fill:#FFC400;}
	.st3{fill:url(#SVGID_1_);}
	.st4{fill:#C26406;}
</style>
<g>
	<rect class="st0" width="5674" height="3820"/>
	<rect x="410" y="410" width="4854" height="600"/>
	<g>
		<path class="st1" d="M1787.64,2480.79l1277.9-1277.9h-579.31l-988.23,988.23c-155.02,155.02-407.25,155.02-562.28,0
			c-155.01-155.01-155.01-407.25,0-562.28c155.02-155.01,407.25-155.01,562.28,0l289.65-289.65
			c-314.73-314.73-826.84-314.75-1141.58,0c-314.75,314.75-314.75,826.84,0,1141.59C960.79,2795.52,1472.89,2795.52,1787.64,2480.79
			z"/>
		<path class="st1" d="M3187.78,2617.1l988.23-988.23c155.02-155.04,407.25-155.04,562.28,0c155.01,155.01,155.01,407.25,0,562.26
			c-155.02,155.02-407.25,155.02-562.28,0l-289.65,289.66c314.73,314.73,826.84,314.75,1141.58,0
			c314.75-314.75,314.75-826.84,0-1141.59c-314.73-314.73-826.83-314.73-1141.58,0l-1277.9,1277.9H3187.78z"/>
		<rect x="410" y="2810" class="st1" width="4854" height="600"/>
	</g>
	<path class="st2" d="M908.17,567.26h-88.53v277.84h34.91V736.34h56.09c25.58-0.52,45.39-7.99,59.45-22.43
		c14.04-14.44,21.07-35.02,21.07-61.74c0-25.69-7.38-46.28-22.12-61.72C954.29,575,934,567.26,908.17,567.26z M943.84,692.43
		c-8.25,9.3-20.16,13.94-35.68,13.94h-53.61V597.22h53.82c14.87,0,26.59,5.04,35.1,15.11c8.5,10.07,12.78,23.45,12.78,40.14
		C956.25,669.8,952.13,683.11,943.84,692.43z M1271.28,686.72h-111.81V567.26h-34.93v277.84h34.93V716.68h111.81v128.42h35.12
		V567.26h-35.12V686.72z M1456.74,845.11h34.91V567.26h-34.91V845.11z M1676.31,567.26h-35.09v277.84h144.07v-29.96h-108.98V567.26z
		 M1950.16,716.68h98.25v-29.96h-98.25v-89.5h112.56v-29.96h-147.49v277.84h149.41v-29.96h-114.48V716.68z M2048.42,490.57h-42.74
		l-36.83,56l28.43,0.09L2048.42,490.57z M2265.35,567.26l-89.49,277.84h35.87l21.58-72.7h93.88l21.96,72.7h35.87l-89.69-277.84
		H2265.35z M2242.48,742.45l37.76-126.33l37.98,126.33H2242.48z M2591.45,689.18c-17.55-6.25-30.54-13.32-38.94-21.22
		c-8.39-7.9-12.6-17.71-12.6-29.45c0-14.27,3.89-25.36,11.66-33.25c7.75-7.9,18.7-11.86,32.82-11.86c15.5,0,27.41,4.7,35.68,14.13
		c8.28,9.4,12.39,22.7,12.39,39.88h35.12c0-15.53-3.43-29.77-10.3-42.72c-6.88-12.95-16.68-23.08-29.4-30.34
		c-12.72-7.27-27.22-10.91-43.49-10.91c-23.8,0-43.03,7.13-57.74,21.37c-14.68,14.25-22.02,32.39-22.02,54.4
		c0,12.72,2.56,24.01,7.71,33.88c5.14,9.84,12.92,18.63,23.29,26.32s25.36,15.05,44.93,22.05c19.62,6.99,33.13,14.19,40.66,21.56
		c7.5,7.38,11.24,17.99,11.24,31.88c0,13.6-3.88,24.35-11.64,32.25c-7.74,7.88-19.34,11.82-34.72,11.82
		c-16.54,0-29.59-4.77-39.2-14.31c-9.61-9.55-14.41-22.9-14.41-40.07h-35.12c0,16.54,3.93,31.2,11.75,43.98
		c7.81,12.79,18.57,22.73,32.25,29.77c13.68,7.06,28.59,10.6,44.74,10.6c25.2,0,45.1-6.76,59.72-20.32
		c14.63-13.54,21.96-31.58,21.96-54.1c0-21.37-5.88-38.67-17.64-51.91C2638.34,709.36,2618.78,698.23,2591.45,689.18z
		 M3023.02,612.98c9.28-13.04,23.92-19.57,43.89-19.57c16.67,0,29.11,4.86,37.32,14.6c8.21,9.73,13.01,23.24,14.41,40.54h34.91
		c-1.52-27.34-9.77-48.37-24.71-63.06c-14.96-14.69-35.65-22.05-62.1-22.05c-31.04,0-54.37,9.71-69.93,29.11
		c-15.59,19.41-23.37,48.56-23.37,87.5v54.57c0.35,36.39,9.11,64.54,26.22,84.45c17.12,19.91,40.68,29.86,70.71,29.86
		c33.82,0,59.52-10.24,77.09-30.73l6.1-7.63V706.75h-85.68v29.98h50.77v63.81l-5.17,4.75c-9.77,9.12-24.08,13.68-42.93,13.68
		c-19.97,0-35.28-7.47-45.97-22.43c-10.68-14.94-16.05-36.4-16.05-64.39v-56.68C3008.9,646.84,3013.73,626.02,3023.02,612.98z
		 M3333.86,716.68h98.25v-29.96h-98.25v-89.5h112.58v-29.96h-147.49v277.84h149.39v-29.96h-114.48V716.68z M3661.66,689.18
		c-17.55-6.25-30.54-13.32-38.95-21.22c-8.37-7.9-12.59-17.71-12.59-29.45c0-14.27,3.89-25.36,11.66-33.25
		c7.75-7.9,18.7-11.86,32.82-11.86c15.5,0,27.41,4.7,35.68,14.13c8.28,9.4,12.39,22.7,12.39,39.88h35.12
		c0-15.53-3.43-29.77-10.3-42.72c-6.88-12.95-16.68-23.08-29.4-30.34c-12.72-7.27-27.22-10.91-43.49-10.91
		c-23.8,0-43.03,7.13-57.74,21.37c-14.68,14.25-22.03,32.39-22.03,54.4c0,12.72,2.58,24.01,7.72,33.88
		c5.14,9.84,12.91,18.63,23.29,26.32c10.36,7.69,25.36,15.05,44.93,22.05c19.62,6.99,33.13,14.19,40.66,21.56
		c7.49,7.38,11.24,17.99,11.24,31.88c0,13.6-3.88,24.35-11.64,32.25c-7.74,7.88-19.34,11.82-34.72,11.82
		c-16.54,0-29.61-4.77-39.2-14.31c-9.61-9.55-14.41-22.9-14.41-40.07h-35.12c0,16.54,3.92,31.2,11.75,43.98
		c7.81,12.79,18.57,22.73,32.25,29.77c13.68,7.06,28.59,10.6,44.74,10.6c25.19,0,45.08-6.76,59.72-20.32
		c14.63-13.54,21.96-31.58,21.96-54.1c0-21.37-5.88-38.67-17.64-51.91C3708.56,709.36,3689,698.23,3661.66,689.18z M3853.6,597.22
		h72.89v247.88h34.93V597.22h73.1v-29.96H3853.6V597.22z M4165.37,845.11h34.91V567.26h-34.91V845.11z M4437.09,563.44
		c-29.39,0-52.27,10.54-68.69,31.6c-16.42,21.05-24.63,50.14-24.63,87.29v52.29c0.63,36.39,9.26,64.54,25.88,84.45
		c16.58,19.91,39.2,29.86,67.82,29.86c29.77,0,52.73-10.24,68.88-30.73c16.15-20.49,24.23-49.67,24.23-87.58v-50.56
		c-0.35-37.4-8.74-66.19-25.08-86.35C4489.15,573.54,4466.34,563.44,4437.09,563.44z M4495.67,734.04
		c-0.4,28.37-5.26,49.41-14.69,63.16c-9.42,13.74-23.92,20.62-43.5,20.62c-19.6,0-34.34-7.46-44.18-22.33
		c-9.84-14.88-14.77-36.52-14.77-64.89V680.8c0.12-28.24,5.11-49.61,14.96-64.11c9.86-14.5,24.39-21.75,43.61-21.75
		c19.84,0,34.57,7.16,44.17,21.47c9.61,14.31,14.41,36.15,14.41,65.55V734.04z M4819.64,567.26v215.06L4708,567.26h-35.09v277.84
		H4708V631l111.25,214.11h35.1V567.26H4819.64z"/>
	<linearGradient id="SVGID_1_" gradientUnits="userSpaceOnUse" x1="2154.4839" y1="429.3721" x2="4558.2729" y2="918.406">
		<stop  offset="0" style="stop-color:#FFFFFF"/>
		<stop  offset="1" style="stop-color:#FFC400"/>
	</linearGradient>
	<path class="st3" d="M2265.36,567.26l-89.49,277.85h35.87l21.56-72.7h93.88l21.96,72.7h35.87l-89.69-277.85H2265.36z
		 M2242.47,742.44l37.76-126.32l37.98,126.32H2242.47z M2591.44,689.18c-17.54-6.25-30.53-13.32-38.94-21.22
		c-8.38-7.9-12.59-17.72-12.59-29.44c0-14.27,3.9-25.36,11.66-33.26c7.74-7.9,18.7-11.86,32.81-11.86c15.51,0,27.42,4.7,35.68,14.13
		c8.28,9.41,12.4,22.7,12.4,39.88h35.11c0-15.53-3.43-29.76-10.29-42.72c-6.88-12.95-16.69-23.07-29.41-30.34
		c-12.72-7.27-27.22-10.91-43.5-10.91c-23.79,0-43.03,7.13-57.73,21.37c-14.68,14.25-22.03,32.39-22.03,54.39
		c0,12.72,2.57,24.01,7.72,33.88c5.15,9.85,12.91,18.64,23.28,26.33c10.37,7.69,25.36,15.04,44.94,22.04
		c19.6,7,33.13,14.19,40.65,21.56c7.5,7.38,11.25,18,11.25,31.87c0,13.61-3.87,24.36-11.64,32.25
		c-7.74,7.89-19.33,11.82-34.72,11.82c-16.54,0-29.6-4.77-39.21-14.31c-9.61-9.54-14.41-22.9-14.41-40.06h-35.11
		c0,16.53,3.92,31.19,11.74,43.97c7.82,12.79,18.57,22.71,32.25,29.77c13.67,7.06,28.6,10.59,44.74,10.59
		c25.19,0,45.09-6.76,59.72-20.31c14.63-13.55,21.96-31.59,21.96-54.11c0-21.37-5.88-38.67-17.64-51.9
		C2638.34,709.36,2618.79,698.23,2591.44,689.18z M3023.01,612.97c9.29-13.05,23.92-19.57,43.89-19.57
		c16.66,0,29.11,4.87,37.32,14.6c8.21,9.73,13.01,23.24,14.41,40.55h34.92c-1.52-27.35-9.78-48.38-24.73-63.07
		c-14.95-14.69-35.65-22.04-62.09-22.04c-31.05,0-54.38,9.7-69.94,29.1c-15.58,19.41-23.38,48.57-23.38,87.5v54.57
		c0.37,36.39,9.12,64.53,26.22,84.44c17.13,19.91,40.68,29.86,70.72,29.86c33.82,0,59.52-10.23,77.09-30.72l6.1-7.63V706.76h-85.69
		v29.97h50.77v63.82l-5.17,4.74c-9.78,9.12-24.09,13.67-42.93,13.67c-19.97,0-35.29-7.47-45.97-22.42
		c-10.68-14.94-16.05-36.41-16.05-64.4v-56.68C3008.9,646.84,3013.73,626.01,3023.01,612.97z M3333.86,716.68h98.26v-29.96h-98.26
		v-89.49h112.57v-29.97h-147.49v277.85h149.4v-29.96h-114.49V716.68z M3661.65,689.18c-17.54-6.25-30.53-13.32-38.94-21.22
		c-8.38-7.9-12.6-17.72-12.6-29.44c0-14.27,3.9-25.36,11.66-33.26c7.74-7.9,18.7-11.86,32.81-11.86c15.51,0,27.42,4.7,35.68,14.13
		c8.28,9.41,12.4,22.7,12.4,39.88h35.12c0-15.53-3.43-29.76-10.29-42.72c-6.89-12.95-16.69-23.07-29.4-30.34
		c-12.72-7.27-27.23-10.91-43.5-10.91c-23.8,0-43.03,7.13-57.73,21.37c-14.68,14.25-22.03,32.39-22.03,54.39
		c0,12.72,2.57,24.01,7.72,33.88c5.15,9.85,12.91,18.64,23.28,26.33c10.36,7.69,25.36,15.04,44.94,22.04
		c19.6,7,33.13,14.19,40.65,21.56c7.5,7.38,11.25,18,11.25,31.87c0,13.61-3.87,24.36-11.64,32.25
		c-7.74,7.89-19.34,11.82-34.72,11.82c-16.54,0-29.6-4.77-39.21-14.31c-9.6-9.54-14.41-22.9-14.41-40.06h-35.12
		c0,16.53,3.92,31.19,11.74,43.97c7.82,12.79,18.57,22.71,32.25,29.77c13.67,7.06,28.6,10.59,44.75,10.59
		c25.19,0,45.09-6.76,59.72-20.31c14.63-13.55,21.96-31.59,21.96-54.11c0-21.37-5.88-38.67-17.64-51.9
		C3708.56,709.36,3689,698.23,3661.65,689.18z M3853.6,597.23h72.9v247.88h34.92V597.23h73.1v-29.97H3853.6V597.23z M4165.37,845.11
		h34.92V567.26h-34.92V845.11z M4437.08,563.45c-29.38,0-52.27,10.53-68.69,31.59c-16.42,21.05-24.63,50.15-24.63,87.3v52.28
		c0.64,36.39,9.26,64.53,25.88,84.44c16.59,19.91,39.21,29.86,67.83,29.86c29.77,0,52.73-10.23,68.88-30.72s24.23-49.67,24.23-87.59
		v-50.56c-0.37-37.41-8.75-66.19-25.09-86.34C4489.15,573.54,4466.34,563.45,4437.08,563.45z M4495.67,734.05
		c-0.39,28.37-5.27,49.41-14.7,63.16c-9.41,13.74-23.92,20.61-43.5,20.61c-19.6,0-34.33-7.45-44.18-22.32
		c-9.85-14.88-14.78-36.51-14.78-64.89V680.8c0.12-28.24,5.12-49.61,14.97-64.12c9.85-14.49,24.38-21.75,43.59-21.75
		c19.85,0,34.58,7.16,44.18,21.47c9.6,14.31,14.41,36.15,14.41,65.55V734.05z M4819.65,567.26v215.07L4708,567.26h-35.09v277.85
		H4708V631l111.25,214.11h35.11V567.26H4819.65z"/>
	<g>
		<g>
			<polygon class="st0" points="966.36,3186.14 854.72,2971.07 819.63,2971.07 819.63,3248.92 854.72,3248.92 854.72,3034.81 
				965.98,3248.92 1001.09,3248.92 1001.09,2971.07 966.36,2971.07 			"/>
			<path class="st0" d="M1237.11,2967.26c-29.39,0-52.27,10.52-68.69,31.59c-16.42,21.05-24.63,50.15-24.63,87.3v52.28
				c0.63,36.39,9.27,64.53,25.88,84.44c16.59,19.91,39.22,29.86,67.84,29.86c29.77,0,52.73-10.23,68.88-30.72
				c16.14-20.49,24.23-49.67,24.23-87.59v-50.57c-0.37-37.41-8.75-66.19-25.1-86.34
				C1289.18,2977.35,1266.37,2967.26,1237.11,2967.26z M1295.7,3137.86c-0.38,28.36-5.26,49.41-14.69,63.16
				c-9.42,13.74-23.92,20.61-43.49,20.61c-19.62,0-34.34-7.45-44.18-22.32c-9.86-14.89-14.78-36.51-14.78-64.89v-49.81
				c0.12-28.24,5.11-49.61,14.97-64.12c9.84-14.49,24.38-21.75,43.59-21.75c19.85,0,34.57,7.16,44.18,21.46
				c9.61,14.31,14.4,36.16,14.4,65.55V3137.86z"/>
			<polygon class="st0" points="1449.27,3001.04 1522.18,3001.04 1522.18,3248.92 1557.09,3248.92 1557.09,3001.04 1630.19,3001.04 
				1630.19,2971.07 1449.27,2971.07 			"/>
			<polygon class="st0" points="1794.44,3120.49 1892.71,3120.49 1892.71,3090.53 1794.44,3090.53 1794.44,3001.04 1907.02,3001.04 
				1907.02,2971.07 1759.53,2971.07 1759.53,3248.92 1908.92,3248.92 1908.92,3218.96 1794.44,3218.96 			"/>
			<path class="st0" d="M2122.23,3093c-17.54-6.25-30.52-13.32-38.94-21.22c-8.37-7.9-12.59-17.72-12.59-29.44
				c0-14.27,3.89-25.36,11.66-33.25c7.75-7.9,18.7-11.86,32.82-11.86c15.5,0,27.41,4.7,35.66,14.13
				c8.28,9.41,12.41,22.7,12.41,39.88h35.1c0-15.52-3.42-29.76-10.29-42.72c-6.88-12.95-16.68-23.07-29.4-30.34
				c-12.72-7.27-27.22-10.9-43.49-10.9c-23.8,0-43.03,7.13-57.74,21.37c-14.68,14.25-22.03,32.38-22.03,54.39
				c0,12.72,2.58,24.01,7.72,33.88c5.14,9.85,12.91,18.64,23.29,26.33c10.36,7.69,25.36,15.05,44.93,22.04
				c19.6,7,33.13,14.19,40.66,21.56c7.5,7.38,11.24,18,11.24,31.87c0,13.61-3.88,24.36-11.64,32.25
				c-7.74,7.89-19.34,11.82-34.72,11.82c-16.54,0-29.61-4.77-39.2-14.31c-9.61-9.54-14.41-22.9-14.41-40.06h-35.12
				c0,16.53,3.92,31.19,11.75,43.97c7.81,12.79,18.57,22.72,32.25,29.77c13.68,7.06,28.59,10.59,44.74,10.59
				c25.19,0,45.08-6.76,59.72-20.31s21.96-31.59,21.96-54.11c0-21.37-5.88-38.67-17.64-51.9
				C2169.14,3113.18,2149.58,3102.04,2122.23,3093z"/>
		</g>
		<g>
			<path class="st0" d="M2748.29,2971.07h-66.22v277.84h62.19c34.6,0,61-10.02,79.2-30.05c18.19-20.03,27.29-48.43,27.29-85.2
				v-46.56c0-36.77-8.96-65.29-26.9-85.58C2805.93,2981.23,2780.73,2971.07,2748.29,2971.07z M2816.22,3135.3
				c-0.25,27.63-6.06,48.48-17.38,62.55c-11.32,14.08-29.25,21.11-53.81,21.11H2717v-217.92h31.29c22.77,0,39.76,6.84,51.04,20.52
				c11.24,13.7,16.89,35.18,16.89,64.46V3135.3z"/>
			<polygon class="st0" points="3028.38,3120.49 3126.63,3120.49 3126.63,3090.53 3028.38,3090.53 3028.38,3001.04 3140.94,3001.04 
				3140.94,2971.07 2993.45,2971.07 2993.45,3248.92 3142.86,3248.92 3142.86,3218.96 3028.38,3218.96 			"/>
		</g>
		<g>
			<polygon class="st0" points="3626.37,3248.92 3661.3,3248.92 3661.3,3126.22 3755.18,3126.22 3755.18,3096.26 3661.3,3096.26 
				3661.3,3001.04 3771,3001.04 3771,2971.07 3626.37,2971.07 			"/>
			<path class="st0" d="M4051.77,3099.6c7.57-12.79,11.35-27.76,11.35-44.94c0-27.35-6.99-48.11-20.97-62.3
				c-14-14.19-34.6-21.28-61.82-21.28h-77.86v277.84h35.09v-112.39h48.87l49.41,112.39h37.6v-2.29l-53.81-118.12
				C4033.49,3122.02,4044.19,3112.38,4051.77,3099.6z M3979.92,3106.56h-42.37v-105.51h42c32.29,0,48.47,17.84,48.47,53.52
				c0,15.8-4.36,28.42-13.09,37.86C4006.24,3101.85,3994.56,3106.56,3979.92,3106.56z"/>
			<path class="st0" d="M4265.93,2971.07l-89.49,277.84h35.87l21.58-72.7h93.86l21.96,72.7h35.87l-89.68-277.84H4265.93z
				 M4243.04,3146.26l37.77-126.32l37.98,126.32H4243.04z"/>
			<rect x="4513.21" y="2971.07" class="st0" width="34.91" height="277.84"/>
			<path class="st0" d="M4836.71,3126.41c-11.77-13.23-31.33-24.37-58.68-33.41c-17.54-6.25-30.54-13.32-38.94-21.22
				c-8.39-7.9-12.6-17.72-12.6-29.44c0-14.27,3.91-25.36,11.67-33.25c7.74-7.9,18.7-11.86,32.81-11.86
				c15.52,0,27.43,4.7,35.68,14.13c8.28,9.41,12.41,22.7,12.41,39.88h35.1c0-15.52-3.43-29.76-10.29-42.72
				c-6.88-12.95-16.68-23.07-29.4-30.34c-12.72-7.27-27.23-10.9-43.5-10.9c-23.79,0-43.03,7.13-57.73,21.37
				c-14.68,14.25-22.03,32.38-22.03,54.39c0,12.72,2.58,24.01,7.72,33.88c5.14,9.85,12.91,18.64,23.29,26.33
				c10.36,7.69,25.35,15.05,44.93,22.04c19.6,7,33.13,14.19,40.65,21.56c7.5,7.38,11.26,18,11.26,31.87
				c0,13.61-3.88,24.36-11.64,32.25c-7.75,7.89-19.34,11.82-34.72,11.82c-16.55,0-29.61-4.77-39.22-14.31
				c-9.61-9.54-14.4-22.9-14.4-40.06h-35.12c0,16.53,3.92,31.19,11.73,43.97c7.83,12.79,18.58,22.72,32.25,29.77
				c13.68,7.06,28.61,10.59,44.76,10.59c25.19,0,45.08-6.76,59.72-20.31c14.62-13.55,21.96-31.59,21.96-54.11
				C4854.37,3156.94,4848.49,3139.64,4836.71,3126.41z"/>
		</g>
	</g>
	<polygon class="st4" points="2608.47,1659.96 2608.47,2617.1 3065.53,2160.03 3065.53,1202.91 	"/>
</g>
</svg>
